<svg width="71" height="64" viewBox="0 0 71 64" fill="none" xmlns="http://www.w3.org/2000/svg">
<path fill-rule="evenodd" clip-rule="evenodd" d="M6.78011 24.111C6.82436 24.2511 6.86205 24.3815 6.90138 24.5037C7.36123 26.0119 7.93652 27.4829 8.62222 28.9037C9.07281 29.8423 9.60242 30.7412 10.2054 31.591C10.6661 32.2364 11.1839 32.8395 11.7525 33.3934C12.1574 33.7841 12.5925 34.1426 13.0538 34.4657C13.8461 35.0172 14.7086 35.4616 15.6186 35.7873C16.2316 36.004 16.8527 36.1996 17.4771 36.3968C17.6674 36.4499 17.8428 36.5459 17.9898 36.6773C18.1367 36.8087 18.2512 36.972 18.3244 37.1545C18.383 37.2712 18.4135 37.3998 18.4135 37.5302C18.4135 37.6606 18.383 37.7891 18.3244 37.9058C17.9395 38.6345 17.4235 39.2868 16.8019 39.8304C16.2462 40.3169 15.6623 40.7707 15.0532 41.1895C14.1033 41.8441 13.0619 42.3564 11.9623 42.7099C11.1148 42.9842 10.2311 43.1319 9.34005 43.1483C8.37479 43.1651 7.4142 43.0112 6.50313 42.6936C5.40775 42.3133 4.40809 41.7018 3.5728 40.9011C3.15501 40.5069 2.78035 40.0699 2.45508 39.5974C1.92598 38.8376 1.51852 38.0009 1.24722 37.1171C0.938423 36.0796 0.813643 34.9965 0.878466 33.9165C0.890397 33.4536 0.940831 32.9924 1.02925 32.5378C1.06738 32.3052 1.14673 32.0812 1.26361 31.8762C1.3059 31.7928 1.3713 31.7233 1.45208 31.6757C1.5291 31.8876 1.5881 32.0978 1.67005 32.2999C1.84758 32.7142 2.08802 33.0989 2.38296 33.4406C2.58737 33.7 2.83188 33.9255 3.10736 34.1088C3.21759 34.1762 3.33138 34.2376 3.44824 34.2929C3.4727 34.3038 3.49867 34.3109 3.52527 34.3141C3.52778 34.2886 3.52778 34.263 3.52527 34.2375C3.5138 34.2049 3.50233 34.1805 3.48921 34.1511C3.26305 33.6492 3.02705 33.1505 2.80088 32.647C2.62999 32.2963 2.47951 31.9361 2.35019 31.5682C2.15127 30.9505 2.06253 30.303 2.08797 29.655C2.09971 29.1778 2.22555 28.7102 2.45508 28.291C2.65592 27.9531 2.9137 27.6522 3.21716 27.4012L3.50233 27.1568C3.50443 27.2519 3.51429 27.3468 3.53183 27.4403C3.578 27.645 3.636 27.8469 3.70555 28.0449C4.14098 29.1154 4.74025 30.1126 5.4821 31.0011C5.59997 31.1295 5.72705 31.2494 5.86233 31.3596C5.87708 31.3726 5.91313 31.3596 5.93444 31.3759C5.93591 31.3528 5.93313 31.3296 5.92624 31.3074C5.68898 30.9158 5.50127 30.4965 5.36738 30.0591C4.97976 28.8731 4.95863 27.5987 5.30674 26.4006C5.4871 25.7509 5.81766 25.1521 6.27205 24.652C6.39497 24.5151 6.52772 24.388 6.65555 24.2495C6.69161 24.212 6.73258 24.168 6.78011 24.111Z" fill="white"/>
<path d="M9.2172 43.6062C8.2397 43.6059 7.26934 43.4406 6.3475 43.1173C5.19106 42.7146 4.13524 42.0694 3.25164 41.2253C2.81211 40.8121 2.41718 40.3544 2.07328 39.8597C1.51754 39.0576 1.09017 38.1747 0.806413 37.2425C0.481643 36.1533 0.349661 35.0163 0.416356 33.8822C0.43139 33.3957 0.4862 32.9111 0.580245 32.4335C0.628844 32.1506 0.727621 31.8785 0.871967 31.63C0.959958 31.4694 1.09402 31.3383 1.25711 31.2536L1.71599 31.0369L1.77172 31.1884C1.65461 30.6783 1.60665 30.1549 1.62913 29.6321C1.64288 29.0834 1.78842 28.5458 2.05361 28.0644C2.27948 27.6797 2.57121 27.3372 2.91566 27.0524L3.20247 26.8047L3.86786 26.2376L3.95964 27.1046C3.95964 27.1486 3.95964 27.1909 3.96947 27.2317C3.96887 27.2628 3.97162 27.294 3.97767 27.3246L4.00061 27.4191C4.0371 27.5751 4.08196 27.729 4.135 27.8803C4.28373 28.2312 4.45564 28.572 4.64961 28.9004C4.54042 28.0177 4.61347 27.1222 4.86431 26.2686C5.06558 25.5524 5.43137 24.8924 5.93286 24.3407C6.00333 24.2625 6.07872 24.1778 6.15575 24.1044L6.31964 23.9415C6.36389 23.8926 6.39503 23.8583 6.43109 23.816L6.97356 23.1641L7.27347 24.1321L7.34395 24.3603C7.79753 25.8479 8.36403 27.2992 9.03856 28.7016C9.47891 29.6168 9.99531 30.4939 10.5824 31.3237C11.0232 31.9465 11.519 32.529 12.064 33.0641C13.1196 34.0821 14.3819 34.8639 15.7662 35.357C16.3333 35.5575 16.9233 35.7449 17.4952 35.9258L17.6083 35.9616C17.8622 36.0342 18.0962 36.1633 18.2924 36.3392C18.4887 36.5151 18.642 36.7332 18.7408 36.9769C18.8265 37.1555 18.8695 37.3514 18.8664 37.5493C18.8632 37.7472 18.8141 37.9417 18.7228 38.1176C18.3132 38.8943 17.7638 39.5897 17.1019 40.1693C16.5318 40.6685 15.9326 41.1338 15.3073 41.5626C14.32 42.2443 13.2371 42.7775 12.0934 43.145C11.2026 43.4309 10.2744 43.5858 9.33848 43.6046L9.2172 43.6062ZM1.43247 32.8718C1.3801 33.2255 1.34782 33.5819 1.33578 33.9392C1.27529 34.9675 1.39394 35.9985 1.6865 36.9866C1.94379 37.8275 2.33081 38.6236 2.83372 39.3463C3.14088 39.7894 3.4941 40.1991 3.88752 40.5686C5.34949 41.9634 7.30783 42.7252 9.33356 42.6871C10.18 42.6713 11.0194 42.5312 11.8247 42.2715C12.8821 41.9303 13.8833 41.4361 14.796 40.8049C15.386 40.399 15.9513 39.9588 16.489 39.4865C17.0687 38.981 17.5493 38.3733 17.9066 37.6939C17.9347 37.6379 17.9483 37.5758 17.9463 37.5132C17.9443 37.4506 17.9267 37.3895 17.8951 37.3354C17.8479 37.2131 17.7722 37.1037 17.6742 37.0161C17.5762 36.9286 17.4587 36.8654 17.3313 36.8318L17.215 36.796C16.6365 36.6118 16.0383 36.4228 15.4565 36.2175C14.5069 35.8771 13.6069 35.4129 12.7801 34.8372C12.2991 34.5011 11.8458 34.1273 11.4248 33.7192C10.8348 33.1484 10.2988 32.5249 9.82358 31.8566C9.20542 30.9855 8.66212 30.0642 8.19945 29.1025C7.55842 27.7752 7.014 26.4039 6.57039 24.9991C6.18163 25.4411 5.89717 25.9639 5.73783 26.5293C5.41352 27.6426 5.43408 28.8272 5.79684 29.9287C5.84764 30.0917 5.92958 30.3182 6.00497 30.5284C6.24261 31.1803 6.33275 31.4589 5.98203 31.6594L5.64278 31.8484L5.38056 31.5355C4.93642 31.0043 3.83672 29.6093 3.26966 28.2209C3.24508 28.1589 3.22542 28.0986 3.20575 28.04C3.06677 28.1844 2.94622 28.3453 2.84683 28.5191C2.65237 28.8752 2.54671 29.2726 2.53872 29.6778C2.51495 30.2727 2.59592 30.8673 2.778 31.4345C2.86683 31.6942 2.97136 31.9484 3.09103 32.1955C3.132 32.2852 3.17297 32.3764 3.2123 32.466C3.32702 32.7219 3.44503 32.9778 3.56303 33.2336C3.68103 33.4895 3.78919 33.7225 3.899 33.9686C3.91539 34.0044 3.93178 34.037 3.94817 34.081L3.97111 34.1674C3.98583 34.2678 3.96959 34.3703 3.92454 34.4614C3.87948 34.5524 3.80772 34.6278 3.71872 34.6775C3.64586 34.7236 3.56206 34.7499 3.47575 34.7536C3.38943 34.7573 3.30365 34.7384 3.22705 34.6986H3.2123C3.08869 34.6399 2.96834 34.5746 2.85175 34.5031C2.53683 34.2937 2.25698 34.0363 2.02247 33.7404C1.79658 33.4716 1.59889 33.1806 1.43247 32.8718Z" fill="#37352E"/>
<path fill-rule="evenodd" clip-rule="evenodd" d="M64.2199 24.111C64.1757 24.2511 64.138 24.3815 64.097 24.5037C63.6377 26.0119 63.063 27.4828 62.3778 28.9037C61.9272 29.8423 61.3976 30.7412 60.7947 31.591C60.3339 32.2364 59.8162 32.8395 59.2476 33.3934C58.8426 33.7841 58.4076 34.1426 57.9463 34.4657C57.1538 35.0169 56.2913 35.4613 55.3814 35.7873C54.7685 36.004 54.1473 36.1996 53.5229 36.3968C53.3326 36.4499 53.1572 36.5459 53.0103 36.6773C52.8633 36.8087 52.7488 36.972 52.6756 37.1545C52.617 37.2712 52.5865 37.3998 52.5865 37.5302C52.5865 37.6606 52.617 37.7891 52.6756 37.9058C53.0606 38.6345 53.5766 39.2868 54.1981 39.8304C54.7539 40.3169 55.3378 40.7707 55.9468 41.1895C56.8967 41.8441 57.9381 42.3564 59.0378 42.7099C59.8852 42.9842 60.7689 43.1319 61.66 43.1483C62.6291 43.1665 63.5937 43.0125 64.5084 42.6936C65.6038 42.3133 66.6034 41.7018 67.4387 40.9011C67.8565 40.5069 68.2312 40.0699 68.5564 39.5974C69.0809 38.8365 69.4844 38 69.7528 37.1171C70.0616 36.0796 70.1864 34.9965 70.1216 33.9165C70.1096 33.4536 70.0592 32.9924 69.9708 32.5378C69.9327 32.3052 69.8533 32.0812 69.7364 31.8762C69.6941 31.7928 69.6287 31.7233 69.548 31.6757C69.4709 31.8876 69.4119 32.0978 69.33 32.2999C69.1519 32.7139 68.9115 33.0985 68.6171 33.4406C68.4127 33.7 68.1682 33.9255 67.8927 34.1088C67.7824 34.1762 67.6686 34.2376 67.5518 34.2929C67.5273 34.3038 67.5014 34.3109 67.4748 34.3141C67.4731 34.2886 67.4731 34.263 67.4748 34.2375C67.4879 34.2049 67.4993 34.1805 67.5125 34.1511C67.7386 33.6492 67.9746 33.1505 68.2008 32.647C68.3717 32.2963 68.5222 31.9361 68.6515 31.5682C68.8504 30.9505 68.9391 30.303 68.9137 29.655C68.9012 29.1779 68.7754 28.7105 68.5466 28.291C68.3458 27.9526 68.0874 27.6516 67.7829 27.4012C67.6911 27.3197 67.5944 27.2383 67.4993 27.1568C67.4972 27.2519 67.4874 27.3468 67.4698 27.4403C67.4237 27.645 67.3657 27.8469 67.2961 28.0449C66.8607 29.1158 66.2609 30.1131 65.5179 31.0011C65.4011 31.1299 65.2745 31.2498 65.1393 31.3596C65.1246 31.3726 65.0885 31.3596 65.0672 31.3759C65.0658 31.3528 65.0685 31.3296 65.0754 31.3074C65.3127 30.9158 65.5004 30.4965 65.6343 30.0591C66.0211 28.873 66.0422 27.5988 65.6949 26.4006C65.5146 25.7509 65.184 25.1521 64.7296 24.652C64.6051 24.5151 64.474 24.388 64.3461 24.2495C64.3068 24.212 64.2675 24.168 64.2199 24.111Z" fill="white"/>
<path d="M61.7846 43.6062H61.6568C60.7196 43.5877 59.7903 43.4323 58.8985 43.1451C57.7563 42.7785 56.6746 42.247 55.6879 41.5676C55.0634 41.1378 54.4647 40.672 53.895 40.1726C53.2305 39.5919 52.6789 38.8948 52.2676 38.116C52.1786 37.9393 52.1311 37.7448 52.1289 37.5471C52.1266 37.3495 52.1695 37.154 52.2545 36.9753C52.354 36.7322 52.5079 36.5147 52.7043 36.3394C52.9008 36.1641 53.1348 36.0355 53.3886 35.9633L53.5049 35.9258C54.0736 35.7465 54.662 35.5591 55.229 35.3603C56.6157 34.8682 57.88 34.0857 58.9362 33.0658C59.4856 32.5305 59.9858 31.9475 60.4309 31.3237C61.0189 30.4951 61.5354 29.6185 61.9747 28.7033C62.6486 27.3025 63.2145 25.8528 63.6677 24.3668C63.6923 24.2902 63.7152 24.2169 63.7381 24.1387L64.0414 23.1609L64.5838 23.8127C64.6182 23.8551 64.6494 23.8893 64.6772 23.9203C64.7461 23.9953 64.8001 24.0507 64.8542 24.1061C64.9083 24.1615 65.0083 24.269 65.082 24.3456C65.582 24.8972 65.9467 25.5566 66.1473 26.2719C66.4063 27.1509 66.4761 28.0743 66.3522 28.9819C66.5481 28.6218 66.7243 28.2513 66.8799 27.8721C66.9317 27.7241 66.9754 27.5734 67.011 27.4207L67.034 27.3262C67.0372 27.2953 67.0372 27.2642 67.034 27.2333C67.034 27.191 67.034 27.1502 67.0438 27.1062L67.1339 26.2393L67.801 26.8064L68.0878 27.0541C68.4322 27.3389 68.7239 27.6814 68.9498 28.0661C69.2157 28.5472 69.3613 29.0849 69.3743 29.6338C69.3968 30.156 69.3488 30.6789 69.2317 31.1885L69.2858 31.0385L69.7463 31.2553C69.9104 31.3407 70.0451 31.4729 70.1331 31.635C70.2775 31.8839 70.3758 32.1565 70.4232 32.44C70.5177 32.9171 70.5725 33.4011 70.5871 33.8871C70.6535 35.019 70.5221 36.1537 70.1986 37.2409C69.915 38.1754 69.4882 39.0609 68.9334 39.8662C68.5884 40.3625 68.1918 40.8214 67.7502 41.2351C66.8673 42.079 65.812 42.7237 64.6559 43.1255C63.7332 43.4464 62.7622 43.609 61.7846 43.6062ZM64.4232 25.0007C63.979 26.4053 63.4346 27.7766 62.7941 29.1041C62.3315 30.0654 61.7882 30.9861 61.17 31.8566C60.6942 32.526 60.1577 33.1506 59.5672 33.7225C59.1466 34.1299 58.6939 34.5032 58.2135 34.8388C57.3876 35.4137 56.4887 35.8773 55.5404 36.2175C54.957 36.4245 54.3604 36.6119 53.7852 36.796L53.6655 36.8335C53.5383 36.8661 53.4207 36.9283 53.3224 37.015C53.2241 37.1017 53.1479 37.2104 53.1001 37.3322C53.0681 37.3867 53.05 37.4481 53.0475 37.5112C53.0449 37.5743 53.0579 37.637 53.0854 37.6939C53.4442 38.3774 53.9277 38.9886 54.5112 39.4963C55.0516 39.9703 55.6196 40.4122 56.2124 40.8196C57.1244 41.4499 58.1244 41.944 59.1804 42.2862C59.9868 42.5459 60.8273 42.686 61.6748 42.7018C62.9508 42.7155 64.2107 42.4177 65.344 41.8344C66.4772 41.251 67.4492 40.4001 68.1746 39.3562C68.6773 38.6326 69.0643 37.8361 69.3218 36.9948C69.6144 36.0089 69.7331 34.9801 69.6726 33.9539C69.6608 33.5955 69.6285 33.238 69.5759 32.8833C69.4078 33.192 69.2079 33.4826 68.9793 33.7502C68.7455 34.0463 68.4656 34.3032 68.15 34.5113C68.15 34.5113 67.5699 34.8584 67.2339 34.6384L66.9831 34.4754L67.0553 34.0941C67.0553 34.0794 67.1536 33.8757 67.2782 33.6052C67.442 33.2499 67.6584 32.7724 67.7911 32.4791C67.8288 32.3927 67.8698 32.3031 67.9108 32.2135C68.0303 31.9665 68.1343 31.7123 68.2221 31.4524C68.4045 30.8847 68.486 30.2897 68.4631 29.6941C68.4551 29.2889 68.3494 28.8916 68.155 28.5354C68.0556 28.3616 67.935 28.2007 67.796 28.0563C67.7786 28.1128 67.7589 28.1671 67.737 28.2193C67.2825 29.3362 66.6572 30.3768 65.8835 31.3041C65.8835 31.3041 65.264 32.0081 64.8165 31.6904L64.4724 31.4443L64.692 31.0825C64.9092 30.7246 65.0815 30.3415 65.205 29.9418C65.5676 28.8414 65.5882 27.6578 65.264 26.5456C65.1043 25.9743 64.8169 25.4461 64.4232 25.0007Z" fill="#37352E"/>
<path d="M43.0962 9.32046L43.1257 9.27809L45.7791 6.38876C45.7791 6.38876 46.6985 5.16817 45.7791 4.86343C44.8596 4.55868 40.5625 6.0889 40.5625 6.0889C40.5625 6.0889 42.0965 5.17305 42.0965 3.64446C42.0965 2.11587 35.6557 4.25557 35.6557 4.25557C35.8106 3.66451 35.9012 3.05862 35.9261 2.44831C35.9457 1.64979 35.1296 1.14461 34.374 1.40535C18.4768 6.99987 15.1007 21.044 15.1007 24.2348V40.4024C15.1011 44.4069 16.7013 48.2473 19.5492 51.0787C22.397 53.9102 26.2594 55.5009 30.2867 55.5009H40.7165C44.7438 55.5009 48.6062 53.9102 51.4541 51.0787C54.3019 48.2473 55.9021 44.4069 55.9025 40.4024V24.2332C55.9019 20.6387 54.6121 17.1623 52.2647 14.4289C49.9173 11.6954 46.6664 9.88404 43.0962 9.32046Z" fill="white"/>
<path d="M44.2451 55.1945C29.8441 55.1945 16.0218 50.3057 18.1687 26.826C19.216 15.3729 24.8882 5.47781 34.4166 1.39233L34.374 1.40374C18.4768 6.99826 15.1007 21.0424 15.1007 24.2332V40.4008C15.1011 44.4053 16.7013 48.2457 19.5491 51.0771C22.397 53.9086 26.2594 55.4993 30.2866 55.4993H40.7165C42.9051 55.5014 45.068 55.031 47.0558 54.1206C46.1331 54.2249 45.194 55.1945 44.2451 55.1945Z" fill="#E4E2E2"/>
<path d="M33.1285 62.3959L33.3481 61.7571L28.9756 60.2464L31.3684 55.3461L30.7587 55.0511L28.3282 60.0329L18.331 59.971L18.3277 60.644L25.7535 60.6896L18.313 62.4676L18.4703 63.1259L28.4659 60.7418" fill="#37352E"/>
<path d="M42.6916 60.7385L52.6855 63.1227L52.8428 62.4676L45.4023 60.6896L52.8313 60.6473V59.9742L42.8292 60.0329L40.4299 54.9403L39.8169 55.2255L42.1851 60.2464L37.806 61.757L38.0306 62.3959" fill="#37352E"/>
<path d="M40.7166 55.9556H30.2867C26.1388 55.9512 22.1619 54.3109 19.2289 51.3944C16.2959 48.478 14.6462 44.5236 14.6419 40.3991C14.6419 40.2736 14.7369 28.2307 14.6419 24.243C14.5484 20.3677 15.6891 7.2378 34.261 0.95721C34.5075 0.874781 34.7704 0.852921 35.0273 0.893503C35.2842 0.934085 35.5273 1.0359 35.736 1.19025C35.9421 1.34168 36.1081 1.54065 36.2197 1.77002C36.3314 1.9994 36.3853 2.2523 36.3768 2.50698C36.3639 2.86719 36.3255 3.22604 36.2621 3.58091C39.4776 2.61617 41.4705 2.39454 42.185 2.92091C42.2994 3.0032 42.3923 3.11155 42.4559 3.23687C42.5194 3.36219 42.5519 3.50085 42.5505 3.64121C42.5463 4.14669 42.409 4.64226 42.1523 5.07854C45.1318 4.16758 45.7168 4.3615 45.9217 4.42669C46.0804 4.47031 46.2255 4.55286 46.3438 4.66675C46.462 4.78064 46.5496 4.92223 46.5986 5.07854C46.8067 5.7418 46.2577 6.5175 46.1446 6.6658L46.1167 6.70002L43.9862 9.02061C47.4965 9.75006 50.6457 11.663 52.9007 14.4357C55.1558 17.2084 56.3783 20.6706 56.3614 24.2365V40.404C56.3558 44.5277 54.7055 48.4807 51.7726 51.3961C48.8397 54.3116 44.8637 55.9512 40.7166 55.9556ZM34.7805 1.78669C34.7046 1.78626 34.6292 1.79894 34.5576 1.82417C16.579 7.90269 15.4728 20.503 15.5613 24.2218C15.658 28.2225 15.5613 40.2818 15.5613 40.4024C15.5686 44.2832 17.1225 48.0029 19.8826 50.7467C22.6426 53.4906 26.3838 55.0349 30.2867 55.0413H40.7166C44.62 55.0349 48.3617 53.4901 51.1219 50.7456C53.882 48.001 55.4355 44.2805 55.442 40.3991V24.2332C55.4585 20.7433 54.2141 17.3636 51.9352 14.7094C49.6564 12.0552 46.4946 10.303 43.0258 9.77187L42.3161 9.66106L42.7849 8.97009L45.4218 6.09869C45.5972 5.8575 45.7644 5.48269 45.7218 5.34906C45.7218 5.33276 45.6742 5.31158 45.6333 5.29691C45.5923 5.28225 44.9613 5.13395 41.7933 6.15409C41.6499 6.2008 41.495 6.19945 41.3524 6.15024C41.2098 6.10103 41.0874 6.00669 41.0039 5.88168C40.9204 5.75666 40.8804 5.60786 40.8901 5.45809C40.8998 5.30831 40.9586 5.16583 41.0575 5.05247C41.4161 4.66794 41.6223 4.16706 41.6376 3.64284C41.4918 3.50269 40.2561 3.3381 36.4817 4.47395C36.3365 4.51778 36.1823 4.52374 36.0341 4.49125C35.8859 4.45876 35.7486 4.38892 35.6354 4.28844C35.5222 4.18796 35.4368 4.06021 35.3876 3.91747C35.3383 3.77473 35.3268 3.6218 35.3541 3.47336C35.414 3.1444 35.4507 2.81169 35.4639 2.47765C35.4677 2.37083 35.4451 2.26472 35.3979 2.16867C35.3507 2.07262 35.2806 1.98957 35.1935 1.92684C35.0746 1.8374 34.9296 1.78879 34.7805 1.78832V1.78669Z" fill="#37352E"/>
<path d="M35.3477 33.5139L30.3622 38.0768L35.3575 43.6616L40.2889 38.1078L35.3477 33.5139Z" fill="#EF9E20"/>
<path d="M35.3608 43.6583L40.2889 38.1046L35.3477 33.5139L35.3608 43.6583Z" fill="#E99123"/>
<path d="M61.3321 24.0572C61.3321 24.0572 60.5307 24.0213 60.2521 24.1256C59.9735 24.2299 54.9782 21.6062 49.0061 21.6062C43.0339 21.6062 39.0088 25.3006 39.0088 25.3006H31.6486C31.6486 25.3006 27.6218 21.6062 21.6514 21.6062C15.6809 21.6062 10.6806 24.2299 10.4053 24.1256C10.13 24.0213 9.32528 24.0572 9.32528 24.0572L9.1532 25.7471C9.1532 25.7471 11.0625 27.336 11.2051 28.1915C11.2887 28.7147 11.782 31.3221 12.0426 32.3471C12.3474 33.5335 12.9063 35.1924 14.3108 36.6982C16.3954 38.9292 18.8489 40.0683 21.376 40.0683C24.1949 40.0683 27.1711 39.6218 29.4607 37.3061C31.7502 34.9904 33.7775 30.5871 33.4546 29.4366C33.3317 28.9966 32.5188 28.3675 32.8646 27.7108C33.2104 27.0541 35.323 27.0867 35.323 27.0867C35.323 27.0867 37.4404 27.0541 37.7813 27.7108C38.1222 28.3675 37.3175 28.9966 37.1913 29.4366C36.8717 30.5871 38.8941 34.9904 41.1869 37.3061C43.4797 39.6218 46.451 40.0683 49.2748 40.0683C51.7987 40.0683 54.2521 38.9276 56.3352 36.6982C57.743 35.1924 58.3018 33.5335 58.6067 32.3471C58.8673 31.3221 59.3622 28.7147 59.4441 28.1915C59.5867 27.3295 61.4928 25.7471 61.4928 25.7471L61.3321 24.0572ZM30.9275 33.1033C29.4017 38.2138 24.9586 39.5468 21.5776 39.5468C18.1966 39.5468 14.8188 36.6004 13.8503 34.9447C12.8817 33.289 11.2624 28.5338 12.9243 25.3299C14.5861 22.1261 22.738 21.6078 27.5973 23.948C31.8944 26.0062 32.4566 27.996 30.9275 33.1033ZM56.8055 34.9447C55.8337 36.6004 52.4559 39.5468 49.0765 39.5468C45.6972 39.5468 41.2541 38.2138 39.725 33.1033C38.196 27.9927 38.7679 26.0062 43.0585 23.9463C47.9178 21.6062 56.0664 22.1212 57.7299 25.3283C59.3933 28.5354 57.7889 33.289 56.8055 34.9447Z" fill="#37352E"/>
<path d="M27.8743 30.0445C27.8749 30.6828 27.6852 31.3069 27.329 31.838C26.9728 32.369 26.4662 32.7831 25.8734 33.0278C25.2805 33.2725 24.6279 33.3369 23.9982 33.2128C23.3685 33.0886 22.79 32.7816 22.3359 32.3305C21.8817 31.8793 21.5723 31.3044 21.4469 30.6784C21.3214 30.0524 21.3855 29.4035 21.631 28.8137C21.8765 28.2239 22.2924 27.7198 22.8261 27.3651C23.3598 27.0104 23.9873 26.821 24.6293 26.821C25.4891 26.8219 26.3135 27.1617 26.9217 27.7659C27.53 28.3701 27.8725 29.1895 27.8743 30.0445Z" fill="#37352E"/>
<path d="M25.6848 30.7908C26.4469 30.7908 27.0647 30.1765 27.0647 29.4187C27.0647 28.6609 26.4469 28.0465 25.6848 28.0465C24.9226 28.0465 24.3048 28.6609 24.3048 29.4187C24.3048 30.1765 24.9226 30.7908 25.6848 30.7908Z" fill="white"/>
<path d="M45 31C45.254 30.3917 45.6187 29.8868 46.0574 29.5358C46.4962 29.1848 46.9937 29 47.5 29C48.0063 29 48.5038 29.1848 48.9426 29.5358C49.3813 29.8868 49.746 30.3917 50 31" stroke="#37352E" stroke-width="2" stroke-miterlimit="10" stroke-linecap="round"/>
</svg>
