<svg width="215" height="226" viewBox="0 0 215 226" fill="none" xmlns="http://www.w3.org/2000/svg">
<path d="M113.136 40.7577L113.197 40.664L119.18 34.1033C119.18 34.1033 121.251 31.329 119.18 30.6355C117.109 29.9419 107.424 33.4097 107.424 33.4097C107.424 33.4097 110.883 31.329 110.883 27.8659C110.883 24.4028 96.3643 29.2718 96.3643 29.2718C96.7153 27.9281 96.9191 26.55 96.9719 25.162C96.9676 24.7466 96.8622 24.3386 96.665 23.9734C96.4678 23.6081 96.1847 23.2965 95.8403 23.0657C95.4958 22.8349 95.1004 22.6918 94.6884 22.6487C94.2763 22.6057 93.86 22.6641 93.4755 22.8189C57.6464 35.5326 50.0411 67.441 50.0411 74.6953V111.43C50.0411 120.53 53.6464 129.257 60.064 135.691C66.4816 142.126 75.1858 145.742 84.2623 145.743H107.77C116.847 145.743 125.552 142.128 131.971 135.693C138.39 129.258 141.996 120.531 141.996 111.43V74.6484C141.994 66.4807 139.088 58.5811 133.798 52.3692C128.508 46.1573 121.182 42.0402 113.136 40.7577Z" fill="white"/>
<path d="M115.721 145.007C83.2667 145.007 52.1119 133.915 56.9545 80.5434C59.3151 54.5162 72.0949 32.0317 93.5737 22.7483L93.4755 22.7764C57.6464 35.4901 50.0411 67.3986 50.0411 74.6528V111.388C50.0411 120.487 53.6464 129.214 60.064 135.649C66.4816 142.084 75.1859 145.699 84.2623 145.701H107.77C112.703 145.703 117.578 144.634 122.059 142.565C119.961 142.795 117.862 145.007 115.721 145.007Z" fill="#E4E2E2"/>
<path d="M90.6711 161.367L91.1666 159.909L81.313 156.479L86.7026 145.344L85.3283 144.674L79.8499 155.996L57.3194 155.851L57.3101 157.383L74.0443 157.491L57.2773 161.526L57.6326 163.025L80.1584 157.604" fill="#37352E"/>
<path d="M112.225 157.599L134.746 163.016L135.101 161.526L118.334 157.491L135.073 157.393V155.86L112.533 155.996L107.125 144.421L105.746 145.073L111.084 156.479L101.212 159.909L101.716 161.367" fill="#37352E"/>
<path d="M107.769 146.737H84.2619C74.9132 146.725 65.9508 142.997 59.3407 136.369C52.7307 129.742 49.0129 120.756 49.003 111.384C49.003 111.103 49.218 83.7351 49.003 74.672C48.7927 65.8666 51.3636 36.0295 93.2226 21.7599C93.7793 21.5704 94.3737 21.5197 94.9543 21.6119C95.535 21.7042 96.0845 21.9367 96.5555 22.2895C97.021 22.6324 97.3963 23.0838 97.6487 23.6048C97.9012 24.1257 98.0233 24.7004 98.0045 25.2793C97.9754 26.0983 97.8879 26.9142 97.7428 27.7208C105.002 25.5323 109.485 25.0403 111.079 26.2259C111.338 26.4099 111.55 26.6536 111.697 26.9365C111.843 27.2194 111.92 27.5333 111.92 27.852C111.913 29.0054 111.603 30.1366 111.023 31.1324C117.735 29.0657 119.053 29.5062 119.507 29.6562C119.862 29.7542 120.188 29.9397 120.454 30.1958C120.72 30.4519 120.918 30.7706 121.031 31.123C121.498 32.6273 120.259 34.4033 120.007 34.7314L119.946 34.811L115.141 40.083C123.053 41.7393 130.151 46.0856 135.234 52.3862C140.317 58.6868 143.072 66.5547 143.033 74.6579V111.393C143.02 120.765 139.301 129.749 132.69 136.374C126.079 143 117.117 146.727 107.769 146.737ZM94.3912 23.6344C94.221 23.6346 94.052 23.6631 93.8911 23.7188C53.3689 37.5337 50.8868 66.1665 51.0738 74.6157C51.2935 83.707 51.0738 111.107 51.0738 111.384C51.0837 120.205 54.5834 128.662 60.8053 134.9C67.0271 141.137 75.4629 144.646 84.2619 144.656H107.769C116.568 144.646 125.004 141.137 131.226 134.9C137.448 128.662 140.948 120.205 140.957 111.384V74.6485C140.995 66.7182 138.189 59.0383 133.053 53.0072C127.917 46.9761 120.79 42.995 112.972 41.7888L111.378 41.5358L112.434 39.9612L118.375 33.438C118.773 32.8897 119.147 32.0321 119.053 31.7369C119.053 31.6994 118.941 31.6478 118.852 31.6197C118.763 31.5916 117.338 31.2495 110.2 33.5645C109.877 33.671 109.527 33.6684 109.206 33.557C108.884 33.4456 108.608 33.2315 108.419 32.9476C108.23 32.6637 108.139 32.3256 108.16 31.9851C108.182 31.6445 108.313 31.3203 108.536 31.0621C109.346 30.1901 109.811 29.0523 109.845 27.8614C109.518 27.5427 106.732 27.1678 98.2242 29.7359C97.8986 29.8363 97.5524 29.8502 97.2198 29.7763C96.8871 29.7024 96.5793 29.5431 96.3264 29.3141C96.0654 29.0851 95.8685 28.7916 95.7554 28.4628C95.6422 28.1341 95.6167 27.7813 95.6814 27.4396C95.8201 26.6923 95.9044 25.9358 95.9338 25.1762C95.9416 24.9333 95.8898 24.6923 95.7831 24.4741C95.6763 24.256 95.5178 24.0674 95.3215 23.925C95.0507 23.7302 94.7244 23.6283 94.3912 23.6344Z" fill="#37352E"/>
<path d="M95.6541 95.7363L84.4355 106.112L95.6914 118.802L106.807 106.182L95.6541 95.7363Z" fill="#EF9E20"/>
<path d="M95.7007 118.788L106.807 106.168L95.6726 95.7363L95.7007 118.788Z" fill="#E99123"/>
<path d="M154.233 74.2454C154.233 74.2454 152.424 74.161 151.798 74.3954C151.171 74.6297 139.911 68.6735 126.453 68.6735C112.996 68.6735 103.923 77.0571 103.923 77.0571H87.3332C87.3332 77.0571 78.2556 68.6594 64.8027 68.6594C51.3498 68.6594 40.0752 74.6203 39.4535 74.3813C38.8318 74.1423 37.0229 74.2313 37.0229 74.2313L36.6349 78.0647C36.6349 78.0647 40.9353 81.6777 41.2579 83.6365C41.4448 84.8268 42.5573 90.7502 43.1276 93.0793C43.9591 96.7591 45.7182 100.163 48.2367 102.967C52.9391 108.038 58.4689 110.624 64.1623 110.624C70.5148 110.624 77.2226 109.612 82.3924 104.35C87.5623 99.087 92.1198 89.0819 91.3953 86.467C91.1148 85.4689 89.2825 84.0349 90.0631 82.5447C90.8437 81.0545 95.6209 81.1388 95.6209 81.1388C95.6209 81.1388 100.389 81.0638 101.174 82.5447C101.959 84.0255 100.122 85.4689 99.8419 86.467C99.122 89.0819 103.68 99.087 108.845 104.35C114.01 109.612 120.713 110.624 127.075 110.624C132.764 110.624 138.293 108.038 142.968 102.967C145.496 100.166 147.267 96.7616 148.11 93.0793C148.694 90.7362 149.811 84.8268 149.979 83.6365C150.302 81.6777 154.598 78.0647 154.598 78.0647L154.233 74.2454ZM85.7066 94.7991C82.2709 106.412 72.2537 109.439 64.6391 109.439C57.0245 109.439 49.4006 102.742 47.2224 98.9839C45.0441 95.2255 41.3887 84.4145 45.1329 77.1274C48.8771 69.8404 67.2521 68.6922 78.2042 73.9923C87.8708 78.6739 89.1562 83.2007 85.7066 94.8038V94.7991ZM144.043 98.9839C141.851 102.733 134.227 109.439 126.621 109.439C119.016 109.439 108.994 106.412 105.545 94.7991C102.095 83.1867 103.39 78.6692 113.056 73.9923C124.008 68.6735 142.379 69.8451 146.128 77.1274C149.876 84.4098 146.226 95.2255 144.043 98.9886V98.9839Z" fill="#37352E"/>
<path d="M78.8258 87.8636C78.8268 89.3134 78.3988 90.7309 77.596 91.9368C76.7933 93.1427 75.6518 94.0828 74.316 94.6383C72.9803 95.1937 71.5102 95.3396 70.0917 95.0573C68.6732 94.775 67.3702 94.0773 66.3473 93.0525C65.3244 92.0277 64.6276 90.7217 64.3452 89.2999C64.0627 87.878 64.2072 86.4041 64.7604 85.0646C65.3136 83.7251 66.2506 82.5802 67.453 81.7746C68.6553 80.969 70.069 80.5391 71.5151 80.5391C73.4528 80.5403 75.3109 81.3123 76.6815 82.6855C78.0522 84.0587 78.8234 85.921 78.8258 87.8636Z" fill="#37352E"/>
<path d="M127.907 87.8636C127.908 89.3134 127.48 90.7309 126.677 91.9368C125.874 93.1427 124.733 94.0828 123.397 94.6383C122.061 95.1937 120.591 95.3396 119.173 95.0573C117.754 94.775 116.451 94.0773 115.428 93.0525C114.405 92.0277 113.709 90.7217 113.426 89.2999C113.144 87.878 113.288 86.4041 113.841 85.0646C114.395 83.7251 115.332 82.5802 116.534 81.7746C117.736 80.969 119.15 80.5391 120.596 80.5391C122.534 80.5403 124.392 81.3123 125.762 82.6855C127.133 84.0587 127.904 85.921 127.907 87.8636Z" fill="#37352E"/>
<path d="M73.8942 89.5504C75.6135 89.5504 77.0073 88.1531 77.0073 86.4294C77.0073 84.7057 75.6135 83.3083 73.8942 83.3083C72.1748 83.3083 70.781 84.7057 70.781 86.4294C70.781 88.1531 72.1748 89.5504 73.8942 89.5504Z" fill="white"/>
<path d="M122.98 89.5504C124.7 89.5504 126.093 88.1531 126.093 86.4294C126.093 84.7057 124.7 83.3083 122.98 83.3083C121.261 83.3083 119.867 84.7057 119.867 86.4294C119.867 88.1531 121.261 89.5504 122.98 89.5504Z" fill="white"/>
<path fill-rule="evenodd" clip-rule="evenodd" d="M84.2908 124.561L83.3559 124.439C79.8131 123.982 76.3098 123.256 72.8759 122.27C70.6112 121.617 68.4049 120.775 66.2804 119.753C64.6647 118.97 63.1223 118.043 61.6715 116.983C58.8825 114.93 56.5662 112.299 54.8796 109.27C54.1644 107.986 53.4773 106.679 52.8182 105.362C52.6294 104.957 52.3497 104.601 52.0011 104.322C51.6524 104.043 51.2441 103.849 50.8082 103.754C50.5255 103.668 50.2268 103.649 49.9355 103.699C49.6442 103.748 49.3685 103.865 49.1301 104.04C47.6416 105.171 46.3738 106.567 45.3906 108.159C44.5094 109.579 43.7134 111.05 43.0067 112.564C41.8988 114.928 41.1413 117.442 40.7583 120.025C40.4614 122.018 40.4614 124.044 40.7583 126.037C41.0798 128.196 41.7826 130.279 42.8337 132.19C44.1043 134.492 45.8587 136.489 47.9755 138.043C49.0073 138.825 50.1181 139.496 51.2897 140.044C53.1905 140.937 55.2187 141.527 57.3009 141.792C59.7352 142.091 62.2026 141.962 64.5929 141.413C65.6195 141.21 66.6279 140.923 67.6079 140.555C68.1162 140.382 68.5907 140.122 69.0102 139.787C69.1816 139.659 69.313 139.485 69.3889 139.285C68.884 139.196 68.3979 139.145 67.9118 139.037C66.9233 138.797 65.9774 138.407 65.1071 137.879C64.4501 137.523 63.8537 137.064 63.3402 136.52C63.1476 136.3 62.9681 136.068 62.8027 135.827C62.7679 135.778 62.7411 135.724 62.7232 135.667C62.7802 135.654 62.8379 135.645 62.8962 135.639L63.1018 135.686C64.3125 136.005 65.5138 136.342 66.7245 136.656C67.5712 136.903 68.4311 137.101 69.3 137.251C70.7551 137.464 72.2362 137.418 73.6753 137.115C74.7373 136.909 75.7353 136.453 76.5874 135.785C77.2686 135.208 77.8458 134.519 78.2936 133.746C78.4385 133.512 78.588 133.277 78.7329 133.024C78.5192 133.054 78.3037 133.068 78.0879 133.067C77.6205 133.024 77.153 132.996 76.6856 132.907C74.1294 132.338 71.6761 131.377 69.4122 130.058C69.0853 129.843 68.773 129.607 68.4774 129.35C68.44 129.318 68.4353 129.238 68.4119 129.191C68.4645 129.182 68.5183 129.182 68.5708 129.191C69.5338 129.573 70.5402 129.834 71.5671 129.969C74.3644 130.381 77.2207 129.947 79.7707 128.722C81.1524 128.072 82.3651 127.11 83.3138 125.911C83.5756 125.583 83.8093 125.241 84.0711 124.903C84.0945 124.795 84.1786 124.688 84.2908 124.561Z" fill="white"/>
<path d="M59.8337 142.987C58.9385 142.988 58.0441 142.935 57.1553 142.828C54.9652 142.544 52.8319 141.923 50.8308 140.986C49.5924 140.405 48.4175 139.697 47.3251 138.873C43.2362 135.821 40.516 131.273 39.7572 126.22C39.4463 124.124 39.4463 121.994 39.7572 119.898C40.1507 117.215 40.9383 114.604 42.0944 112.152C42.8223 110.598 43.6402 109.088 44.5438 107.63C45.5905 105.93 46.9424 104.44 48.531 103.234C48.8912 102.963 49.3092 102.78 49.7521 102.699C50.195 102.617 50.6507 102.64 51.0833 102.766C51.6637 102.896 52.2069 103.156 52.6718 103.528C53.1367 103.9 53.511 104.373 53.7663 104.912L53.8692 105.109C54.4909 106.322 55.1359 107.583 55.8044 108.783C56.824 110.607 58.0816 112.287 59.5439 113.778C60.3988 114.645 61.321 115.443 62.3018 116.163C63.7015 117.188 65.191 118.084 66.7518 118.839C68.8236 119.835 70.9751 120.655 73.1837 121.29C76.5639 122.258 80.0126 122.966 83.5001 123.408L84.047 123.483L86.3234 123.788L85.066 125.241C84.9819 125.339 84.9164 125.423 84.8557 125.503C84.7201 125.676 84.6173 125.817 84.5144 125.972C84.4116 126.126 84.22 126.375 84.047 126.572C83.0021 127.892 81.6661 128.953 80.1439 129.669C78.3307 130.551 76.3563 131.05 74.343 131.136C75.1561 131.45 75.9902 131.707 76.8391 131.904C77.1857 131.964 77.5352 132.004 77.8862 132.026H78.1199C78.1883 132.033 78.2572 132.033 78.3255 132.026L78.6154 131.998L80.5833 131.881L79.1202 134.308C78.6101 135.181 77.9539 135.96 77.1803 136.609C76.2047 137.382 75.0587 137.909 73.8381 138.146C72.677 138.391 71.4888 138.481 70.3043 138.414L70.6642 138.479L70.3511 139.585C70.2214 139.983 69.9755 140.332 69.6452 140.588C69.1416 140.999 68.5685 141.317 67.9531 141.525C66.9297 141.914 65.8759 142.216 64.8026 142.43C63.1719 142.799 61.5055 142.986 59.8337 142.987ZM50.2278 104.706C50.0592 104.698 49.8935 104.752 49.7604 104.856C48.3737 105.913 47.1932 107.217 46.278 108.703C45.4142 110.084 44.6338 111.516 43.9408 112.991C42.8819 115.266 42.1621 117.685 41.8046 120.17C41.5241 122.064 41.5241 123.989 41.8046 125.883C42.1142 127.917 42.7788 129.881 43.7678 131.684C44.958 133.853 46.6001 135.739 48.5825 137.214C49.5596 137.945 50.6091 138.573 51.7143 139.088C53.5205 139.931 55.4457 140.489 57.4217 140.743C59.7346 141.024 62.0785 140.9 64.3491 140.377C65.1464 140.215 65.9344 140.01 66.7097 139.763C65.9562 139.503 65.2311 139.167 64.5455 138.76C63.7983 138.349 63.1201 137.822 62.5355 137.2C62.3315 136.967 62.1411 136.723 61.9652 136.469C61.8378 136.312 61.756 136.124 61.7288 135.924C61.7016 135.723 61.73 135.52 61.811 135.335C61.8906 135.118 62.0334 134.93 62.221 134.795C62.4086 134.661 62.6321 134.586 62.8627 134.58H63.0544C63.1536 134.599 63.2519 134.622 63.3488 134.651C63.9144 134.796 64.4941 134.955 65.0737 135.119L66.9434 135.621L67.5838 135.789C68.1819 135.959 68.7889 136.095 69.4022 136.197C70.7395 136.386 72.0993 136.343 73.4221 136.07C74.3259 135.9 75.1756 135.514 75.8995 134.946C76.2501 134.659 76.564 134.33 76.8344 133.966L76.4324 133.896C73.5356 133.141 70.7619 131.973 68.1962 130.428L67.4483 129.992L67.7054 129.144C68.0232 128.268 68.6683 128.385 70.2295 128.676C70.725 128.765 71.2626 128.863 71.6318 128.915C74.2274 129.306 76.8805 128.906 79.2464 127.767C80.4534 127.199 81.5174 126.366 82.3595 125.33C79.0528 124.872 75.7832 124.177 72.5761 123.249C70.256 122.581 67.9965 121.717 65.8216 120.667C64.1525 119.867 62.5597 118.917 61.0631 117.827C58.1568 115.688 55.742 112.949 53.9814 109.795C53.2942 108.553 52.6398 107.278 52.0088 106.046L51.9059 105.84C51.7848 105.569 51.6013 105.331 51.3705 105.145C51.1397 104.959 50.8683 104.831 50.5784 104.771C50.4645 104.736 50.3468 104.714 50.2278 104.706Z" fill="#37352E"/>
<path fill-rule="evenodd" clip-rule="evenodd" d="M109.004 124.561L109.939 124.439C113.485 123.982 116.991 123.257 120.428 122.27C122.693 121.617 124.899 120.775 127.024 119.753C128.639 118.97 130.182 118.043 131.633 116.983C134.422 114.93 136.738 112.299 138.425 109.27C139.14 107.986 139.827 106.679 140.486 105.362C140.675 104.957 140.954 104.601 141.303 104.322C141.652 104.043 142.06 103.849 142.496 103.754C142.779 103.668 143.077 103.649 143.369 103.699C143.66 103.748 143.936 103.865 144.174 104.04C145.663 105.171 146.93 106.567 147.914 108.159C148.793 109.58 149.589 111.051 150.298 112.564C151.405 114.928 152.163 117.442 152.546 120.025C152.843 122.018 152.843 124.044 152.546 126.037C152.224 128.196 151.522 130.279 150.471 132.19C149.212 134.488 147.472 136.484 145.371 138.043C144.339 138.825 143.228 139.496 142.057 140.044C140.156 140.937 138.128 141.527 136.045 141.792C133.611 142.091 131.144 141.962 128.753 141.413C127.722 141.21 126.709 140.924 125.724 140.555C125.216 140.382 124.742 140.122 124.322 139.787C124.151 139.659 124.019 139.485 123.943 139.285C124.448 139.196 124.934 139.145 125.42 139.037C126.409 138.797 127.355 138.407 128.225 137.879C128.882 137.523 129.478 137.064 129.992 136.52C130.185 136.3 130.364 136.068 130.53 135.827C130.564 135.778 130.591 135.724 130.609 135.667C130.552 135.654 130.494 135.645 130.436 135.639L130.23 135.686C129.02 136.005 127.818 136.342 126.608 136.656C125.761 136.903 124.901 137.101 124.032 137.251C122.577 137.464 121.096 137.418 119.657 137.115C118.595 136.909 117.597 136.453 116.745 135.785C116.064 135.208 115.486 134.519 115.039 133.746C114.894 133.512 114.744 133.277 114.599 133.024C114.813 133.054 115.029 133.068 115.244 133.067C115.712 133.024 116.179 132.996 116.647 132.907C119.203 132.338 121.656 131.377 123.92 130.058C124.247 129.843 124.559 129.607 124.855 129.35C124.892 129.318 124.897 129.238 124.92 129.191C124.868 129.182 124.814 129.182 124.761 129.191C123.798 129.573 122.792 129.834 121.765 129.969C118.968 130.381 116.111 129.947 113.562 128.722C112.18 128.072 110.967 127.11 110.018 125.911C109.757 125.583 109.523 125.241 109.261 124.903C109.21 124.795 109.116 124.688 109.004 124.561Z" fill="white"/>
<path d="M133.46 142.988C131.788 142.987 130.121 142.798 128.491 142.425C127.407 142.214 126.342 141.911 125.308 141.521C124.695 141.311 124.124 140.993 123.621 140.583C123.295 140.327 123.053 139.98 122.924 139.585L122.611 138.479L122.971 138.414C121.788 138.481 120.601 138.391 119.442 138.147C118.22 137.91 117.072 137.383 116.095 136.61C115.321 135.96 114.665 135.182 114.155 134.309L112.687 131.886L114.66 132.003L114.95 132.031C115.02 132.038 115.09 132.038 115.16 132.031H115.389C115.748 132.008 116.105 131.966 116.459 131.905C117.301 131.709 118.127 131.453 118.932 131.141C116.919 131.055 114.945 130.556 113.131 129.674C111.605 128.955 110.266 127.892 109.219 126.567C109.069 126.38 108.924 126.183 108.779 125.981L108.462 125.555C108.373 125.442 108.307 125.358 108.223 125.26L106.966 123.807L109.242 123.502L109.775 123.427C113.271 122.981 116.728 122.266 120.115 121.29C122.326 120.655 124.479 119.834 126.551 118.835C128.111 118.082 129.599 117.187 130.997 116.164C131.979 115.443 132.901 114.643 133.755 113.774C135.219 112.284 136.477 110.604 137.494 108.778C138.163 107.583 138.808 106.323 139.429 105.109L139.532 104.903C139.791 104.365 140.168 103.893 140.635 103.523C141.102 103.152 141.648 102.894 142.229 102.766C142.661 102.642 143.114 102.619 143.556 102.701C143.997 102.782 144.413 102.965 144.772 103.234C146.357 104.44 147.705 105.928 148.75 107.625C149.655 109.083 150.473 110.593 151.199 112.148C152.358 114.602 153.145 117.216 153.537 119.903C153.845 121.996 153.845 124.123 153.537 126.216C153.191 128.494 152.449 130.694 151.344 132.715C150.008 135.139 148.171 137.248 145.955 138.901C144.867 139.723 143.697 140.43 142.463 141.01C139.645 142.337 136.569 143.02 133.456 143.011L133.46 142.988ZM126.589 139.782C127.357 140.027 128.137 140.232 128.926 140.396C131.203 140.919 133.553 141.043 135.872 140.762C137.846 140.507 139.768 139.948 141.57 139.103C142.675 138.588 143.723 137.96 144.697 137.228C146.679 135.751 148.323 133.865 149.517 131.698C150.504 129.891 151.167 127.925 151.475 125.888C151.756 123.997 151.756 122.075 151.475 120.184C151.11 117.7 150.382 115.282 149.316 113.01C148.621 111.535 147.84 110.101 146.979 108.717C146.065 107.237 144.888 105.937 143.505 104.884C143.391 104.8 143.258 104.746 143.117 104.727C142.977 104.708 142.834 104.725 142.701 104.776C142.41 104.834 142.137 104.961 141.905 105.146C141.672 105.331 141.487 105.569 141.365 105.84L141.257 106.051C140.626 107.279 139.972 108.553 139.284 109.8C138.173 111.789 136.8 113.621 135.204 115.245C134.27 116.188 133.265 117.057 132.198 117.846C130.7 118.943 129.106 119.901 127.435 120.709C125.257 121.759 122.994 122.623 120.671 123.291C117.466 124.22 114.198 124.916 110.892 125.372C111.733 126.407 112.795 127.238 114.001 127.804C116.368 128.946 119.022 129.348 121.62 128.957C122.003 128.905 122.555 128.807 123.022 128.718C124.584 128.437 125.229 128.32 125.546 129.187L125.841 130.011L125.046 130.48C123.691 131.267 120.162 133.193 116.843 133.934L116.417 134.009C116.688 134.372 117.002 134.701 117.352 134.988C118.076 135.557 118.926 135.942 119.83 136.113C121.151 136.388 122.509 136.431 123.845 136.239C124.46 136.138 125.069 136.002 125.668 135.832L126.313 135.658C126.935 135.499 127.561 135.33 128.183 135.162C128.805 134.993 129.342 134.848 129.926 134.693C130.017 134.666 130.109 134.644 130.202 134.627H130.394C130.624 134.633 130.848 134.708 131.036 134.842C131.223 134.977 131.366 135.165 131.446 135.382C131.524 135.562 131.552 135.761 131.527 135.956C131.503 136.152 131.426 136.337 131.305 136.492C131.124 136.757 130.928 137.011 130.716 137.252C130.13 137.874 129.451 138.401 128.702 138.812C128.031 139.205 127.324 139.53 126.589 139.782ZM129.81 135.096C129.774 135.131 129.741 135.169 129.711 135.208L129.81 135.096Z" fill="#37352E"/>
<path d="M49.6156 22.8657L57.1601 54.0571L57.4873 53.9774C59.0064 59.7508 77.2132 61.0068 94.1671 56.8782C111.121 52.7496 126.738 43.2882 125.453 37.4538L117.684 6.31396L49.6156 22.8657Z" fill="#37352E"/>
<path d="M49.6156 22.8655L57.1601 54.057L57.1975 54.0804C58.5998 59.3758 73.5858 60.7348 88.7682 58.0356L78.5594 15.8315L49.6156 22.8655Z" fill="#50504C"/>
<path d="M148.343 2.38696L78.5218 4.06462L20.8633 31.7414L21.3728 33.8361L93.6294 33.1285L148.848 4.4817L148.343 2.38696Z" fill="#696967"/>
<path d="M21.0736 31.6901L78.7228 4.01332L148.539 2.34033L93.3255 30.9825L21.0736 31.6901Z" fill="#50504C"/>
<path d="M33.3771 31.5446L30.722 31.5821L79.4478 15.5693L81.4017 16.441L33.3771 31.5446Z" fill="#F9CB42"/>
<path d="M93.2702 13.0574C93.6301 14.5335 89.6101 16.7829 84.2954 18.0763C78.9806 19.3697 74.3857 19.2151 74.0117 17.7342C73.6378 16.2534 77.6671 13.9853 82.9819 12.7153C88.2966 11.4453 92.9149 11.5766 93.2702 13.0574Z" fill="#37352E"/>
<path d="M38.2758 53.0169L35.8966 53.5933L30.722 31.5775L33.3958 31.5447L38.2758 53.0169Z" fill="#F9CB42"/>
<path d="M45.1705 64.4651C45.2261 64.7023 45.1874 64.9519 45.0626 65.161C44.9379 65.37 44.7368 65.5222 44.502 65.5851L36.2377 67.5955C35.9999 67.6479 35.7512 67.6053 35.5443 67.4766C35.3374 67.348 35.1887 67.1435 35.1299 66.9067L34.4194 51.0485C34.3916 50.9322 34.3869 50.8115 34.4057 50.6934C34.4245 50.5753 34.4664 50.462 34.5289 50.3602C34.5915 50.2583 34.6734 50.1698 34.7701 50.0997C34.8668 50.0297 34.9764 49.9795 35.0925 49.9519L37.4577 49.3755C37.5734 49.3468 37.6937 49.3412 37.8115 49.3591C37.9294 49.3771 38.0426 49.4181 38.1446 49.4799C38.2466 49.5417 38.3355 49.6231 38.4061 49.7194C38.4767 49.8156 38.5277 49.9249 38.5562 50.041L45.1705 64.4651Z" fill="#F9CB42"/>
<path d="M37.5935 47.0654C37.5374 46.8311 37.3832 46.5968 37.1261 46.639L34.3214 47.3185C34.0643 47.3794 33.6623 47.7871 33.7184 48.0027L34.1204 49.6803C34.1765 49.91 34.7094 50.0412 34.9665 49.9756L37.7711 49.3008C38.0282 49.2398 38.0563 48.9727 38.0002 48.7431L37.5935 47.0654Z" fill="#E5B62F"/>
<path d="M37.1355 45.3175C37.2281 45.7013 37.2051 46.104 37.0693 46.4747C36.9336 46.8454 36.6912 47.1674 36.3729 47.3999C36.0546 47.6325 35.6746 47.7652 35.2811 47.7813C34.8875 47.7974 34.4981 47.6961 34.1619 47.4902C33.8258 47.2844 33.5581 46.9832 33.3928 46.6248C33.2274 46.2664 33.1717 45.8669 33.2329 45.4768C33.294 45.0868 33.4691 44.7236 33.7361 44.4333C34.0031 44.143 34.35 43.9386 34.7329 43.846C35.2462 43.7218 35.7876 43.8071 36.2381 44.083C36.6887 44.359 37.0115 44.803 37.1355 45.3175Z" fill="#E5B62F"/>
<path d="M92.9894 31.1554L93.4989 33.2501L148.848 4.48148L148.357 2.45703L92.9894 31.1554Z" fill="#37352E"/>
<path d="M21.0367 204.78C21.0367 203.718 20.8826 202.751 20.5744 201.878C20.2833 200.987 19.8466 200.225 19.2644 199.591C18.6993 198.941 18.0058 198.444 17.1838 198.102C16.3619 197.742 15.4286 197.562 14.3841 197.562C12.1922 197.562 10.4541 198.204 9.16985 199.489C7.90268 200.756 7.11498 202.52 6.80675 204.78H21.0367ZM24.7355 216.981C24.1704 217.666 23.494 218.265 22.7063 218.779C21.9186 219.275 21.071 219.686 20.1634 220.012C19.2729 220.337 18.3483 220.577 17.3893 220.731C16.4304 220.902 15.48 220.988 14.5382 220.988C12.7402 220.988 11.0792 220.688 9.55513 220.089C8.04823 219.472 6.73825 218.582 5.6252 217.417C4.52927 216.236 3.67308 214.78 3.05662 213.051C2.44015 211.321 2.13192 209.335 2.13192 207.092C2.13192 205.277 2.40591 203.581 2.95387 202.006C3.51896 200.431 4.32378 199.069 5.36834 197.922C6.4129 196.757 7.68863 195.85 9.19553 195.199C10.7024 194.531 12.3977 194.197 14.2813 194.197C15.8396 194.197 17.278 194.463 18.5965 194.994C19.9322 195.507 21.0795 196.261 22.0385 197.254C23.0145 198.23 23.7765 199.446 24.3245 200.901C24.8725 202.34 25.1464 203.984 25.1464 205.833C25.1464 206.552 25.0694 207.032 24.9153 207.272C24.7612 207.511 24.47 207.631 24.0419 207.631H6.65263C6.704 209.275 6.92662 210.705 7.32047 211.921C7.73144 213.136 8.29653 214.155 9.01573 214.977C9.73493 215.782 10.5911 216.39 11.5843 216.801C12.5775 217.195 13.6906 217.392 14.9235 217.392C16.0708 217.392 17.0554 217.263 17.8773 217.006C18.7164 216.732 19.4356 216.441 20.035 216.133C20.6343 215.825 21.1309 215.542 21.5247 215.286C21.9357 215.012 22.2867 214.875 22.5779 214.875C22.9546 214.875 23.2457 215.02 23.4512 215.311L24.7355 216.981ZM47.7151 200.799C46.8589 199.651 45.9342 198.855 44.941 198.41C43.9478 197.948 42.8348 197.716 41.6018 197.716C39.1874 197.716 37.3294 198.581 36.028 200.311C34.7266 202.04 34.0759 204.506 34.0759 207.708C34.0759 209.403 34.2214 210.859 34.5125 212.075C34.8036 213.273 35.2317 214.267 35.7968 215.054C36.3619 215.825 37.0554 216.39 37.8774 216.75C38.6993 217.109 39.6326 217.289 40.6771 217.289C42.184 217.289 43.494 216.947 44.6071 216.262C45.7373 215.577 46.7732 214.609 47.7151 213.359V200.799ZM52.2871 182.793V220.628H49.5644C48.9137 220.628 48.5028 220.311 48.3315 219.678L47.9205 216.518C46.8075 217.854 45.5403 218.933 44.119 219.755C42.6978 220.577 41.0539 220.988 39.1874 220.988C37.6976 220.988 36.3448 220.705 35.129 220.14C33.9132 219.558 32.8772 218.71 32.021 217.597C31.1648 216.484 30.5055 215.097 30.0432 213.436C29.5809 211.775 29.3497 209.866 29.3497 207.708C29.3497 205.79 29.6065 204.009 30.1203 202.366C30.634 200.705 31.3703 199.266 32.3292 198.05C33.2882 196.835 34.4612 195.884 35.8482 195.199C37.2524 194.497 38.8278 194.146 40.5744 194.146C42.1669 194.146 43.5283 194.42 44.6584 194.968C45.8057 195.499 46.8246 196.244 47.7151 197.203V182.793H52.2871ZM64.3374 194.608V220.628H59.7653V194.608H64.3374ZM65.3135 186.44C65.3135 186.886 65.2193 187.305 65.0309 187.699C64.8597 188.076 64.62 188.418 64.3117 188.726C64.0206 189.017 63.6696 189.249 63.2586 189.42C62.8648 189.591 62.4452 189.677 62 189.677C61.5548 189.677 61.1352 189.591 60.7414 189.42C60.3647 189.249 60.0308 189.017 59.7396 188.726C59.4485 188.418 59.2174 188.076 59.0461 187.699C58.8749 187.305 58.7893 186.886 58.7893 186.44C58.7893 185.995 58.8749 185.576 59.0461 185.182C59.2174 184.771 59.4485 184.42 59.7396 184.129C60.0308 183.82 60.3647 183.581 60.7414 183.409C61.1352 183.238 61.5548 183.153 62 183.153C62.4452 183.153 62.8648 183.238 63.2586 183.409C63.6696 183.581 64.0206 183.82 64.3117 184.129C64.62 184.42 64.8597 184.771 65.0309 185.182C65.2193 185.576 65.3135 185.995 65.3135 186.44Z" fill="black"/>
<path d="M86.8915 198.42C86.686 198.797 86.3692 198.985 85.9411 198.985C85.6842 198.985 85.3931 198.891 85.0678 198.703C84.7424 198.514 84.34 198.309 83.8605 198.086C83.3982 197.847 82.8417 197.632 82.191 197.444C81.5402 197.239 80.7697 197.136 79.8792 197.136C79.1087 197.136 78.4151 197.239 77.7987 197.444C77.1822 197.632 76.6514 197.898 76.2062 198.24C75.7781 198.583 75.4441 198.985 75.2044 199.448C74.9818 199.893 74.8705 200.381 74.8705 200.912C74.8705 201.58 75.0589 202.136 75.4356 202.581C75.8294 203.026 76.3431 203.412 76.9767 203.737C77.6103 204.062 78.3295 204.354 79.1343 204.61C79.9392 204.85 80.7611 205.116 81.6002 205.407C82.4564 205.681 83.2869 205.989 84.0917 206.331C84.8965 206.674 85.6157 207.102 86.2493 207.616C86.8829 208.129 87.3881 208.763 87.7648 209.516C88.1586 210.253 88.3556 211.143 88.3556 212.188C88.3556 213.386 88.1415 214.5 87.7134 215.527C87.2853 216.537 86.6517 217.419 85.8127 218.173C84.9736 218.909 83.9462 219.491 82.7304 219.919C81.5146 220.347 80.1104 220.561 78.5179 220.561C76.7027 220.561 75.0589 220.27 73.5862 219.688C72.1135 219.089 70.8635 218.327 69.8361 217.402L70.9149 215.655C71.0519 215.433 71.2145 215.262 71.4029 215.142C71.5913 215.022 71.831 214.962 72.1221 214.962C72.4303 214.962 72.7557 215.082 73.0982 215.321C73.4406 215.561 73.8516 215.827 74.3311 216.118C74.8277 216.409 75.427 216.674 76.1291 216.914C76.8312 217.154 77.7045 217.274 78.7491 217.274C79.6395 217.274 80.4186 217.162 81.0865 216.94C81.7543 216.7 82.3108 216.383 82.756 215.989C83.2013 215.595 83.5266 215.142 83.7321 214.628C83.9547 214.114 84.066 213.566 84.066 212.984C84.066 212.265 83.8691 211.674 83.4752 211.212C83.0985 210.732 82.5934 210.33 81.9598 210.004C81.3262 209.662 80.5984 209.371 79.7765 209.131C78.9717 208.874 78.1412 208.609 77.285 208.335C76.4459 208.061 75.6154 207.753 74.7934 207.41C73.9886 207.051 73.2694 206.605 72.6358 206.075C72.0022 205.544 71.4885 204.893 71.0947 204.122C70.7179 203.335 70.5296 202.384 70.5296 201.271C70.5296 200.278 70.7351 199.328 71.146 198.42C71.557 197.495 72.1564 196.691 72.9441 196.006C73.7317 195.304 74.6992 194.747 75.8466 194.336C76.9939 193.925 78.3038 193.72 79.7765 193.72C81.4889 193.72 83.0215 193.994 84.3742 194.542C85.7442 195.072 86.9257 195.809 87.9189 196.751L86.8915 198.42ZM112.07 198.754C111.933 198.942 111.796 199.088 111.659 199.191C111.522 199.293 111.333 199.345 111.094 199.345C110.837 199.345 110.554 199.242 110.246 199.037C109.938 198.814 109.552 198.574 109.09 198.317C108.645 198.061 108.088 197.829 107.42 197.624C106.77 197.401 105.965 197.29 105.006 197.29C103.722 197.29 102.592 197.521 101.615 197.984C100.639 198.429 99.8175 199.079 99.1496 199.936C98.4989 200.792 98.0023 201.828 97.6598 203.044C97.3345 204.259 97.1718 205.621 97.1718 207.128C97.1718 208.703 97.3516 210.107 97.7112 211.34C98.0708 212.556 98.576 213.583 99.2267 214.422C99.8945 215.244 100.691 215.878 101.615 216.323C102.557 216.751 103.61 216.965 104.775 216.965C105.888 216.965 106.804 216.837 107.523 216.58C108.242 216.306 108.833 216.006 109.296 215.681C109.775 215.356 110.169 215.065 110.477 214.808C110.802 214.534 111.119 214.397 111.427 214.397C111.804 214.397 112.095 214.542 112.301 214.833L113.585 216.503C113.02 217.205 112.378 217.804 111.659 218.301C110.939 218.798 110.16 219.217 109.321 219.56C108.499 219.885 107.635 220.125 106.727 220.279C105.819 220.433 104.895 220.51 103.953 220.51C102.326 220.51 100.811 220.21 99.4065 219.611C98.0195 219.012 96.8122 218.147 95.7848 217.017C94.7573 215.869 93.9525 214.465 93.3703 212.804C92.7881 211.143 92.497 209.251 92.497 207.128C92.497 205.193 92.7624 203.403 93.2933 201.759C93.8412 200.115 94.6289 198.703 95.6564 197.521C96.7009 196.322 97.9766 195.389 99.4835 194.721C101.008 194.054 102.754 193.72 104.723 193.72C106.556 193.72 108.165 194.019 109.552 194.619C110.957 195.201 112.198 196.031 113.277 197.11L112.07 198.754ZM123.091 197.598C124.204 196.417 125.437 195.475 126.79 194.773C128.142 194.071 129.701 193.72 131.464 193.72C132.886 193.72 134.136 193.959 135.215 194.439C136.31 194.901 137.218 195.569 137.937 196.442C138.674 197.299 139.23 198.335 139.607 199.55C139.984 200.766 140.172 202.11 140.172 203.583V220.15H135.574V203.583C135.574 201.614 135.12 200.09 134.213 199.011C133.322 197.915 131.961 197.367 130.129 197.367C128.776 197.367 127.509 197.692 126.327 198.343C125.163 198.994 124.084 199.876 123.091 200.989V220.15H118.493V182.315H123.091V197.598ZM158.107 193.72C160.007 193.72 161.72 194.036 163.244 194.67C164.768 195.304 166.069 196.203 167.148 197.367C168.227 198.531 169.049 199.944 169.614 201.605C170.196 203.249 170.487 205.09 170.487 207.128C170.487 209.183 170.196 211.032 169.614 212.676C169.049 214.32 168.227 215.724 167.148 216.888C166.069 218.053 164.768 218.952 163.244 219.585C161.72 220.202 160.007 220.51 158.107 220.51C156.189 220.51 154.459 220.202 152.918 219.585C151.394 218.952 150.093 218.053 149.014 216.888C147.935 215.724 147.105 214.32 146.522 212.676C145.957 211.032 145.675 209.183 145.675 207.128C145.675 205.09 145.957 203.249 146.522 201.605C147.105 199.944 147.935 198.531 149.014 197.367C150.093 196.203 151.394 195.304 152.918 194.67C154.459 194.036 156.189 193.72 158.107 193.72ZM158.107 216.94C160.675 216.94 162.593 216.083 163.86 214.371C165.127 212.642 165.761 210.236 165.761 207.153C165.761 204.054 165.127 201.639 163.86 199.91C162.593 198.18 160.675 197.316 158.107 197.316C156.805 197.316 155.667 197.538 154.69 197.984C153.732 198.429 152.927 199.071 152.276 199.91C151.642 200.749 151.163 201.785 150.838 203.018C150.529 204.234 150.375 205.612 150.375 207.153C150.375 210.236 151.009 212.642 152.276 214.371C153.56 216.083 155.504 216.94 158.107 216.94ZM187.254 193.72C189.155 193.72 190.867 194.036 192.391 194.67C193.915 195.304 195.217 196.203 196.295 197.367C197.374 198.531 198.196 199.944 198.761 201.605C199.344 203.249 199.635 205.09 199.635 207.128C199.635 209.183 199.344 211.032 198.761 212.676C198.196 214.32 197.374 215.724 196.295 216.888C195.217 218.053 193.915 218.952 192.391 219.585C190.867 220.202 189.155 220.51 187.254 220.51C185.336 220.51 183.607 220.202 182.066 219.585C180.542 218.952 179.24 218.053 178.161 216.888C177.082 215.724 176.252 214.32 175.67 212.676C175.105 211.032 174.822 209.183 174.822 207.128C174.822 205.09 175.105 203.249 175.67 201.605C176.252 199.944 177.082 198.531 178.161 197.367C179.24 196.203 180.542 195.304 182.066 194.67C183.607 194.036 185.336 193.72 187.254 193.72ZM187.254 216.94C189.823 216.94 191.741 216.083 193.008 214.371C194.275 212.642 194.908 210.236 194.908 207.153C194.908 204.054 194.275 201.639 193.008 199.91C191.741 198.18 189.823 197.316 187.254 197.316C185.953 197.316 184.814 197.538 183.838 197.984C182.879 198.429 182.074 199.071 181.423 199.91C180.79 200.749 180.31 201.785 179.985 203.018C179.677 204.234 179.523 205.612 179.523 207.153C179.523 210.236 180.156 212.642 181.423 214.371C182.708 216.083 184.651 216.94 187.254 216.94ZM210.16 182.315V220.15H205.588V182.315H210.16Z" fill="#FDC644"/>
</svg>
