<svg width="405" height="484" viewBox="0 0 405 484" fill="none" xmlns="http://www.w3.org/2000/svg">
<path d="M276.791 118.681L276.97 118.405L294.63 99.1068C294.63 99.1068 300.742 90.9462 294.63 88.906C288.518 86.8659 259.931 97.0666 259.931 97.0666C259.931 97.0666 270.141 90.9462 270.141 80.7592C270.141 70.5722 227.288 84.8946 227.288 84.8946C228.325 80.9421 228.926 76.8883 229.082 72.8054C229.069 71.5837 228.758 70.3835 228.176 69.309C227.594 68.2345 226.759 67.3181 225.742 66.6391C224.725 65.9601 223.558 65.5391 222.342 65.4126C221.126 65.2861 219.897 65.4578 218.762 65.913C113.011 103.311 90.5641 197.172 90.5641 218.511V326.57C90.5641 353.336 101.205 379.007 120.147 397.935C139.089 416.863 164.78 427.498 191.569 427.502H260.952C287.744 427.502 313.439 416.868 332.383 397.94C351.328 379.011 361.971 353.339 361.971 326.57V218.373C361.967 194.347 353.388 171.11 337.775 152.837C322.162 134.564 300.539 122.454 276.791 118.681Z" fill="white"/>
<path d="M284.42 425.338C188.63 425.338 96.676 392.709 110.969 235.714C117.937 159.153 155.657 93.0138 219.052 65.7061L218.762 65.7889C113.011 103.187 90.5641 197.048 90.5641 218.387V326.446C90.5641 353.212 101.205 378.883 120.147 397.811C139.089 416.739 164.78 427.374 191.569 427.378H260.952C275.513 427.386 289.902 424.24 303.129 418.156C296.934 418.832 290.739 425.338 284.42 425.338Z" fill="#E4E2E2"/>
<path d="M210.485 473.461L211.948 469.174L182.864 459.083L198.772 426.331L194.716 424.359L178.546 457.663L112.046 457.236L112.019 461.744L161.411 462.061L111.922 473.929L112.971 478.34L179.457 462.391" fill="#37352E"/>
<path d="M274.1 462.378L340.572 478.313L341.621 473.93L292.132 462.061L341.538 461.771V457.264L275.011 457.663L259.048 423.615L254.978 425.531L270.734 459.083L241.596 469.174L243.086 473.461" fill="#37352E"/>
<path d="M260.952 430.425H191.568C163.976 430.392 137.523 419.424 118.013 399.929C98.503 380.433 87.5298 354.001 87.5006 326.432C87.5006 325.605 88.1352 245.102 87.5006 218.442C86.8797 192.54 94.4679 104.772 218.016 62.7975C219.66 62.2401 221.414 62.0907 223.128 62.3621C224.841 62.6335 226.463 63.3175 227.853 64.3552C229.228 65.3639 230.335 66.6919 231.08 68.2242C231.825 69.7566 232.186 71.4472 232.13 73.1499C232.044 75.5592 231.786 77.9592 231.358 80.3318C252.784 73.8943 266.015 72.4469 270.72 75.9344C271.486 76.4758 272.111 77.1925 272.543 78.0247C272.975 78.8569 273.201 79.7803 273.203 80.7178C273.181 84.1105 272.268 87.438 270.554 90.3671C290.366 84.288 294.257 85.5838 295.595 86.0249C296.645 86.3131 297.606 86.8587 298.391 87.6122C299.177 88.3656 299.762 89.3031 300.093 90.3396C301.472 94.7645 297.816 99.9889 297.071 100.954L296.892 101.188L282.709 116.696C306.062 121.568 327.013 134.353 342.015 152.887C357.017 171.42 365.149 194.564 365.033 218.4V326.46C364.997 354.026 354.018 380.453 334.506 399.943C314.994 419.433 288.542 430.395 260.952 430.425ZM221.466 68.3114C220.963 68.3119 220.464 68.3958 219.989 68.5595C100.387 109.197 93.0606 193.422 93.6125 218.276C94.2609 245.019 93.6125 325.619 93.6125 326.432C93.6417 352.38 103.971 377.258 122.335 395.606C140.699 413.954 165.598 424.275 191.568 424.304H260.952C286.922 424.275 311.821 413.954 330.185 395.606C348.549 377.258 358.878 352.38 358.908 326.432V218.373C359.017 195.045 350.738 172.454 335.577 154.713C320.417 136.972 299.383 125.262 276.307 121.714L271.603 120.969L274.721 116.338L292.256 97.1493C293.429 95.5364 294.533 93.0138 294.257 92.1454C294.257 92.0351 293.925 91.8835 293.663 91.8008C293.401 91.718 289.193 90.7117 268.126 97.5214C267.171 97.8348 266.141 97.827 265.191 97.4993C264.242 97.1716 263.426 96.542 262.869 95.7068C262.311 94.8717 262.044 93.8772 262.106 92.8754C262.168 91.8737 262.558 90.92 263.214 90.1604C265.604 87.5954 266.977 84.2484 267.077 80.7453C266.111 79.8079 257.889 78.7052 232.779 86.2592C231.818 86.5547 230.796 86.5957 229.814 86.3782C228.832 86.1607 227.924 85.6922 227.177 85.0186C226.407 84.3449 225.826 83.4817 225.492 82.5146C225.158 81.5474 225.083 80.5098 225.274 79.5047C225.683 77.3063 225.932 75.0811 226.019 72.8466C226.042 72.1323 225.889 71.4231 225.574 70.7814C225.259 70.1398 224.791 69.5851 224.211 69.1661C223.412 68.5932 222.449 68.2935 221.466 68.3114Z" fill="#37352E"/>
<path d="M225.193 280.404L192.081 310.924L225.303 348.254L258.111 311.131L225.193 280.404Z" fill="#EF9E20"/>
<path d="M225.329 348.212L258.11 311.089L225.247 280.404L225.329 348.212Z" fill="#E99123"/>
<path d="M398.091 217.187C398.091 217.187 392.751 216.939 390.903 217.629C389.054 218.318 355.818 200.797 316.097 200.797C276.377 200.797 249.598 225.458 249.598 225.458H200.634C200.634 225.458 173.841 200.756 134.134 200.756C94.4272 200.756 61.1498 218.29 59.3148 217.587C57.4799 216.884 52.1406 217.146 52.1406 217.146L50.9955 228.422C50.9955 228.422 63.6884 239.05 64.6403 244.812C65.1922 248.313 68.4758 265.737 70.159 272.588C72.6131 283.413 77.8051 293.427 85.2387 301.674C99.1181 316.589 115.439 324.199 132.244 324.199C150.993 324.199 170.791 321.221 186.051 305.741C201.31 290.261 214.761 260.83 212.623 253.138C211.795 250.202 206.387 245.984 208.691 241.6C210.995 237.217 225.095 237.465 225.095 237.465C225.095 237.465 239.167 237.244 241.485 241.6C243.803 245.956 238.381 250.202 237.553 253.138C235.429 260.83 248.88 290.261 264.126 305.741C279.371 321.221 299.155 324.199 317.932 324.199C334.723 324.199 351.044 316.589 364.841 301.674C372.304 293.434 377.529 283.42 380.017 272.588C381.742 265.696 385.039 248.313 385.536 244.812C386.488 239.05 399.167 228.422 399.167 228.422L398.091 217.187ZM195.832 277.647C185.692 311.806 156.126 320.711 133.651 320.711C111.176 320.711 88.674 301.013 82.2448 289.957C75.8156 278.902 65.0266 247.1 76.0777 225.665C87.1288 204.23 141.363 200.852 173.689 216.443C202.22 230.214 206.014 243.53 195.832 277.661V277.647ZM368.014 289.957C361.543 300.985 339.041 320.711 316.594 320.711C294.147 320.711 264.567 311.806 254.385 277.647C244.203 243.489 248.025 230.2 276.556 216.443C308.882 200.797 363.102 204.244 374.167 225.665C385.232 247.087 374.457 278.902 368.014 289.971V289.957Z" fill="#37352E"/>
<path d="M175.523 257.246C175.526 261.511 174.263 265.681 171.893 269.228C169.524 272.775 166.155 275.541 162.212 277.174C158.27 278.808 153.931 279.237 149.744 278.407C145.557 277.577 141.711 275.524 138.692 272.51C135.673 269.495 133.617 265.654 132.783 261.471C131.949 257.289 132.376 252.953 134.009 249.013C135.641 245.073 138.407 241.705 141.956 239.335C145.505 236.965 149.677 235.701 153.945 235.701C159.665 235.704 165.149 237.975 169.194 242.014C173.24 246.054 175.516 251.532 175.523 257.246Z" fill="#37352E"/>
<path d="M320.387 257.246C320.39 261.511 319.127 265.681 316.758 269.228C314.388 272.775 311.019 275.541 307.077 277.174C303.134 278.808 298.795 279.237 294.608 278.407C290.422 277.577 286.576 275.524 283.556 272.51C280.537 269.495 278.481 265.654 277.647 261.471C276.813 257.289 277.24 252.953 278.873 249.013C280.506 245.073 283.271 241.705 286.82 239.335C290.369 236.965 294.541 235.701 298.809 235.701C304.529 235.704 310.013 237.975 314.058 242.014C318.104 246.054 320.38 251.532 320.387 257.246Z" fill="#37352E"/>
<path d="M160.968 262.209C166.042 262.209 170.156 258.098 170.156 253.028C170.156 247.958 166.042 243.847 160.968 243.847C155.893 243.847 151.779 247.958 151.779 253.028C151.779 258.098 155.893 262.209 160.968 262.209Z" fill="white"/>
<path d="M305.846 262.209C310.921 262.209 315.035 258.098 315.035 253.028C315.035 247.958 310.921 243.847 305.846 243.847C300.772 243.847 296.658 247.958 296.658 253.028C296.658 258.098 300.772 262.209 305.846 262.209Z" fill="white"/>
<path fill-rule="evenodd" clip-rule="evenodd" d="M191.653 365.194L188.893 364.836C178.436 363.49 168.096 361.356 157.961 358.454C151.277 356.534 144.765 354.058 138.494 351.051C133.726 348.747 129.173 346.02 124.891 342.904C116.659 336.863 109.823 329.125 104.844 320.215C102.733 316.438 100.705 312.592 98.76 308.718C98.2028 307.526 97.3774 306.48 96.3483 305.659C95.3192 304.839 94.1142 304.268 92.8275 303.99C91.9933 303.736 91.1114 303.68 90.2516 303.826C89.3919 303.972 88.5781 304.316 87.8745 304.831C83.481 308.157 79.7394 312.265 76.8372 316.948C74.2364 321.123 71.8868 325.45 69.801 329.905C66.5311 336.859 64.2954 344.252 63.1648 351.851C62.2887 357.714 62.2887 363.674 63.1648 369.537C64.1139 375.886 66.1883 382.015 69.2905 387.636C73.0407 394.406 78.219 400.281 84.4668 404.853C87.5121 407.152 90.7906 409.125 94.2486 410.739C99.8591 413.365 105.845 415.1 111.991 415.881C119.176 416.76 126.459 416.382 133.514 414.765C136.544 414.167 139.52 413.323 142.413 412.242C143.913 411.733 145.313 410.968 146.551 409.981C147.057 409.606 147.445 409.094 147.669 408.506C146.179 408.244 144.744 408.093 143.309 407.776C140.392 407.071 137.6 405.923 135.031 404.371C133.092 403.322 131.332 401.973 129.816 400.373C129.248 399.725 128.718 399.044 128.23 398.333C128.127 398.19 128.048 398.032 127.995 397.864C128.163 397.826 128.334 397.798 128.506 397.782L129.113 397.92C132.686 398.857 136.232 399.849 139.805 400.773C142.304 401.498 144.842 402.083 147.407 402.524C151.701 403.15 156.073 403.014 160.321 402.124C163.455 401.516 166.401 400.174 168.916 398.209C170.926 396.514 172.63 394.485 173.952 392.213C174.379 391.523 174.821 390.834 175.248 390.09C174.618 390.178 173.981 390.219 173.345 390.214C171.965 390.09 170.585 390.007 169.206 389.745C161.661 388.071 154.42 385.244 147.738 381.364C146.773 380.732 145.851 380.037 144.979 379.283C144.868 379.186 144.855 378.952 144.786 378.814C144.941 378.787 145.099 378.787 145.255 378.814C148.097 379.938 151.067 380.706 154.098 381.102C162.355 382.314 170.785 381.037 178.311 377.435C182.39 375.522 185.969 372.691 188.769 369.164C189.542 368.2 190.232 367.193 191.004 366.201C191.073 365.884 191.322 365.567 191.653 365.194Z" fill="white"/>
<path d="M119.467 419.396C116.825 419.398 114.185 419.242 111.562 418.928C105.098 418.092 98.8014 416.265 92.8951 413.51C89.2399 411.801 85.7722 409.718 82.5476 407.293C70.4793 398.317 62.4506 384.939 60.2109 370.074C59.2933 363.91 59.2933 357.643 60.2109 351.479C61.3722 343.585 63.6969 335.906 67.1092 328.692C69.2578 324.121 71.6717 319.68 74.3387 315.39C77.4281 310.39 81.4184 306.006 86.1072 302.46C87.1702 301.663 88.404 301.124 89.7112 300.884C91.0184 300.645 92.3634 300.712 93.6401 301.081C95.3532 301.464 96.9566 302.231 98.3287 303.325C99.7009 304.419 100.806 305.811 101.559 307.395L101.863 307.974C103.698 311.544 105.602 315.252 107.575 318.781C110.584 324.147 114.296 329.089 118.612 333.476C121.135 336.026 123.857 338.372 126.752 340.492C130.883 343.506 135.28 346.141 139.886 348.363C146.001 351.293 152.352 353.705 158.87 355.573C168.847 358.419 179.026 360.502 189.32 361.803L190.934 362.024L197.653 362.92L193.941 367.193C193.693 367.483 193.5 367.731 193.321 367.965C192.921 368.475 192.617 368.889 192.313 369.344C192.01 369.799 191.444 370.529 190.934 371.108C187.85 374.994 183.906 378.112 179.414 380.22C174.062 382.813 168.235 384.282 162.292 384.535C164.692 385.459 167.154 386.214 169.659 386.795C170.683 386.969 171.714 387.089 172.75 387.154H173.44C173.642 387.174 173.845 387.174 174.047 387.154L174.902 387.071L180.711 386.726L176.392 393.867C174.887 396.435 172.95 398.724 170.667 400.635C167.787 402.908 164.404 404.458 160.802 405.157C157.375 405.876 153.868 406.14 150.372 405.942L151.434 406.135L150.51 409.389C150.127 410.559 149.401 411.586 148.426 412.339C146.94 413.548 145.248 414.482 143.432 415.096C140.411 416.238 137.301 417.128 134.133 417.756C129.32 418.843 124.402 419.393 119.467 419.396ZM91.1154 306.788C90.6176 306.767 90.1285 306.923 89.7357 307.229C85.6427 310.339 82.1584 314.175 79.4572 318.547C76.9078 322.61 74.6043 326.822 72.5589 331.16C69.4334 337.853 67.3091 344.968 66.2539 352.278C65.426 357.849 65.426 363.511 66.2539 369.082C67.1676 375.066 69.1291 380.843 72.0484 386.147C75.5611 392.526 80.4079 398.074 86.2589 402.414C89.1431 404.563 92.2406 406.411 95.5027 407.927C100.834 410.406 106.516 412.047 112.348 412.794C119.175 413.62 126.093 413.256 132.795 411.718C135.148 411.242 137.474 410.639 139.762 409.912C137.538 409.148 135.398 408.16 133.374 406.963C131.169 405.751 129.167 404.203 127.442 402.372C126.84 401.688 126.278 400.97 125.759 400.222C125.383 399.762 125.141 399.206 125.061 398.618C124.98 398.029 125.064 397.43 125.303 396.886C125.538 396.247 125.96 395.695 126.514 395.299C127.067 394.903 127.727 394.683 128.408 394.666H128.973C129.266 394.721 129.556 394.79 129.842 394.873C131.512 395.301 133.223 395.769 134.933 396.252L140.452 397.727L142.342 398.223C144.107 398.722 145.899 399.123 147.709 399.422C151.656 399.978 155.67 399.852 159.574 399.05C162.242 398.549 164.75 397.414 166.886 395.742C167.921 394.898 168.848 393.93 169.646 392.861L168.459 392.654C159.909 390.433 151.722 386.998 144.15 382.453L141.942 381.171L142.701 378.676C143.639 376.098 145.543 376.443 150.151 377.298C151.613 377.56 153.2 377.849 154.29 378.001C161.951 379.152 169.782 377.975 176.765 374.623C180.327 372.953 183.468 370.503 185.953 367.455C176.193 366.11 166.543 364.064 157.077 361.335C150.229 359.369 143.56 356.828 137.141 353.739C132.214 351.388 127.513 348.592 123.096 345.386C114.518 339.094 107.39 331.037 102.194 321.758C100.166 318.105 98.2344 314.356 96.3719 310.731L96.0683 310.124C95.7108 309.328 95.1692 308.628 94.488 308.081C93.8068 307.535 93.0055 307.158 92.1501 306.981C91.8138 306.877 91.4666 306.812 91.1154 306.788Z" fill="#37352E"/>
<path fill-rule="evenodd" clip-rule="evenodd" d="M264.595 365.194L267.355 364.836C277.821 363.491 288.17 361.358 298.314 358.454C304.999 356.534 311.511 354.058 317.781 351.051C322.55 348.747 327.103 346.02 331.385 342.904C339.617 336.863 346.453 329.125 351.431 320.215C353.542 316.438 355.57 312.592 357.515 308.718C358.073 307.526 358.898 306.48 359.927 305.659C360.956 304.839 362.161 304.268 363.448 303.99C364.282 303.736 365.164 303.68 366.024 303.826C366.884 303.972 367.697 304.316 368.401 304.831C372.794 308.157 376.536 312.265 379.438 316.948C382.034 321.126 384.383 325.453 386.475 329.905C389.744 336.859 391.98 344.252 393.111 351.851C393.987 357.714 393.987 363.674 393.111 369.537C392.162 375.886 390.087 382.015 386.985 387.636C383.271 394.394 378.136 400.267 371.933 404.853C368.888 407.152 365.609 409.125 362.151 410.739C356.541 413.365 350.554 415.1 344.409 415.881C337.224 416.76 329.941 416.382 322.886 414.765C319.842 414.169 316.852 413.326 313.946 412.242C312.446 411.733 311.045 410.968 309.807 409.981C309.301 409.606 308.913 409.094 308.689 408.506C310.179 408.244 311.614 408.093 313.049 407.776C315.967 407.071 318.758 405.923 321.327 404.371C323.266 403.322 325.026 401.973 326.542 400.373C327.111 399.725 327.64 399.044 328.129 398.333C328.231 398.19 328.31 398.032 328.363 397.864C328.195 397.826 328.025 397.798 327.853 397.782L327.246 397.92C323.672 398.857 320.127 399.849 316.553 400.773C314.054 401.498 311.516 402.083 308.951 402.524C304.657 403.15 300.285 403.014 296.038 402.124C292.903 401.516 289.958 400.174 287.442 398.209C285.432 396.514 283.728 394.485 282.407 392.213C281.979 391.523 281.537 390.834 281.11 390.09C281.741 390.178 282.377 390.219 283.014 390.214C284.393 390.09 285.773 390.007 287.153 389.745C294.697 388.071 301.938 385.244 308.62 381.364C309.585 380.732 310.507 380.037 311.38 379.283C311.49 379.186 311.504 378.952 311.573 378.814C311.417 378.787 311.259 378.787 311.104 378.814C308.261 379.938 305.291 380.706 302.26 381.102C294.004 382.314 285.573 381.037 278.047 377.435C273.969 375.522 270.389 372.691 267.589 369.164C266.816 368.2 266.127 367.193 265.354 366.201C265.202 365.884 264.926 365.567 264.595 365.194Z" fill="white"/>
<path d="M336.779 419.396C331.843 419.395 326.924 418.84 322.113 417.742C318.912 417.121 315.769 416.231 312.717 415.082C310.907 414.464 309.221 413.531 307.737 412.325C306.776 411.571 306.061 410.549 305.681 409.389L304.757 406.136L305.819 405.943C302.327 406.14 298.825 405.876 295.402 405.157C291.795 404.461 288.407 402.911 285.524 400.635C283.241 398.724 281.304 396.435 279.798 393.867L275.466 386.74L281.289 387.085L282.144 387.168C282.35 387.188 282.558 387.188 282.765 387.168H283.441C284.5 387.101 285.555 386.977 286.6 386.795C289.083 386.219 291.522 385.468 293.899 384.548C287.956 384.296 282.129 382.827 276.777 380.234C272.273 378.119 268.321 374.991 265.229 371.095C264.788 370.543 264.36 369.964 263.932 369.371L262.994 368.117C262.732 367.786 262.539 367.538 262.291 367.249L258.579 362.975L265.298 362.079L266.871 361.859C277.189 360.545 287.392 358.443 297.389 355.573C303.914 353.704 310.269 351.288 316.387 348.35C320.99 346.134 325.382 343.504 329.508 340.492C332.406 338.372 335.128 336.02 337.648 333.462C341.97 329.081 345.682 324.138 348.685 318.767C350.658 315.252 352.562 311.544 354.397 307.974L354.7 307.367C355.463 305.785 356.576 304.397 357.956 303.308C359.335 302.219 360.944 301.457 362.661 301.081C363.934 300.716 365.273 300.651 366.576 300.89C367.878 301.129 369.107 301.666 370.166 302.46C374.843 306.006 378.824 310.385 381.907 315.376C384.579 319.663 386.993 324.105 389.137 328.679C392.555 335.9 394.88 343.588 396.035 351.493C396.946 357.648 396.946 363.905 396.035 370.061C395.015 376.763 392.825 383.235 389.564 389.18C385.621 396.309 380.197 402.513 373.657 407.376C370.445 409.794 366.991 411.873 363.351 413.579C355.034 417.483 345.953 419.493 336.765 419.465L336.779 419.396ZM316.497 409.968C318.764 410.688 321.067 411.291 323.396 411.773C330.116 413.312 337.053 413.676 343.898 412.849C349.722 412.1 355.396 410.454 360.716 407.969C363.975 406.456 367.069 404.608 369.946 402.455C375.795 398.11 380.645 392.563 384.17 386.189C387.085 380.874 389.041 375.088 389.951 369.096C390.779 363.534 390.779 357.881 389.951 352.32C388.872 345.011 386.724 337.9 383.577 331.215C381.525 326.876 379.221 322.66 376.678 318.588C373.983 314.233 370.508 310.411 366.427 307.312C366.09 307.065 365.696 306.906 365.281 306.851C364.867 306.796 364.445 306.845 364.054 306.995C363.195 307.166 362.389 307.54 361.703 308.084C361.017 308.628 360.471 309.327 360.109 310.124L359.791 310.745C357.929 314.356 355.997 318.106 353.969 321.772C350.687 327.625 346.636 333.012 341.925 337.79C339.167 340.563 336.202 343.121 333.053 345.441C328.632 348.668 323.926 351.487 318.995 353.864C312.566 356.952 305.887 359.493 299.031 361.459C289.57 364.191 279.924 366.237 270.168 367.579C272.65 370.623 275.786 373.068 279.343 374.734C286.329 378.093 294.165 379.275 301.832 378.125C302.963 377.973 304.591 377.684 305.971 377.422C310.579 376.595 312.483 376.25 313.421 378.8L314.29 381.226L311.945 382.605C307.944 384.921 297.527 390.586 287.732 392.764L286.476 392.985C287.274 394.055 288.201 395.022 289.235 395.866C291.372 397.538 293.88 398.673 296.548 399.174C300.447 399.983 304.457 400.109 308.399 399.546C310.214 399.248 312.01 398.848 313.78 398.347L315.683 397.837C317.518 397.368 319.367 396.872 321.202 396.376C323.037 395.88 324.624 395.452 326.348 394.997C326.616 394.919 326.888 394.854 327.162 394.804H327.728C328.408 394.821 329.068 395.041 329.622 395.437C330.175 395.833 330.597 396.385 330.832 397.024C331.063 397.555 331.147 398.139 331.074 398.714C331.001 399.289 330.775 399.834 330.418 400.291C329.884 401.069 329.304 401.815 328.68 402.524C326.951 404.356 324.944 405.905 322.734 407.114C320.755 408.27 318.666 409.226 316.497 409.968ZM326.003 396.183C325.899 396.286 325.802 396.397 325.714 396.514L326.003 396.183Z" fill="#37352E"/>
<path d="M89.3081 66.0507L111.576 157.802L112.542 157.568C117.026 174.551 170.763 178.245 220.804 166.101C270.844 153.956 316.938 126.125 313.144 108.963L290.214 17.3628L89.3081 66.0507Z" fill="#37352E"/>
<path d="M89.3081 66.0506L111.576 157.802L111.686 157.871C115.825 173.448 160.057 177.446 204.868 169.506L174.737 45.3596L89.3081 66.0506Z" fill="#50504C"/>
<path d="M380.706 5.81116L174.626 10.7461L4.44458 92.1591L5.94841 98.321L219.216 96.2395L382.196 11.973L380.706 5.81116Z" fill="#696967"/>
<path d="M5.06519 92.0075L175.219 10.5944L381.285 5.67322L218.319 89.926L5.06519 92.0075Z" fill="#50504C"/>
<path d="M41.3796 91.5802L33.5431 91.6905L177.359 44.5879L183.126 47.1518L41.3796 91.5802Z" fill="#F9CB42"/>
<path d="M218.156 37.1991C219.218 41.5413 207.353 48.1581 191.666 51.9627C175.979 55.7673 162.417 55.3123 161.314 50.9564C160.21 46.6004 172.103 39.9286 187.789 36.1929C203.476 32.4572 217.107 32.8432 218.156 37.1991Z" fill="#37352E"/>
<path d="M55.8384 154.742L48.8159 156.438L33.5431 91.6768L41.4347 91.5803L55.8384 154.742Z" fill="#F9CB42"/>
<path d="M76.1881 188.418C76.3523 189.116 76.2382 189.85 75.8699 190.465C75.5016 191.08 74.9081 191.528 74.2152 191.713L49.8228 197.627C49.121 197.781 48.3867 197.655 47.7761 197.277C47.1654 196.898 46.7266 196.297 46.553 195.6L44.4559 148.952C44.3738 148.61 44.3602 148.255 44.4156 147.908C44.4711 147.56 44.5947 147.227 44.7792 146.928C44.9638 146.628 45.2057 146.368 45.4912 146.162C45.7766 145.955 46.0999 145.808 46.4426 145.727L53.4237 144.031C53.7652 143.947 54.1201 143.93 54.4679 143.983C54.8158 144.036 55.1499 144.156 55.451 144.338C55.7521 144.52 56.0144 144.759 56.2229 145.043C56.4313 145.326 56.5819 145.647 56.6659 145.989L76.1881 188.418Z" fill="#F9CB42"/>
<path d="M53.8243 137.235C53.6587 136.546 53.2034 135.857 52.4446 135.981L44.1666 137.98C43.4078 138.159 42.2213 139.358 42.3869 139.992L43.5734 144.927C43.7389 145.603 45.3117 145.989 46.0706 145.796L54.3485 143.811C55.1074 143.631 55.1901 142.846 55.0246 142.17L53.8243 137.235Z" fill="#E5B62F"/>
<path d="M52.4724 132.094C52.7456 133.223 52.6776 134.408 52.2769 135.498C51.8762 136.588 51.1609 137.536 50.2214 138.22C49.2819 138.904 48.1605 139.294 46.9989 139.341C45.8373 139.389 44.6878 139.091 43.6957 138.485C42.7037 137.88 41.9136 136.994 41.4255 135.94C40.9374 134.885 40.7731 133.71 40.9535 132.563C41.1339 131.415 41.6509 130.347 42.4389 129.493C43.227 128.639 44.2509 128.038 45.381 127.766C46.8958 127.4 48.4938 127.651 49.8236 128.463C51.1534 129.274 52.1062 130.581 52.4724 132.094Z" fill="#E5B62F"/>
<path d="M217.327 90.4361L218.831 96.5979L382.197 11.973L380.748 6.01794L217.327 90.4361Z" fill="#37352E"/>
</svg>
