<svg width="246" height="306" viewBox="0 0 246 306" fill="none" xmlns="http://www.w3.org/2000/svg">
<path d="M158.929 41.5185L159.064 41.3248L171.364 27.8507C171.364 27.8507 175.626 22.1652 171.364 20.7451C167.103 19.3251 147.182 26.4414 147.182 26.4414C147.182 26.4414 154.281 22.1759 154.281 15.0704C154.281 7.96485 124.467 17.9158 124.467 17.9158C125.188 15.1617 125.608 12.3373 125.719 9.49246C125.816 5.77563 122.038 3.39816 118.534 4.65144C44.9512 30.7176 29.3296 96.1467 29.3296 111.019V186.324C29.3296 204.984 36.735 222.879 49.9168 236.073C63.0986 249.268 80.9769 256.68 99.6187 256.68H147.891C166.533 256.68 184.412 249.268 197.593 236.073C210.775 222.879 218.181 204.984 218.181 186.324V111.019C218.182 94.2725 212.216 78.0743 201.355 65.3353C190.495 52.5963 175.452 44.1515 158.929 41.5185Z" fill="white"/>
<path d="M164.244 255.26C97.6089 255.26 33.6125 232.523 43.554 123.084C48.3904 69.7201 74.6467 23.6175 118.755 4.58156C118.69 4.58156 118.62 4.61384 118.556 4.64073C44.9727 30.7069 29.3511 96.1359 29.3511 111.009V186.313C29.3511 204.973 36.7565 222.868 49.9383 236.063C63.12 249.257 80.9983 256.669 99.6402 256.669H147.913C158.049 256.685 168.067 254.497 177.275 250.258C172.976 250.742 168.64 255.26 164.244 255.26Z" fill="#E4E2E2"/>
<path d="M112.795 288.814L113.811 285.834L93.5732 278.798L104.649 255.97L101.822 254.593L90.5746 277.803L44.3009 277.513L44.2848 280.654L78.6556 280.869L44.2203 289.147L44.9458 292.213L91.2088 281.106" fill="#37352E"/>
<path d="M157.059 281.09L203.317 292.202L204.042 289.147L169.607 280.869L203.983 280.67V277.529L157.693 277.803L146.586 254.077L143.754 255.405L154.716 278.798L134.446 285.834L135.483 288.814" fill="#37352E"/>
<path d="M147.913 258.816H99.6402C59.7075 258.816 27.223 226.3 27.223 186.329C27.223 185.749 27.6636 129.636 27.223 111.057C26.7931 93.0055 32.0594 31.8204 118.04 2.56458C119.184 2.17463 120.405 2.06882 121.598 2.25622C122.792 2.44363 123.922 2.91864 124.892 3.64036C125.847 4.34583 126.617 5.27289 127.136 6.3419C127.654 7.4109 127.906 8.58992 127.869 9.77769C127.802 11.4572 127.623 13.1302 127.331 14.7855C142.217 10.2887 151.443 9.25594 154.738 11.7087C155.267 12.0924 155.697 12.5973 155.991 13.1812C156.286 13.7651 156.436 14.4111 156.43 15.0652C156.409 17.4183 155.774 19.725 154.587 21.7565C168.376 17.5179 171.079 18.4216 172.009 18.7282C172.74 18.9314 173.408 19.3129 173.955 19.8387C174.502 20.3645 174.91 21.0179 175.142 21.7404C176.104 24.8279 173.562 28.4425 173.041 29.1364L172.912 29.2977L163.045 40.1093C179.295 43.5068 193.873 52.4197 204.312 65.3396C214.751 78.2594 220.409 94.3926 220.33 111.009V186.313C220.33 226.3 187.845 258.816 147.913 258.816ZM120.442 6.42665C120.089 6.42872 119.739 6.48681 119.405 6.59876C36.1918 34.9241 31.0706 93.6348 31.4844 110.955C31.9251 129.598 31.4844 185.786 31.4844 186.351C31.4844 223.95 62.0559 254.55 99.6402 254.55H147.913C165.981 254.526 183.303 247.331 196.08 234.542C208.856 221.753 216.044 204.415 216.069 186.329V111.025C216.151 94.7613 210.393 79.0093 199.845 66.6385C189.297 54.2677 174.661 46.1014 158.601 43.6271L155.318 43.0892L157.467 39.8619L169.671 26.4846C170.483 25.3604 171.283 23.6176 171.063 22.9883C171.036 22.913 170.837 22.8162 170.649 22.7516C170.37 22.6602 167.538 21.9932 152.878 26.7428C152.217 26.9388 151.511 26.9176 150.863 26.6823C150.215 26.447 149.659 26.0099 149.277 25.4353C148.896 24.8607 148.708 24.1788 148.742 23.4896C148.776 22.8004 149.03 22.1402 149.466 21.6059C151.25 19.5189 152.153 17.3028 152.153 15.0436C151.476 14.3874 145.763 13.6182 128.293 18.9165C127.62 19.1193 126.907 19.1458 126.221 18.9935C125.535 18.8412 124.899 18.5152 124.375 18.0467C123.851 17.5782 123.455 16.9828 123.227 16.3176C122.998 15.6524 122.944 14.9397 123.07 14.2476C123.355 12.7161 123.534 11.167 123.607 9.61095C123.624 9.11279 123.519 8.61809 123.299 8.17059C123.08 7.72308 122.754 7.33657 122.35 7.04522C121.797 6.63891 121.128 6.42198 120.442 6.42665Z" fill="#37352E"/>
<path d="M123.065 154.255L99.9896 175.502L123.097 201.52L145.919 175.642L123.065 154.255Z" fill="#EF9E20"/>
<path d="M123.124 201.509L145.935 175.631L123.064 154.244L123.124 201.509Z" fill="#E99123"/>
<path d="M243.33 110.186C243.33 110.186 239.622 110.019 238.338 110.503C237.053 110.987 213.924 98.7664 186.282 98.7664C158.639 98.7664 140.013 115.979 140.013 115.979H105.944C105.944 115.979 87.3019 98.7664 59.6699 98.7664C32.0378 98.7664 8.89295 110.993 7.61937 110.503C6.34578 110.014 2.62173 110.186 2.62173 110.186L1.82104 118.055C1.82104 118.055 10.6609 125.462 11.3165 129.48C11.7088 131.911 14.0034 144.062 15.1964 148.844C16.6043 154.373 19.1891 162.098 25.6914 169.122C35.3642 179.514 46.7029 184.823 58.3909 184.823C71.4385 184.823 85.2169 182.736 95.8193 171.952C106.422 161.167 115.794 140.641 114.3 135.284C113.73 133.234 109.969 130.303 111.57 127.215C113.171 124.128 122.978 124.311 122.978 124.311C122.978 124.311 132.78 124.16 134.382 127.215C135.983 130.271 132.232 133.207 131.652 135.284C130.174 140.663 139.53 161.156 150.143 171.952C160.756 182.747 174.513 184.823 187.582 184.823C199.265 184.823 210.62 179.514 220.26 169.122C226.773 162.098 229.358 154.373 230.777 148.844C231.975 144.067 234.264 131.917 234.651 129.48C235.307 125.462 244.13 118.055 244.13 118.055L243.33 110.186ZM102.606 152.335C95.5453 176.147 74.9744 182.355 59.3313 182.355C43.6882 182.355 28.0451 168.622 23.5849 160.914C19.1246 153.206 11.6067 131.04 19.2859 116.103C26.965 101.165 64.7105 98.7664 87.2052 109.648C107.045 119.292 109.684 128.539 102.606 152.335ZM222.41 160.941C217.906 168.649 202.274 182.381 186.631 182.381C170.988 182.381 150.406 176.147 143.345 152.335C136.284 128.522 138.917 119.265 158.773 109.669C181.263 98.7664 218.96 101.165 226.687 116.124C234.415 131.083 226.891 153.179 222.415 160.914L222.41 160.941Z" fill="#37352E"/>
<path d="M88.4789 138.118C88.4821 141.092 87.6039 144.001 85.9555 146.475C84.307 148.95 81.9624 150.879 79.2182 152.019C76.4739 153.16 73.4535 153.46 70.5389 152.882C67.6243 152.303 64.9465 150.873 62.8443 148.771C60.7422 146.669 59.3101 143.99 58.7292 141.073C58.1484 138.157 58.4449 135.133 59.5812 132.385C60.7176 129.637 62.6427 127.288 65.113 125.635C67.5833 123.983 70.4879 123.1 73.4592 123.1C77.4377 123.107 81.2515 124.691 84.0662 127.506C86.881 130.32 88.4676 134.136 88.4789 138.118Z" fill="#37352E"/>
<path d="M189.291 138.118C189.294 141.091 188.417 143.998 186.769 146.472C185.122 148.946 182.779 150.876 180.036 152.017C177.294 153.158 174.275 153.46 171.361 152.883C168.447 152.307 165.769 150.879 163.666 148.78C161.563 146.681 160.128 144.005 159.545 141.09C158.961 138.175 159.253 135.152 160.386 132.403C161.518 129.655 163.439 127.304 165.905 125.648C168.372 123.992 171.274 123.106 174.244 123.1C178.227 123.1 182.048 124.681 184.869 127.496C187.689 130.312 189.28 134.131 189.291 138.118Z" fill="#37352E"/>
<path d="M78.3384 141.561C81.8672 141.561 84.7278 138.697 84.7278 135.165C84.7278 131.633 81.8672 128.77 78.3384 128.77C74.8096 128.77 71.949 131.633 71.949 135.165C71.949 138.697 74.8096 141.561 78.3384 141.561Z" fill="white"/>
<path d="M179.151 141.561C182.679 141.561 185.54 138.697 185.54 135.165C185.54 131.633 182.679 128.77 179.151 128.77C175.622 128.77 172.761 131.633 172.761 135.165C172.761 138.697 175.622 141.561 179.151 141.561Z" fill="white"/>
<path fill-rule="evenodd" clip-rule="evenodd" d="M150.449 213.353C151.132 213.262 151.755 213.186 152.351 213.1C159.619 212.164 166.804 210.677 173.847 208.652C178.499 207.313 183.031 205.586 187.394 203.488C190.719 201.889 193.894 199.994 196.879 197.824C202.612 193.613 207.376 188.22 210.85 182.01C212.312 179.38 213.688 176.69 215.074 173.996C215.463 173.165 216.039 172.436 216.756 171.865C217.472 171.294 218.311 170.897 219.207 170.704C219.786 170.525 220.4 170.484 220.998 170.585C221.596 170.686 222.162 170.925 222.651 171.285C225.7 173.607 228.297 176.47 230.314 179.729C232.123 182.642 233.758 185.66 235.21 188.766C237.484 193.611 239.037 198.763 239.821 204.058C240.43 208.145 240.43 212.3 239.821 216.387C238.859 222.575 236.391 228.432 232.635 233.441C228.879 238.45 223.95 242.457 218.282 245.11C214.374 246.942 210.204 248.152 205.923 248.698C200.923 249.307 195.855 249.041 190.946 247.913C188.829 247.498 186.75 246.912 184.728 246.159C183.692 245.803 182.726 245.268 181.875 244.578C181.524 244.317 181.254 243.963 181.096 243.556C182.133 243.373 183.138 243.265 184.132 243.018C186.176 242.529 188.134 241.729 189.936 240.646C191.282 239.911 192.504 238.969 193.558 237.854C193.953 237.401 194.322 236.927 194.665 236.434C194.735 236.334 194.79 236.223 194.826 236.106C194.709 236.077 194.591 236.058 194.471 236.047C194.31 236.079 194.192 236.111 194.047 236.149C191.564 236.794 189.103 237.488 186.609 238.134C184.869 238.64 183.102 239.05 181.316 239.36C178.327 239.79 175.287 239.694 172.331 239.075C170.152 238.652 168.104 237.717 166.355 236.348C164.956 235.169 163.77 233.757 162.852 232.174C162.551 231.684 162.245 231.184 161.944 230.684C162.385 230.746 162.831 230.776 163.276 230.775C164.25 230.717 165.221 230.608 166.184 230.447C171.432 229.282 176.47 227.312 181.117 224.606C181.797 224.17 182.444 223.685 183.052 223.153C183.127 223.089 183.132 222.922 183.181 222.831C183.074 222.81 182.965 222.81 182.858 222.831C180.881 223.624 178.812 224.166 176.7 224.444C170.958 225.298 165.092 224.41 159.859 221.895C157.008 220.563 154.507 218.583 152.556 216.112C152.018 215.445 151.535 214.741 151.003 214.052C150.847 213.832 150.68 213.617 150.449 213.353Z" fill="white"/>
<path d="M200.673 251.135C197.237 251.131 193.813 250.745 190.463 249.984C188.239 249.544 186.056 248.924 183.933 248.128C182.672 247.688 181.498 247.026 180.467 246.175C179.8 245.65 179.302 244.939 179.038 244.131L178.388 241.861L179.129 241.727C176.7 241.868 174.262 241.687 171.88 241.189C169.37 240.701 167.013 239.618 165.007 238.032C163.414 236.704 162.067 235.108 161.025 233.314L158.016 228.339L162.062 228.586C162.266 228.586 162.465 228.619 162.659 228.64C162.8 228.666 162.944 228.679 163.088 228.678L163.556 228.635C164.295 228.594 165.03 228.51 165.759 228.382C167.486 227.979 169.183 227.456 170.837 226.817C166.701 226.638 162.644 225.613 158.918 223.804C155.786 222.332 153.038 220.152 150.89 217.436C150.584 217.054 150.283 216.645 149.982 216.236L149.332 215.354C149.149 215.118 149.015 214.945 148.837 214.746L146.258 211.761L150.938 211.137C151.32 211.089 151.68 211.046 152.013 210.992C159.19 210.072 166.286 208.607 173.24 206.608C177.788 205.31 182.219 203.632 186.486 201.59C189.69 200.044 192.747 198.211 195.621 196.114C197.637 194.632 199.532 192.994 201.291 191.214C204.297 188.162 206.887 184.726 208.991 180.994C210.356 178.541 211.678 175.959 212.963 173.463L213.178 173.044C213.706 171.94 214.479 170.972 215.437 170.211C216.395 169.451 217.513 168.918 218.707 168.655C219.594 168.401 220.527 168.355 221.434 168.522C222.341 168.689 223.197 169.064 223.936 169.617C227.178 172.078 229.941 175.114 232.088 178.573C233.94 181.564 235.618 184.661 237.112 187.846C239.485 192.88 241.104 198.235 241.916 203.741C242.551 208.033 242.551 212.396 241.916 216.688C240.898 223.221 238.293 229.403 234.331 234.694C230.368 239.984 225.17 244.22 219.191 247.031C215.083 248.949 210.704 250.219 206.208 250.796C204.371 251.019 202.523 251.133 200.673 251.135ZM186.567 244.556C188.154 245.066 189.769 245.488 191.403 245.82C196.078 246.891 200.903 247.144 205.665 246.568C209.718 246.047 213.666 244.9 217.369 243.169C222.739 240.691 227.41 236.916 230.96 232.182C234.511 227.449 236.83 221.907 237.709 216.053C238.281 212.175 238.281 208.233 237.709 204.354C236.958 199.259 235.463 194.302 233.27 189.643C231.856 186.617 230.262 183.679 228.498 180.843C226.616 177.803 224.19 175.137 221.34 172.979C221.105 172.809 220.831 172.699 220.543 172.661C220.255 172.622 219.962 172.656 219.691 172.759C219.092 172.878 218.53 173.139 218.052 173.52C217.575 173.901 217.195 174.39 216.945 174.948L216.724 175.373C215.424 177.901 214.086 180.51 212.678 183.038C210.388 187.112 207.569 190.865 204.295 194.199C202.378 196.134 200.314 197.916 198.12 199.529C195.045 201.78 191.771 203.746 188.34 205.403C183.867 207.556 179.22 209.327 174.449 210.696C167.864 212.601 161.151 214.029 154.361 214.967C156.092 217.087 158.275 218.791 160.751 219.953C165.587 222.288 170.682 223.057 176.399 222.315C177.189 222.207 178.291 222.008 179.312 221.825C182.509 221.249 183.837 221.013 184.487 222.804L185.099 224.498L183.46 225.456C180.682 227.069 173.433 231.023 166.619 232.54C166.318 232.599 166.028 232.647 165.738 232.69C166.297 233.435 166.943 234.11 167.662 234.702C169.151 235.864 170.895 236.653 172.751 237.004C175.462 237.571 178.252 237.658 180.994 237.262C182.264 237.063 183.52 236.784 184.756 236.429L186.078 236.079C187.356 235.751 188.641 235.401 189.92 235.057C191.113 234.734 192.306 234.412 193.499 234.105C193.686 234.048 193.876 234.001 194.068 233.965L194.461 233.933C194.932 233.946 195.389 234.1 195.772 234.375C196.155 234.65 196.447 235.034 196.61 235.477C196.773 235.847 196.832 236.255 196.782 236.656C196.732 237.058 196.574 237.438 196.325 237.757C194.96 239.767 193.112 241.402 190.952 242.512C189.562 243.338 188.093 244.023 186.567 244.556ZM193.176 234.939C193.103 235.009 193.034 235.084 192.972 235.165L193.176 234.939Z" fill="#37352E"/>
<path d="M47.0953 184.28L84.7871 163.604L133.033 251.705L95.3466 272.387L47.0953 184.28Z" fill="#F8CA41"/>
<path d="M102.042 284.559L96.6686 274.705L134.285 254.045C135.962 257.073 137.606 259.961 139.122 262.898C139.239 263.187 139.287 263.5 139.262 263.811C139.237 264.122 139.139 264.423 138.976 264.689C132.651 271.843 131.867 279.691 136.118 288.389L124.612 294.731C119.416 286.216 112.075 282.671 102.042 284.559Z" fill="#37352E"/>
<path d="M45.6551 181.628C43.4035 177.513 41.1465 173.721 39.2496 169.762C38.1748 167.541 38.8358 165.319 41.1197 164.055C51.0218 158.58 60.9489 153.147 70.9012 147.757C73.4806 146.37 75.6731 147.144 77.1885 149.796C79.2359 153.373 81.1758 157.014 83.3415 160.952L45.6551 181.628Z" fill="#37352E"/>
<path d="M127.25 296.312L136.015 291.503C137.493 294.193 139.094 296.662 140.201 299.346C140.545 300.185 139.573 301.578 139.17 302.708C139.121 302.847 138.853 302.901 138.691 303.003C132.828 306.527 132.828 306.532 129.556 300.567C128.825 299.233 128.105 297.872 127.25 296.312Z" fill="#F8CA41"/>
<path fill-rule="evenodd" clip-rule="evenodd" d="M99.6886 213.353C99.0061 213.262 98.3827 213.186 97.7916 213.1C90.5244 212.165 83.3386 210.677 76.2965 208.652C71.6428 207.313 67.1093 205.585 62.7438 203.488C59.4202 201.889 56.2476 199.994 53.2644 197.824C47.5314 193.613 42.7671 188.22 39.2926 182.01C37.8255 179.38 36.4498 176.69 35.0634 173.996C34.6772 173.164 34.1034 172.434 33.3872 171.863C32.671 171.292 31.832 170.895 30.9363 170.704C30.3558 170.525 29.7415 170.484 29.1425 170.585C28.5435 170.686 27.9764 170.925 27.4864 171.285C24.4388 173.604 21.8416 176.463 19.8233 179.719C18.0127 182.631 16.3762 185.649 14.9224 188.755C12.6485 193.6 11.0951 198.752 10.3117 204.048C9.70452 208.135 9.70452 212.289 10.3117 216.376C10.974 220.8 12.4169 225.071 14.5732 228.99C17.1604 233.699 20.7329 237.794 25.0467 240.995C27.1642 242.598 29.4445 243.974 31.8499 245.099C35.7587 246.93 39.9286 248.141 44.2096 248.687C49.2096 249.296 54.2773 249.03 59.1863 247.902C61.3013 247.488 63.3789 246.901 65.3984 246.148C66.4366 245.793 67.4042 245.258 68.2573 244.567C68.6065 244.306 68.8748 243.952 69.0311 243.545C67.994 243.362 66.9944 243.254 65.9949 243.007C63.9523 242.518 61.9968 241.718 60.1966 240.635C58.8476 239.902 57.6233 238.96 56.5693 237.843C56.1744 237.391 55.8048 236.917 55.4623 236.423C55.3934 236.323 55.3408 236.212 55.3065 236.095C55.4229 236.066 55.5415 236.046 55.6611 236.036L56.0857 236.138C58.563 236.784 61.0295 237.477 63.5176 238.123C65.2581 238.629 67.0252 239.038 68.8108 239.349C71.7995 239.78 74.8403 239.683 77.7958 239.064C79.9771 238.642 82.027 237.707 83.7768 236.337C85.1752 235.157 86.3604 233.745 87.2805 232.163L88.1833 230.673C87.7435 230.735 87.3 230.765 86.856 230.765C85.8818 230.707 84.9113 230.597 83.9487 230.436C78.6992 229.273 73.6615 227.303 69.015 224.595C68.3332 224.16 67.6847 223.674 67.075 223.143C66.9998 223.078 66.9998 222.911 66.9515 222.82C67.0562 222.8 67.1638 222.8 67.2685 222.82C69.2462 223.612 71.315 224.154 73.4269 224.434C79.1691 225.287 85.0352 224.399 90.2683 221.884C93.1195 220.555 95.6218 218.579 97.5767 216.112C98.114 215.445 98.5923 214.741 99.1243 214.052C99.2963 213.832 99.4629 213.617 99.6886 213.353Z" fill="white"/>
<path d="M49.4704 251.134C47.6329 251.136 45.7969 251.025 43.973 250.801C39.4715 250.227 35.0862 248.956 30.9739 247.036C28.4329 245.845 26.0231 244.392 23.7837 242.7C19.2369 239.313 15.4677 234.99 12.7299 230.022C10.4596 225.882 8.93693 221.374 8.232 216.704C7.5978 212.41 7.5978 208.046 8.232 203.752C9.03643 198.25 10.648 192.898 13.0147 187.868C14.5093 184.682 16.1869 181.586 18.0392 178.595C20.1943 175.11 22.9723 172.052 26.2342 169.574C26.9753 169.022 27.834 168.65 28.743 168.486C29.6519 168.321 30.5865 168.37 31.4736 168.627C32.6651 168.894 33.7805 169.428 34.7356 170.19C35.6907 170.951 36.4606 171.919 36.9871 173.022L37.1967 173.431C38.4756 175.921 39.803 178.503 41.1733 180.961C43.2736 184.693 45.8595 188.13 48.8632 191.181C50.6195 192.96 52.5134 194.596 54.5271 196.076C57.402 198.175 60.4594 200.011 63.6626 201.562C67.9191 203.606 72.3393 205.288 76.8767 206.592C83.8219 208.588 90.9089 210.052 98.0763 210.97C98.4578 211.029 98.8232 211.072 99.2048 211.121L103.88 211.745L101.301 214.73C101.129 214.929 100.994 215.101 100.865 215.268C100.586 215.623 100.376 215.913 100.161 216.204C99.8604 216.618 99.5541 217.027 99.237 217.425C97.0893 220.136 94.3432 222.312 91.214 223.783C87.4911 225.588 83.4385 226.611 79.3057 226.79C80.9766 227.431 82.6895 227.958 84.4323 228.366C85.1436 228.487 85.8612 228.568 86.5818 228.608L87.0493 228.651C87.1933 228.648 87.337 228.636 87.4792 228.613C87.6726 228.613 87.8661 228.57 88.0703 228.559L92.1168 228.312L89.1074 233.287C88.0662 235.082 86.7185 236.681 85.1255 238.01C83.1194 239.593 80.765 240.673 78.2578 241.162C75.8738 241.66 73.4345 241.841 71.0032 241.7L71.7447 241.834L71.0999 244.104C70.8304 244.917 70.3276 245.631 69.6544 246.159C68.6209 247.009 67.4457 247.67 66.1829 248.112C64.0652 248.918 61.8852 249.549 59.6645 250C56.3196 250.758 52.9002 251.139 49.4704 251.134ZM29.7379 172.667C29.3967 172.657 29.0625 172.765 28.7921 172.974C25.9444 175.14 23.5198 177.813 21.6396 180.859C19.8806 183.697 18.2891 186.635 16.873 189.659C14.6824 194.311 13.1903 199.261 12.445 204.349C11.87 208.231 11.87 212.177 12.445 216.059C13.0758 220.227 14.4365 224.251 16.4646 227.946C18.9129 232.387 22.2848 236.25 26.3524 239.274C28.3602 240.791 30.5216 242.093 32.8009 243.158C36.5102 244.886 40.4632 246.033 44.5212 246.557C49.272 247.13 54.0862 246.877 58.7509 245.809C60.3843 245.472 61.9987 245.048 63.5873 244.54C62.0414 244.009 60.554 243.32 59.1486 242.485C57.6112 241.646 56.2179 240.565 55.0215 239.285C54.6029 238.809 54.2118 238.31 53.8501 237.789C53.5895 237.467 53.4218 237.08 53.365 236.67C53.3082 236.259 53.3644 235.841 53.5276 235.46C53.692 235.018 53.9842 234.635 54.3671 234.36C54.75 234.085 55.2061 233.931 55.6771 233.917L56.0694 233.949C56.2898 233.992 56.4617 234.035 56.6659 234.094C57.832 234.395 59.0196 234.718 60.2126 235.041C61.4969 235.385 62.7813 235.735 64.0656 236.068L65.3822 236.412C66.6087 236.767 67.856 237.046 69.117 237.246C71.8624 237.642 74.6557 237.554 77.3711 236.988C79.2249 236.638 80.9679 235.848 82.4547 234.686C83.1749 234.096 83.8209 233.42 84.3785 232.674C84.1045 232.636 83.8411 232.593 83.5456 232.534C78.7737 231.458 72.4702 228.817 66.6397 225.423L65.1028 224.53L65.6401 222.788C66.285 220.996 67.6123 221.233 70.8151 221.809C71.8307 221.992 72.9377 222.191 73.7277 222.298C79.4454 223.04 84.5612 222.298 89.36 219.942C91.8418 218.782 94.0297 217.076 95.7602 214.951C88.9689 214.012 82.254 212.584 75.6676 210.68C70.903 209.309 66.2617 207.54 61.7925 205.392C58.3566 203.73 55.0777 201.761 51.9961 199.508C49.8059 197.896 47.7451 196.116 45.8324 194.183C42.5603 190.854 39.7432 187.107 37.4546 183.038C36.0413 180.493 34.6979 177.885 33.4028 175.356L33.1878 174.942C32.9399 174.387 32.5636 173.898 32.0899 173.516C31.6162 173.135 31.0587 172.871 30.4633 172.748C30.2256 172.692 29.9821 172.665 29.7379 172.667Z" fill="#37352E"/>
</svg>
