<svg id="Camada_1" data-name="Camada 1" xmlns="http://www.w3.org/2000/svg" viewBox="0 0 1080 1080"><defs><style>.cls-1,.cls-8{fill:#fff;}.cls-2{fill:#e4e2e2;}.cls-3{fill:#37352e;}.cls-4{fill:#ef9e20;}.cls-5{fill:#e99123;}.cls-6{fill:#301110;}.cls-7{fill:#f7981d;}.cls-8{fill-rule:evenodd;}.cls-9{fill:#071d34;}.cls-10{fill:#4a9dd6;}</style></defs><title>Prancheta 1</title><path class="cls-1" d="M400.49,401.18l.17-.26L417,383.07s5.65-7.53,0-9.42-32,7.54-32,7.54,9.43-5.65,9.43-15.07-39.57,3.77-39.57,3.77a52.54,52.54,0,0,0,1.66-11.17c.13-4.93-4.89-8.08-9.53-6.43-97.65,34.55-118.37,121.29-118.37,141v99.86a93.27,93.27,0,0,0,93.26,93.27h64.07a93.26,93.26,0,0,0,93.26-93.27V493.3A93.28,93.28,0,0,0,400.49,401.18Z"/><path class="cls-2" d="M407.53,684.54c-88.45,0-173.34-30.15-160.15-175.23,6.43-70.74,41.26-131.86,99.79-157.1l-.26.08c-97.65,34.55-118.37,121.29-118.37,141v99.86a93.27,93.27,0,0,0,93.26,93.27h64.07a92.93,92.93,0,0,0,38.93-8.52C419.13,678.55,413.37,684.54,407.53,684.54Z"/><polyline class="cls-3" points="339.26 729.02 340.61 725.07 313.76 715.74 328.45 685.48 324.7 683.65 309.78 714.42 248.37 714.04 248.35 718.2 293.96 718.49 248.26 729.46 249.23 733.53 310.62 718.8"/><polyline class="cls-3" points="398 718.78 459.38 733.51 460.34 729.46 414.65 718.49 460.27 718.22 460.27 714.06 398.84 714.42 384.11 682.97 380.34 684.73 394.89 715.74 367.99 725.07 369.37 729.02"/><path class="cls-3" d="M385.87,689.25H321.8a96.2,96.2,0,0,1-96.09-96.09c0-.77.59-75.17,0-99.79-.57-23.94,6.44-105,120.51-143.83a9.9,9.9,0,0,1,9.09,1.43,9.73,9.73,0,0,1,3.95,8.14,49,49,0,0,1-.71,6.63c19.75-6,32-7.33,36.38-4.07a5.43,5.43,0,0,1,2.24,4.45,17.87,17.87,0,0,1-2.44,8.87c18.29-5.62,21.89-4.43,23.12-4a6.08,6.08,0,0,1,4.15,4c1.28,4.09-2.09,8.89-2.78,9.81L419,385,406,399.31a95.55,95.55,0,0,1,76,94v99.86A96.2,96.2,0,0,1,385.87,689.25ZM349.41,354.66a4.06,4.06,0,0,0-1.37.23C237.61,392.44,230.82,470.27,231.36,493.23c.59,24.72,0,99.2,0,99.95A90.54,90.54,0,0,0,321.8,683.6h64.07a90.54,90.54,0,0,0,90.44-90.44V493.3A90,90,0,0,0,400.05,404l-4.36-.68,2.88-4.28,16.2-17.73c1.07-1.49,2.1-3.8,1.84-4.63,0-.1-.3-.23-.55-.32s-4.12-1-23.58,5.29a4.24,4.24,0,0,1-4.52-6.8,13.36,13.36,0,0,0,3.56-8.7c-.9-.87-8.48-1.89-31.66,5.13a5.45,5.45,0,0,1-6.93-6.19,45.65,45.65,0,0,0,.68-6.15,4,4,0,0,0-1.67-3.4A4.26,4.26,0,0,0,349.41,354.66Z"/><path class="cls-4" d="M352.89,550.62l-30.62,28.17L353,613.28,383.24,579Z"/><polygon class="cls-5" points="352.97 613.28 383.24 578.97 352.89 550.62 352.97 613.28"/><path class="cls-3" d="M512.48,492.21s-4.92-.22-6.63.42-32.39-15.56-69.07-15.56-61.4,22.82-61.4,22.82H330.17s-24.74-22.82-61.4-22.82-67.38,16.21-69.08,15.56-6.62-.42-6.62-.42L192,502.64s11.72,9.82,12.59,15.15c.52,3.22,3.55,19.33,5.15,25.66,1.87,7.34,5.3,17.58,13.93,26.88,12.81,13.78,27.88,20.82,43.39,20.82,17.32,0,35.6-2.76,49.67-17.06s26.5-41.51,24.52-48.62c-.75-2.71-5.75-6.6-3.62-10.65S352.78,511,352.78,511s13-.21,15.13,3.85-2.86,7.94-3.62,10.65c-2,7.11,10.45,34.31,24.54,48.62s32.33,17.06,49.67,17.06c15.5,0,30.57-7,43.37-20.82,8.64-9.3,12.07-19.54,13.95-26.88,1.6-6.33,4.63-22.44,5.14-25.66.87-5.33,12.58-15.15,12.58-15.15ZM325.74,548.09c-9.36,31.56-36.66,39.79-57.42,39.79s-41.52-18.2-47.46-28.42-15.9-39.6-5.69-59.4,60.27-23,90.12-8.53C331.63,504.25,335.13,516.54,325.74,548.09Zm159,11.37c-6,10.22-26.72,28.42-47.48,28.42s-48-8.23-57.44-39.79-5.87-43.84,20.48-56.56c29.84-14.46,79.9-11.28,90.11,8.53S490.67,549.23,484.72,559.46Z"/><path class="cls-3" d="M307,529.22a19.93,19.93,0,1,1-19.93-19.91A19.94,19.94,0,0,1,307,529.22Z"/><path class="cls-3" d="M440.77,529.22a19.93,19.93,0,1,1-19.93-19.91A19.94,19.94,0,0,1,440.77,529.22Z"/><circle class="cls-1" cx="293.54" cy="525.33" r="8.48"/><circle class="cls-1" cx="427.32" cy="525.33" r="8.48"/><path class="cls-6" d="M430.9,598.49a20.69,20.69,0,0,0-.62-5.5c-1.87-6.71-5.26-12.41-11.32-16.28a25.61,25.61,0,0,0-13.9-4.33c-17.52,0-35,0-52.55,0s-35,0-52.54,0a25,25,0,0,0-6.82,1.19c-10.73,3-18.66,13.48-18.59,25.72.18,32.22,0,64.43.08,96.64,0,3.85,0,7.59,1.43,11.45a27.74,27.74,0,0,0,8.87,12c5.25,4.28,11.52,5.15,18,5.16q49.88.06,99.73,0a31.31,31.31,0,0,0,7.75-.71,28.86,28.86,0,0,0,10.39-5.19,24.32,24.32,0,0,0,10.1-20.15C431,665.12,430.94,631.8,430.9,598.49Z"/><path class="cls-7" d="M340.47,616.28c2.34,0,4.68.09,7,0a2.41,2.41,0,0,1,2.8,2q9.44,26.85,19,53.66c1.42,4,2.77,8,4.26,12,.59,1.56.13,1.91-1.38,1.88q-6-.09-11.95,0a2,2,0,0,1-2.19-1.62c-1.45-4.42-3.06-8.8-4.5-13.22a2.06,2.06,0,0,0-2.34-1.67c-7,.07-14,.09-21,0a2.13,2.13,0,0,0-2.42,1.83c-1.31,4.25-2.77,8.46-4.05,12.72-.43,1.41-1.05,2-2.59,2-3.43-.11-6.86-.12-10.29,0-1.9.06-2.06-.64-1.51-2.2,3.47-9.89,6.89-19.79,10.33-29.69s6.82-19.67,10.26-29.5a20.37,20.37,0,0,0,1.37-6.61c0-1.19.49-1.53,1.6-1.51C335.39,616.32,337.93,616.28,340.47,616.28Zm-.06,12.31c-2.43,9.55-5.51,18.31-8.13,27.4,5.27,0,10.39,0,15.52,0,1.17,0,1-.65.78-1.34-.66-2.08-1.36-4.15-2-6.24C344.56,642,342.57,635.56,340.41,628.59Z"/><path class="cls-7" d="M380.82,659.41c0-8.1,0-16.19,0-24.29,0-1.64.49-2.16,2.11-2.11,3.56.1,7.13.08,10.7,0,1.5,0,2,.46,2,2q-.06,24.39,0,48.79c0,1.54-.52,2-2,2q-5.36-.13-10.71,0c-1.6.05-2.14-.43-2.12-2.09C380.87,675.6,380.82,667.51,380.82,659.41Z"/><path class="cls-7" d="M388.48,611c4.89,0,8,3.24,8,8.18a8.22,8.22,0,1,1-16.44-.05C380.05,614.44,383.61,611,388.48,611Z"/><path class="cls-8" d="M389.23,629l2.52-.33a191.61,191.61,0,0,0,28.55-5.9,115.27,115.27,0,0,0,18-6.84,81.89,81.89,0,0,0,12.56-7.53,66.06,66.06,0,0,0,18.52-21c1.94-3.49,3.76-7,5.61-10.63a7.91,7.91,0,0,1,5.48-4.37,5.18,5.18,0,0,1,4.57.78,41.76,41.76,0,0,1,10.17,11.19,114.45,114.45,0,0,1,6.49,12,72.26,72.26,0,0,1,6.12,20.28,55.58,55.58,0,0,1,0,16.34,50.21,50.21,0,0,1-5.65,16.72,49.67,49.67,0,0,1-13.9,15.92,50.72,50.72,0,0,1-9,5.44,55.28,55.28,0,0,1-16.39,4.75,57.53,57.53,0,0,1-19.88-1,52.49,52.49,0,0,1-8.25-2.32,12.53,12.53,0,0,1-3.78-2.1,3.13,3.13,0,0,1-1-1.35c1.38-.25,2.71-.39,4-.68a27.11,27.11,0,0,0,7.7-3.15,19.31,19.31,0,0,0,4.81-3.69,21.8,21.8,0,0,0,1.47-1.89,1.38,1.38,0,0,0,.21-.44c-.17,0-.33-.07-.47-.07l-.56.13c-3.29.86-6.56,1.78-9.87,2.63a63.69,63.69,0,0,1-7,1.63,34.4,34.4,0,0,1-11.93-.38,18.58,18.58,0,0,1-7.93-3.62,20.81,20.81,0,0,1-4.65-5.53l-1.2-2a13.46,13.46,0,0,0,1.76.12,35.33,35.33,0,0,0,3.86-.44,68.93,68.93,0,0,0,19.82-7.74,23,23,0,0,0,2.57-1.93c.1-.08.1-.3.17-.42a1.09,1.09,0,0,0-.43,0,34.11,34.11,0,0,1-8.17,2.11,38.58,38.58,0,0,1-22.35-3.38,26.9,26.9,0,0,1-9.66-7.64c-.71-.89-1.35-1.82-2.06-2.74C389.76,629.62,389.53,629.33,389.23,629Z"/><path class="cls-3" d="M455.87,679.07a60.92,60.92,0,0,1-13.54-1.53,54.23,54.23,0,0,1-8.67-2.46,14.77,14.77,0,0,1-4.6-2.59,5.67,5.67,0,0,1-1.89-2.71l-.86-3,1-.17a36.7,36.7,0,0,1-9.62-.73,21.3,21.3,0,0,1-9.12-4.18,23.69,23.69,0,0,1-5.29-6.26l-4-6.6,5.37.33.79.07a2.75,2.75,0,0,0,.57,0l.62,0a26.68,26.68,0,0,0,2.92-.34,51.89,51.89,0,0,0,6.75-2.07,40.19,40.19,0,0,1-15.82-4,29.62,29.62,0,0,1-10.65-8.44c-.41-.5-.81-1-1.21-1.59-.28-.39-.57-.77-.86-1.16s-.43-.54-.66-.8l-3.42-4,6.21-.82,1.45-.2A190.1,190.1,0,0,0,419.5,620a113,113,0,0,0,17.55-6.67,78.2,78.2,0,0,0,12.11-7.27,62.63,62.63,0,0,0,7.52-6.49A64.2,64.2,0,0,0,466.9,586c1.81-3.26,3.57-6.68,5.27-10l.28-.55a10.7,10.7,0,0,1,7.34-5.83,8,8,0,0,1,6.94,1.28,44,44,0,0,1,10.84,11.93,115.32,115.32,0,0,1,6.67,12.29,74.89,74.89,0,0,1,6.36,21.08,58.39,58.39,0,0,1,0,17.16,53,53,0,0,1-6,17.66,52.48,52.48,0,0,1-14.68,16.82,53.12,53.12,0,0,1-9.52,5.74,58,58,0,0,1-17.23,5A59.93,59.93,0,0,1,455.87,679.07Zm-18.71-8.72a61.17,61.17,0,0,0,6.4,1.67,55.12,55.12,0,0,0,18.92,1A52.6,52.6,0,0,0,478,668.51a48.27,48.27,0,0,0,8.52-5.13,47,47,0,0,0,13.13-15A47.66,47.66,0,0,0,505,632.56a53,53,0,0,0,0-15.51,69.6,69.6,0,0,0-5.89-19.5,114.8,114.8,0,0,0-6.33-11.67,38.6,38.6,0,0,0-9.47-10.42,2.33,2.33,0,0,0-2.19-.29,5.08,5.08,0,0,0-3.64,2.9l-.29.56c-1.73,3.35-3.51,6.81-5.37,10.16a69.07,69.07,0,0,1-19.32,21.87,83.44,83.44,0,0,1-13,7.78,117.87,117.87,0,0,1-18.43,7,189.45,189.45,0,0,1-26.66,5.66,24.22,24.22,0,0,0,8.48,6.61,35.6,35.6,0,0,0,20.77,3.13c1-.14,2.51-.4,3.86-.65,4.25-.76,6-1.08,6.87,1.3l.81,2.24L433.06,645c-3.69,2.15-13.31,7.39-22.35,9.4-.4.08-.79.14-1.17.2a15.49,15.49,0,0,0,2.55,2.66,15.78,15.78,0,0,0,6.75,3.06,31.57,31.57,0,0,0,11,.34,40.16,40.16,0,0,0,5-1.11l1.76-.46c1.69-.44,3.4-.9,5.1-1.36s3.16-.85,4.75-1.26a7.58,7.58,0,0,1,.75-.18l.52,0a3.15,3.15,0,0,1,2.87,2,3,3,0,0,1-.38,3,22.05,22.05,0,0,1-1.61,2,21.61,21.61,0,0,1-5.49,4.24A31.32,31.32,0,0,1,437.16,670.35Zm8.77-12.78a1.93,1.93,0,0,0-.27.3Z"/><path class="cls-8" d="M321.87,629l-2.52-.33a191.87,191.87,0,0,1-28.55-5.9,116,116,0,0,1-18-6.84,81.8,81.8,0,0,1-12.55-7.53,65.73,65.73,0,0,1-18.52-21c-1.95-3.49-3.77-7-5.61-10.63a7.91,7.91,0,0,0-5.48-4.37,5.18,5.18,0,0,0-4.57.78,41.43,41.43,0,0,0-10.17,11.19,114.54,114.54,0,0,0-6.5,12,72.92,72.92,0,0,0-6.12,20.28,55.24,55.24,0,0,0,0,16.34A50,50,0,0,0,209,649.71a49.43,49.43,0,0,0,13.9,15.92,50.37,50.37,0,0,0,9,5.44,55.2,55.2,0,0,0,16.39,4.75,57.47,57.47,0,0,0,19.87-1,52.19,52.19,0,0,0,8.25-2.32,12.46,12.46,0,0,0,3.79-2.1,3.1,3.1,0,0,0,1-1.35c-1.37-.25-2.71-.39-4-.68a27.23,27.23,0,0,1-7.7-3.15,19.31,19.31,0,0,1-4.81-3.69,21.68,21.68,0,0,1-1.46-1.89,1.4,1.4,0,0,1-.22-.44c.17,0,.33-.07.47-.07l.57.13c3.29.86,6.56,1.78,9.86,2.63a63.86,63.86,0,0,0,7,1.63,34.35,34.35,0,0,0,11.92-.38,18.52,18.52,0,0,0,7.93-3.62,20.63,20.63,0,0,0,4.65-5.53c.4-.64.8-1.31,1.2-2a13.46,13.46,0,0,1-1.76.12,35.62,35.62,0,0,1-3.86-.44,68.87,68.87,0,0,1-19.81-7.74,21.29,21.29,0,0,1-2.57-1.93c-.1-.08-.11-.3-.17-.42a1,1,0,0,1,.42,0,34.11,34.11,0,0,0,8.17,2.11,38.58,38.58,0,0,0,22.35-3.38,27,27,0,0,0,9.67-7.64c.71-.89,1.35-1.82,2.06-2.74C321.35,629.62,321.57,629.33,321.87,629Z"/><path class="cls-3" d="M255.23,679.07a61.35,61.35,0,0,1-7.29-.44,58.15,58.15,0,0,1-17.25-5,53.46,53.46,0,0,1-9.54-5.75,52.65,52.65,0,0,1-20.64-34.46,58.87,58.87,0,0,1,0-17.18,74.91,74.91,0,0,1,6.35-21,118.68,118.68,0,0,1,6.67-12.29,44.06,44.06,0,0,1,10.87-12,7.94,7.94,0,0,1,7-1.26,10.68,10.68,0,0,1,7.32,5.83l.28.54c1.7,3.3,3.45,6.72,5.28,10a63,63,0,0,0,17.72,20.06,78.44,78.44,0,0,0,12.13,7.27A112.35,112.35,0,0,0,291.6,620a189.63,189.63,0,0,0,28.13,5.8l1.5.21,6.2.82-3.42,4c-.23.26-.41.49-.58.71l-.93,1.24c-.4.55-.8,1.09-1.23,1.62a29.66,29.66,0,0,1-10.65,8.43,40.21,40.21,0,0,1-15.79,4,50.18,50.18,0,0,0,6.8,2.08,26.13,26.13,0,0,0,2.85.33l.63,0a2.71,2.71,0,0,0,.56,0l.79-.07,5.37-.33-4,6.6a23.32,23.32,0,0,1-5.29,6.26,21.26,21.26,0,0,1-9.11,4.18,36.78,36.78,0,0,1-9.63.73l1,.17-.86,3a5.74,5.74,0,0,1-1.92,2.73,15.06,15.06,0,0,1-4.61,2.59,54.24,54.24,0,0,1-8.65,2.44A60.76,60.76,0,0,1,255.23,679.07ZM229.05,575a1.92,1.92,0,0,0-1.25.41,38.49,38.49,0,0,0-9.49,10.45A112.54,112.54,0,0,0,212,597.57,69.29,69.29,0,0,0,206.1,617a53.17,53.17,0,0,0,0,15.53,47.67,47.67,0,0,0,5.33,15.78,47.09,47.09,0,0,0,13.12,15,48.35,48.35,0,0,0,8.55,5.14A52.26,52.26,0,0,0,248.64,673a55.11,55.11,0,0,0,18.88-1,62.29,62.29,0,0,0,6.43-1.68,31.61,31.61,0,0,1-5.89-2.73,21.57,21.57,0,0,1-5.47-4.24,22.74,22.74,0,0,1-1.56-2h0a3,3,0,0,1-.42-3.09,3.14,3.14,0,0,1,2.86-2l.53,0c.29.06.51.11.79.19l4.71,1.25,5.11,1.37c.57.14,1.16.29,1.74.45a40.57,40.57,0,0,0,5,1.11,31.88,31.88,0,0,0,11-.34,15.68,15.68,0,0,0,6.74-3.06,15.13,15.13,0,0,0,2.55-2.66c-.36,0-.73-.11-1.1-.19C294.12,653,285.76,649.5,278,645l-2-1.19.71-2.31c.86-2.38,2.62-2.06,6.86-1.3,1.36.25,2.82.51,3.87.65a35.59,35.59,0,0,0,20.75-3.12,24.36,24.36,0,0,0,8.49-6.62A189.26,189.26,0,0,1,290,625.46a118.75,118.75,0,0,1-18.42-7,84.06,84.06,0,0,1-13-7.8,68.38,68.38,0,0,1-19.3-21.84c-1.88-3.37-3.66-6.83-5.38-10.18l-.28-.55a5.13,5.13,0,0,0-3.62-2.91A4.18,4.18,0,0,0,229.05,575Z"/><path class="cls-1" d="M776,401.18l.17-.26,16.3-17.85s5.65-7.53,0-9.42-32,7.54-32,7.54,9.43-5.65,9.43-15.07-39.57,3.77-39.57,3.77a51.9,51.9,0,0,0,1.66-11.17c.13-4.93-4.89-8.08-9.53-6.43C624.72,386.84,604,473.58,604,493.3v99.86a93.27,93.27,0,0,0,93.27,93.27h64.06a93.26,93.26,0,0,0,93.26-93.27V493.3A93.28,93.28,0,0,0,776,401.18Z"/><path class="cls-2" d="M783,684.54c-88.45,0-173.34-30.15-160.15-175.23,6.43-70.74,41.26-131.86,99.79-157.1l-.26.08C624.72,386.84,604,473.58,604,493.3v99.86a93.27,93.27,0,0,0,93.27,93.27h64.06a93,93,0,0,0,38.94-8.52C794.59,678.55,788.83,684.54,783,684.54Z"/><polyline class="cls-3" points="714.72 729.02 716.07 725.07 689.22 715.74 703.91 685.48 700.16 683.65 685.24 714.42 623.83 714.04 623.81 718.2 669.42 718.49 623.73 729.46 624.69 733.53 686.08 718.8"/><polyline class="cls-3" points="773.46 718.78 834.84 733.51 835.8 729.46 790.11 718.49 835.73 718.22 835.73 714.06 774.3 714.42 759.57 682.97 755.8 684.73 770.35 715.74 743.45 725.07 744.83 729.02"/><path class="cls-3" d="M761.33,689.25H697.27a96.21,96.21,0,0,1-96.1-96.09c0-.77.59-75.17,0-99.79-.57-23.94,6.44-105,120.51-143.83a9.9,9.9,0,0,1,9.09,1.43,9.73,9.73,0,0,1,4,8.14,49,49,0,0,1-.71,6.63c19.75-6,32-7.33,36.38-4.07a5.4,5.4,0,0,1,2.24,4.45,17.87,17.87,0,0,1-2.44,8.87c18.29-5.62,21.89-4.43,23.12-4a6.08,6.08,0,0,1,4.15,4c1.28,4.09-2.09,8.89-2.78,9.81l-.18.21-13.09,14.33a95.55,95.55,0,0,1,76,94v99.86A96.2,96.2,0,0,1,761.33,689.25ZM724.87,354.66a4.06,4.06,0,0,0-1.37.23C613.07,392.44,606.28,470.27,606.82,493.23c.59,24.72,0,99.2,0,99.95a90.54,90.54,0,0,0,90.44,90.42h64.06a90.54,90.54,0,0,0,90.44-90.44V493.3A90,90,0,0,0,775.51,404l-4.36-.68L774,399l16.2-17.73c1.07-1.49,2.1-3.8,1.84-4.63,0-.1-.3-.23-.55-.32s-4.12-1-23.58,5.29a4.24,4.24,0,0,1-4.52-6.8,13.36,13.36,0,0,0,3.56-8.7c-.9-.87-8.48-1.89-31.66,5.13a5.45,5.45,0,0,1-6.93-6.19,45.65,45.65,0,0,0,.68-6.15,4,4,0,0,0-1.67-3.4A4.23,4.23,0,0,0,724.87,354.66Z"/><path class="cls-4" d="M728.35,550.62l-30.62,28.17,30.68,34.49L758.7,579Z"/><polygon class="cls-5" points="728.43 613.28 758.7 578.97 728.35 550.62 728.43 613.28"/><path class="cls-3" d="M887.94,492.21s-4.92-.22-6.63.42-32.39-15.56-69.07-15.56-61.4,22.82-61.4,22.82H705.63s-24.74-22.82-61.4-22.82-67.38,16.21-69.07,15.56-6.63-.42-6.63-.42l-1.06,10.43s11.72,9.82,12.59,15.15c.52,3.22,3.55,19.33,5.15,25.66,1.87,7.34,5.3,17.58,13.93,26.88C612,584.11,627,591.15,642.53,591.15c17.32,0,35.6-2.76,49.67-17.06s26.5-41.51,24.52-48.62c-.75-2.71-5.75-6.6-3.62-10.65S728.24,511,728.24,511s13-.21,15.13,3.85-2.85,7.94-3.62,10.65c-2,7.11,10.45,34.31,24.54,48.62s32.33,17.06,49.67,17.06c15.5,0,30.57-7,43.37-20.82,8.64-9.3,12.07-19.54,13.95-26.88,1.6-6.33,4.63-22.44,5.14-25.66.87-5.33,12.58-15.15,12.58-15.15ZM701.2,548.09c-9.36,31.56-36.66,39.79-57.42,39.79s-41.51-18.2-47.46-28.42-15.9-39.6-5.69-59.4,60.27-23,90.12-8.53C707.09,504.25,710.6,516.54,701.2,548.09Zm159,11.37c-6,10.22-26.72,28.42-47.48,28.42s-48-8.23-57.44-39.79-5.87-43.84,20.48-56.56c29.84-14.46,79.9-11.28,90.12,8.53S866.13,549.23,860.18,559.46Z"/><path class="cls-3" d="M682.45,529.22a19.93,19.93,0,1,1-19.93-19.91A19.94,19.94,0,0,1,682.45,529.22Z"/><path class="cls-3" d="M816.23,529.22a19.93,19.93,0,1,1-19.93-19.91A19.94,19.94,0,0,1,816.23,529.22Z"/><circle class="cls-1" cx="669" cy="525.33" r="8.48"/><circle class="cls-1" cx="802.78" cy="525.33" r="8.48"/><path class="cls-9" d="M728.83,573.51c17.06,0,34.12,0,51.19,0a24.9,24.9,0,0,1,13.53,4.23c5.91,3.77,9.21,9.31,11,15.85a20,20,0,0,1,.6,5.36c0,32.45.1,64.9,0,97.35A23.68,23.68,0,0,1,795.32,716,28.11,28.11,0,0,1,785.2,721a31.14,31.14,0,0,1-7.55.69q-48.57.06-97.15,0c-6.28,0-12.38-.86-17.5-5a26.88,26.88,0,0,1-8.63-11.7c-1.42-3.76-1.39-7.4-1.4-11.15,0-31.38.1-62.76-.08-94.14-.07-11.92,7.66-22.16,18.11-25.05a24.22,24.22,0,0,1,6.65-1.16C694.71,573.54,711.77,573.51,728.83,573.51Zm-45,74c0,10.78,0,21.55,0,32.32,0,1.55.46,2.17,2.06,2.13,3.41-.08,6.82-.1,10.23,0,1.83.06,2.43-.54,2.4-2.41-.11-5.75,0-11.51-.08-17.26,0-1.64.47-2.13,2-1.92a24.16,24.16,0,0,0,3.61.1,42.84,42.84,0,0,0,16.25-3c11.24-4.79,14.71-15.33,12.92-25.92-1.4-8.29-6.5-13.67-14.3-16.59a37.4,37.4,0,0,0-13.57-2.15c-6.49,0-13,.3-19.46.34-1.72,0-2.12.6-2.11,2.22C683.89,626.12,683.86,636.83,683.86,647.53Zm56.75,25.57h0c0,1.53,0,3.07,0,4.61a2.52,2.52,0,0,0,1.79,2.76c8.56,3.17,17.24,3.69,25.85.54a15.34,15.34,0,0,0,9.36-19.74c-1.51-4.47-5.1-6.87-9-8.94s-8.22-3.15-12-5.41c-1.3-.77-2.5-1.76-2.23-3.46.3-1.88,1.75-2.52,3.47-2.77A29.7,29.7,0,0,1,773.28,643c1.78.71,2.1.55,2.12-1.37,0-2.88-.07-5.75,0-8.63a2.49,2.49,0,0,0-2-2.77A29.29,29.29,0,0,0,768,629c-6-.73-11.88-.9-17.56,1.49-5.34,2.25-9,6.11-9.82,12-.94,6.44,1.53,11.48,7,15.08a54.14,54.14,0,0,0,10.25,4.89,16.2,16.2,0,0,1,4.93,2.6c2.14,1.87,1.8,4-.76,5.17a5.8,5.8,0,0,1-1.91.54A29.75,29.75,0,0,1,743,667.55c-2.21-1.14-2.38-1-2.39,1.53Z"/><path class="cls-10" d="M683.86,647.53c0-10.7,0-21.41,0-32.11,0-1.62.39-2.21,2.11-2.22,6.48,0,13-.31,19.46-.34A37.4,37.4,0,0,1,719,615c7.8,2.92,12.9,8.3,14.3,16.59,1.79,10.59-1.68,21.13-12.92,25.92a42.84,42.84,0,0,1-16.25,3,24.16,24.16,0,0,1-3.61-.1c-1.58-.21-2.08.28-2,1.92.1,5.75,0,11.51.08,17.26,0,1.87-.57,2.47-2.4,2.41-3.41-.11-6.82-.09-10.23,0-1.6,0-2.07-.58-2.06-2.13C683.88,669.08,683.86,658.31,683.86,647.53Zm14.62-10.75c0,3.07,0,6.15,0,9.23,0,.89.1,1.53,1.26,1.58,4.09.15,8.16.16,12.12-1,4.82-1.47,7.39-4.87,7.44-9.72.05-5.14-2.3-8.51-7.14-10.14-4.09-1.37-8.32-1-12.52-.84-1.15,0-1.17.83-1.16,1.69C698.49,630.62,698.48,633.7,698.48,636.78Z"/><path class="cls-10" d="M740.61,673.1v-4c0-2.57.18-2.67,2.39-1.53a29.75,29.75,0,0,0,17.06,3.21,5.8,5.8,0,0,0,1.91-.54c2.56-1.19,2.9-3.3.76-5.17a16.2,16.2,0,0,0-4.93-2.6,54.14,54.14,0,0,1-10.25-4.89c-5.44-3.6-7.91-8.64-7-15.08.86-5.85,4.48-9.71,9.82-12C756.08,628.13,762,628.3,768,629a29.29,29.29,0,0,1,5.47,1.17,2.49,2.49,0,0,1,2,2.77c-.1,2.88,0,5.75,0,8.63,0,1.92-.34,2.08-2.12,1.37a29.7,29.7,0,0,0-15.46-2.28c-1.72.25-3.17.89-3.47,2.77-.27,1.7.93,2.69,2.23,3.46,3.8,2.26,8.14,3.35,12,5.41s7.48,4.47,9,8.94A15.34,15.34,0,0,1,768.23,681c-8.61,3.15-17.29,2.63-25.85-.54a2.52,2.52,0,0,1-1.79-2.76c0-1.54,0-3.08,0-4.61Z"/><path class="cls-9" d="M698.48,636.78c0-3.08,0-6.16,0-9.24,0-.86,0-1.65,1.16-1.69,4.2-.16,8.43-.53,12.52.84,4.84,1.63,7.19,5,7.14,10.14,0,4.85-2.62,8.25-7.44,9.72-4,1.2-8,1.19-12.12,1-1.16-.05-1.26-.69-1.26-1.58C698.49,642.93,698.48,639.85,698.48,636.78Z"/><path class="cls-8" d="M764.69,629l2.52-.33a191.61,191.61,0,0,0,28.55-5.9,115.27,115.27,0,0,0,18-6.84,81.89,81.89,0,0,0,12.56-7.53,66.06,66.06,0,0,0,18.52-21c1.94-3.49,3.77-7,5.61-10.63a7.91,7.91,0,0,1,5.48-4.37,5.18,5.18,0,0,1,4.57.78,41.76,41.76,0,0,1,10.17,11.19,116.42,116.42,0,0,1,6.5,12,72.57,72.57,0,0,1,6.11,20.28,55.58,55.58,0,0,1,0,16.34,50.21,50.21,0,0,1-5.65,16.72,49.67,49.67,0,0,1-13.9,15.92,50.72,50.72,0,0,1-9,5.44,55.28,55.28,0,0,1-16.39,4.75,57.53,57.53,0,0,1-19.88-1,52.49,52.49,0,0,1-8.25-2.32,12.53,12.53,0,0,1-3.78-2.1,3.13,3.13,0,0,1-1-1.35c1.38-.25,2.71-.39,4-.68a27.11,27.11,0,0,0,7.7-3.15,19.31,19.31,0,0,0,4.81-3.69,21.8,21.8,0,0,0,1.47-1.89,1.38,1.38,0,0,0,.21-.44,4.47,4.47,0,0,0-.47-.07l-.56.13c-3.29.86-6.56,1.78-9.87,2.63a63.69,63.69,0,0,1-7,1.63,34.4,34.4,0,0,1-11.93-.38,18.58,18.58,0,0,1-7.93-3.62,20.81,20.81,0,0,1-4.65-5.53l-1.2-2a13.46,13.46,0,0,0,1.76.12,35.33,35.33,0,0,0,3.86-.44,68.93,68.93,0,0,0,19.82-7.74,22.1,22.1,0,0,0,2.57-1.93c.1-.08.1-.3.17-.42a1.09,1.09,0,0,0-.43,0,34.11,34.11,0,0,1-8.17,2.11,38.58,38.58,0,0,1-22.35-3.38,26.9,26.9,0,0,1-9.66-7.64c-.71-.89-1.35-1.82-2.06-2.74C765.22,629.62,765,629.33,764.69,629Z"/><path class="cls-3" d="M831.33,679.07a60.92,60.92,0,0,1-13.54-1.53,54.23,54.23,0,0,1-8.67-2.46,14.77,14.77,0,0,1-4.6-2.59,5.67,5.67,0,0,1-1.89-2.71l-.86-3,1-.17a36.74,36.74,0,0,1-9.62-.73,21.3,21.3,0,0,1-9.12-4.18,23.48,23.48,0,0,1-5.28-6.26l-4-6.6,5.37.33.79.07a2.75,2.75,0,0,0,.57,0l.62,0a26.68,26.68,0,0,0,2.92-.34,51.89,51.89,0,0,0,6.75-2.07,40.23,40.23,0,0,1-15.82-4,29.62,29.62,0,0,1-10.65-8.44c-.41-.5-.81-1-1.21-1.59-.28-.39-.57-.77-.86-1.16s-.43-.54-.66-.8l-3.42-4,6.21-.82,1.45-.2A190.1,190.1,0,0,0,795,620a113,113,0,0,0,17.55-6.67,78.2,78.2,0,0,0,12.11-7.27,62.63,62.63,0,0,0,7.52-6.49A64.2,64.2,0,0,0,842.36,586c1.81-3.26,3.57-6.68,5.27-10l.28-.55a10.7,10.7,0,0,1,7.34-5.83,8,8,0,0,1,6.94,1.28A44,44,0,0,1,873,582.88a115.32,115.32,0,0,1,6.67,12.29,74.89,74.89,0,0,1,6.36,21.08,58.39,58.39,0,0,1,0,17.16,53,53,0,0,1-6,17.66,52.48,52.48,0,0,1-14.68,16.82,53.12,53.12,0,0,1-9.52,5.74,58,58,0,0,1-17.23,5A59.81,59.81,0,0,1,831.33,679.07Zm-18.71-8.72A61.83,61.83,0,0,0,819,672a55.12,55.12,0,0,0,18.92,1,52.6,52.6,0,0,0,15.54-4.51,48.27,48.27,0,0,0,8.52-5.13,47,47,0,0,0,13.13-15,47.66,47.66,0,0,0,5.34-15.79,53,53,0,0,0,0-15.51,69.6,69.6,0,0,0-5.89-19.5,114.8,114.8,0,0,0-6.33-11.67,38.6,38.6,0,0,0-9.47-10.42,2.33,2.33,0,0,0-2.19-.29,5.08,5.08,0,0,0-3.64,2.9l-.29.56c-1.73,3.35-3.51,6.81-5.37,10.16A69.07,69.07,0,0,1,828,610.66a83.44,83.44,0,0,1-13,7.78,117.87,117.87,0,0,1-18.43,7,189.6,189.6,0,0,1-26.65,5.66,24.19,24.19,0,0,0,8.47,6.61,35.6,35.6,0,0,0,20.77,3.13c1-.14,2.51-.4,3.86-.65,4.25-.76,6-1.08,6.87,1.3l.81,2.24L808.52,645c-3.69,2.15-13.31,7.39-22.35,9.4-.4.08-.79.14-1.17.2a15.49,15.49,0,0,0,2.55,2.66,15.78,15.78,0,0,0,6.75,3.06,31.57,31.57,0,0,0,11,.34,40.16,40.16,0,0,0,5-1.11l1.76-.46c1.7-.44,3.4-.9,5.1-1.36s3.16-.85,4.75-1.26a7.58,7.58,0,0,1,.75-.18l.52,0a3.15,3.15,0,0,1,2.87,2,3,3,0,0,1-.38,3,22.05,22.05,0,0,1-1.61,2,21.61,21.61,0,0,1-5.49,4.24A31,31,0,0,1,812.62,670.35Zm8.77-12.78a1.93,1.93,0,0,0-.27.3Z"/><path class="cls-8" d="M697.33,629l-2.52-.33a191.87,191.87,0,0,1-28.55-5.9,116,116,0,0,1-18-6.84,81.8,81.8,0,0,1-12.55-7.53,65.73,65.73,0,0,1-18.52-21c-2-3.49-3.77-7-5.61-10.63a7.91,7.91,0,0,0-5.48-4.37,5.18,5.18,0,0,0-4.57.78,41.43,41.43,0,0,0-10.17,11.19,114.54,114.54,0,0,0-6.5,12,72.92,72.92,0,0,0-6.12,20.28,55.24,55.24,0,0,0,0,16.34,50.69,50.69,0,0,0,28.58,38.08,55.2,55.2,0,0,0,16.39,4.75,57.47,57.47,0,0,0,19.87-1,52.19,52.19,0,0,0,8.25-2.32,12.46,12.46,0,0,0,3.79-2.1,3.1,3.1,0,0,0,1-1.35c-1.37-.25-2.71-.39-4-.68a27.23,27.23,0,0,1-7.7-3.15,19.31,19.31,0,0,1-4.81-3.69,21.68,21.68,0,0,1-1.46-1.89,1.4,1.4,0,0,1-.22-.44c.17,0,.33-.07.47-.07l.57.13c3.29.86,6.56,1.78,9.86,2.63a63.86,63.86,0,0,0,7,1.63,34.35,34.35,0,0,0,11.92-.38,18.52,18.52,0,0,0,7.93-3.62,20.63,20.63,0,0,0,4.65-5.53c.4-.64.8-1.31,1.2-2a13.46,13.46,0,0,1-1.76.12,35.62,35.62,0,0,1-3.86-.44,68.87,68.87,0,0,1-19.81-7.74,21.29,21.29,0,0,1-2.57-1.93c-.1-.08-.11-.3-.17-.42a1,1,0,0,1,.42,0,34.11,34.11,0,0,0,8.17,2.11,38.58,38.58,0,0,0,22.35-3.38,27,27,0,0,0,9.67-7.64c.71-.89,1.35-1.82,2.06-2.74C696.81,629.62,697,629.33,697.33,629Z"/><path class="cls-3" d="M630.69,679.07a61.35,61.35,0,0,1-7.29-.44,58.15,58.15,0,0,1-17.25-5,53.46,53.46,0,0,1-9.54-5.75,52.67,52.67,0,0,1-14.67-16.81,53.28,53.28,0,0,1-6-17.65,58.87,58.87,0,0,1,0-17.18,74.91,74.91,0,0,1,6.35-21A118.68,118.68,0,0,1,589,582.9a44.06,44.06,0,0,1,10.87-12,7.94,7.94,0,0,1,6.95-1.26,10.68,10.68,0,0,1,7.32,5.83l.28.54c1.7,3.3,3.46,6.72,5.28,10A63,63,0,0,0,637.4,606.1a78.44,78.44,0,0,0,12.13,7.27A112.35,112.35,0,0,0,667.06,620a189.51,189.51,0,0,0,28.14,5.8l1.49.21,6.2.82-3.42,4c-.23.26-.41.49-.58.71l-.93,1.24c-.4.55-.8,1.09-1.23,1.62a29.66,29.66,0,0,1-10.65,8.43,40.21,40.21,0,0,1-15.79,4,50.61,50.61,0,0,0,6.8,2.08,26.13,26.13,0,0,0,2.85.33l.63,0a2.71,2.71,0,0,0,.56,0l.79-.07,5.37-.33-4,6.6a23.32,23.32,0,0,1-5.29,6.26,21.2,21.2,0,0,1-9.11,4.18,36.78,36.78,0,0,1-9.63.73l1,.17-.86,3a5.74,5.74,0,0,1-1.92,2.73,15.14,15.14,0,0,1-4.6,2.59,54.65,54.65,0,0,1-8.66,2.44A60.76,60.76,0,0,1,630.69,679.07ZM604.51,575a1.92,1.92,0,0,0-1.25.41,38.49,38.49,0,0,0-9.49,10.45,112.54,112.54,0,0,0-6.33,11.67A69.29,69.29,0,0,0,581.56,617a53.17,53.17,0,0,0,0,15.53,47.67,47.67,0,0,0,5.33,15.78,47.09,47.09,0,0,0,13.12,15,48.35,48.35,0,0,0,8.55,5.14A52.26,52.26,0,0,0,624.1,673,55.18,55.18,0,0,0,643,672a62.77,62.77,0,0,0,6.42-1.68,31.61,31.61,0,0,1-5.89-2.73,21.57,21.57,0,0,1-5.47-4.24,22.74,22.74,0,0,1-1.56-2h0a3,3,0,0,1-.42-3.09,3.14,3.14,0,0,1,2.86-2l.53,0c.29.06.51.11.79.19l4.71,1.25,5.11,1.37c.57.14,1.16.29,1.74.45a40.57,40.57,0,0,0,5,1.11,31.88,31.88,0,0,0,11-.34,15.68,15.68,0,0,0,6.74-3.06,15.13,15.13,0,0,0,2.55-2.66c-.36,0-.73-.11-1.1-.19-6.34-1.41-14.7-4.93-22.44-9.42l-2-1.19.71-2.31c.86-2.38,2.62-2.06,6.87-1.3,1.35.25,2.81.51,3.86.65a35.59,35.59,0,0,0,20.75-3.12,24.27,24.27,0,0,0,8.49-6.62,189.26,189.26,0,0,1-26.66-5.66,118.75,118.75,0,0,1-18.42-7,84.06,84.06,0,0,1-13-7.8,68.38,68.38,0,0,1-19.3-21.84c-1.88-3.37-3.66-6.83-5.38-10.18l-.28-.55a5.13,5.13,0,0,0-3.62-2.91A4.18,4.18,0,0,0,604.51,575Z"/></svg>