<svg id="Camada_1" data-name="Camada 1" xmlns="http://www.w3.org/2000/svg" viewBox="0 0 1080 1080"><defs><style>.cls-1,.cls-6{fill:#fff;}.cls-2{fill:#e4e2e2;}.cls-3{fill:#37352e;}.cls-4{fill:#ef9e20;}.cls-5{fill:#e99123;}.cls-6{fill-rule:evenodd;}.cls-7{fill:#f8ca41;}</style></defs><title>Prancheta 1 cópia 3</title><path class="cls-1" d="M606.86,339.41l.25-.36L630,314s7.93-10.57,0-13.21S585,311.38,585,311.38s13.21-7.93,13.21-21.14-55.48,5.29-55.48,5.29a73.08,73.08,0,0,0,2.33-15.66c.18-6.91-6.85-11.33-13.37-9-136.93,48.46-166,170.1-166,197.75v140a130.8,130.8,0,0,0,130.8,130.8h89.83a130.8,130.8,0,0,0,130.8-130.8v-140A130.83,130.83,0,0,0,606.86,339.41Z"/><path class="cls-2" d="M616.75,736.78c-124,0-243.09-42.27-224.59-245.73,9-99.21,57.86-184.92,139.94-220.31-.12,0-.25.06-.37.11-136.93,48.46-166,170.1-166,197.75v140a130.8,130.8,0,0,0,130.8,130.8h89.83A130.27,130.27,0,0,0,641,727.48C633,728.38,624.93,736.78,616.75,736.78Z"/><polyline class="cls-3" points="521.01 799.16 522.9 793.62 485.24 780.54 505.85 738.1 500.59 735.54 479.66 778.69 393.55 778.15 393.52 783.99 457.48 784.39 393.4 799.78 394.75 805.48 480.84 784.83"/><polyline class="cls-3" points="603.38 784.8 689.46 805.46 690.81 799.78 626.73 784.39 690.7 784.02 690.7 778.18 604.56 778.69 583.89 734.58 578.62 737.05 599.02 780.54 561.3 793.62 563.23 799.16"/><path class="cls-3" d="M586.36,743.39H496.53c-74.31,0-134.76-60.45-134.76-134.76,0-1.08.82-105.4,0-139.94-.8-33.56,9-147.31,169-201.7a13.87,13.87,0,0,1,12.75,2,13.65,13.65,0,0,1,5.54,11.41,69.42,69.42,0,0,1-1,9.31c27.7-8.36,44.87-10.28,51-5.72a7.62,7.62,0,0,1,3.15,6.24,25.1,25.1,0,0,1-3.43,12.44c25.66-7.88,30.69-6.2,32.42-5.63a8.52,8.52,0,0,1,5.83,5.6c1.79,5.74-2.94,12.46-3.91,13.75l-.24.3-18.36,20.1A134,134,0,0,1,721.12,468.6v140C721.12,682.94,660.67,743.39,586.36,743.39ZM535.24,274.17a6.2,6.2,0,0,0-1.93.32C378.46,327.15,368.93,436.3,369.7,468.5c.82,34.66,0,139.12,0,140.17,0,69.9,56.89,126.79,126.83,126.79h89.83A127,127,0,0,0,713.19,608.63v-140A126.13,126.13,0,0,0,606.25,343.33l-6.11-1,4-6,22.71-24.87c1.51-2.09,3-5.33,2.59-6.5-.05-.14-.42-.32-.77-.44-.52-.17-5.79-1.41-33.07,7.42a6,6,0,0,1-6.35-9.55c3.32-3.88,5-8,5-12.2-1.26-1.22-11.89-2.65-44.4,7.2a7.64,7.64,0,0,1-9.72-8.68,63.43,63.43,0,0,0,1-8.62,5.64,5.64,0,0,0-2.34-4.77A5.93,5.93,0,0,0,535.24,274.17Z"/><path class="cls-4" d="M540.12,549l-42.94,39.5,43,48.37,42.47-48.11Z"/><polygon class="cls-5" points="540.23 636.85 582.68 588.74 540.12 548.98 540.23 636.85"/><path class="cls-3" d="M763.92,467.07s-6.9-.31-9.29.59-45.43-21.82-96.87-21.82-86.1,32-86.1,32h-63.4s-34.69-32-86.11-32-94.49,22.73-96.86,21.82-9.3-.59-9.3-.59L314.5,481.7s16.45,13.77,17.67,21.24c.73,4.52,5,27.11,7.22,36,2.62,10.28,7.43,24.64,19.53,37.7,18,19.32,39.1,29.19,60.85,29.19,24.28,0,49.92-3.88,69.65-23.93s37.17-58.21,34.39-68.17c-1.06-3.81-8.06-9.26-5.08-15s21.23-5.4,21.23-5.4,18.24-.28,21.22,5.4-4,11.14-5.08,15c-2.75,10,14.66,48.1,34.41,68.17s45.35,23.93,69.67,23.93c21.74,0,42.87-9.87,60.81-29.19,12.12-13.06,16.93-27.42,19.57-37.7,2.23-8.88,6.49-31.47,7.21-36,1.22-7.47,17.64-21.24,17.64-21.24ZM502.05,545.43c-13.14,44.27-51.42,55.81-80.53,55.81S363.3,575.71,355,561.38s-22.29-55.54-8-83.31,84.53-32.23,126.39-12C510.31,484,515.22,501.19,502.05,545.43Zm222.94,16c-8.38,14.33-37.47,39.86-66.58,39.86S591,589.7,577.86,545.43s-8.24-61.48,28.71-79.32c41.85-20.27,112-15.81,126.38,12S733.33,547,725,561.38Z"/><path class="cls-3" d="M475.76,519a27.95,27.95,0,1,1-27.95-27.92A28,28,0,0,1,475.76,519Z"/><path class="cls-3" d="M663.36,519a27.95,27.95,0,1,1-28-27.92A28,28,0,0,1,663.36,519Z"/><circle class="cls-1" cx="456.89" cy="513.51" r="11.89"/><circle class="cls-1" cx="644.49" cy="513.51" r="11.89"/><path class="cls-6" d="M591.08,658.87c1.27-.17,2.43-.31,3.54-.47a269.44,269.44,0,0,0,40-8.27,160.84,160.84,0,0,0,25.21-9.6A114.15,114.15,0,0,0,677.48,630a92.57,92.57,0,0,0,26-29.4c2.72-4.89,5.28-9.89,7.86-14.9a11.07,11.07,0,0,1,7.69-6.12,7.23,7.23,0,0,1,6.41,1.08,58.35,58.35,0,0,1,14.26,15.7,161.22,161.22,0,0,1,9.11,16.8,102,102,0,0,1,8.58,28.43,77.57,77.57,0,0,1,0,22.92,71,71,0,0,1-40.08,53.4,77.27,77.27,0,0,1-23,6.67,80.86,80.86,0,0,1-27.87-1.46,73.77,73.77,0,0,1-11.57-3.26,17.38,17.38,0,0,1-5.31-2.94,4.32,4.32,0,0,1-1.45-1.9c1.93-.34,3.8-.54,5.65-1a38.27,38.27,0,0,0,10.8-4.41,27.13,27.13,0,0,0,6.74-5.19,30.25,30.25,0,0,0,2.06-2.64,2.17,2.17,0,0,0,.3-.61,4.53,4.53,0,0,0-.66-.11c-.3.06-.52.12-.79.19-4.62,1.2-9.2,2.49-13.84,3.69a91.18,91.18,0,0,1-9.85,2.28,48.18,48.18,0,0,1-16.72-.53,26.11,26.11,0,0,1-11.12-5.07,29.48,29.48,0,0,1-6.52-7.76c-.56-.91-1.13-1.84-1.69-2.77a17.73,17.73,0,0,0,2.48.17,51.75,51.75,0,0,0,5.41-.61,97.06,97.06,0,0,0,27.79-10.86,30.17,30.17,0,0,0,3.6-2.7c.14-.12.15-.43.24-.6a1.6,1.6,0,0,0-.6,0,47.38,47.38,0,0,1-11.46,3,54.05,54.05,0,0,1-31.34-4.74A37.61,37.61,0,0,1,595,664c-1-1.24-1.9-2.55-2.89-3.83C591.82,659.76,591.51,659.36,591.08,658.87Z"/><path class="cls-3" d="M684.54,729.11a86.15,86.15,0,0,1-19-2.14,77.38,77.38,0,0,1-12.15-3.45,21,21,0,0,1-6.45-3.63,8,8,0,0,1-2.66-3.8l-1.21-4.22,1.38-.25a51.41,51.41,0,0,1-13.49-1,29.81,29.81,0,0,1-12.79-5.87,33,33,0,0,1-7.41-8.77l-5.6-9.25,7.53.46c.38,0,.75.06,1.11.1a4.33,4.33,0,0,0,.8.07l.87-.08a34.81,34.81,0,0,0,4.1-.47,70.69,70.69,0,0,0,9.45-2.91,56.42,56.42,0,0,1-22.18-5.6,41.63,41.63,0,0,1-14.94-11.84c-.57-.71-1.13-1.47-1.69-2.23L589,662.59c-.34-.44-.59-.76-.92-1.13l-4.8-5.55,8.71-1.16c.71-.09,1.38-.17,2-.27a265.11,265.11,0,0,0,39.5-8.15A156.82,156.82,0,0,0,658.14,637a109.7,109.7,0,0,0,17-10.18,88.61,88.61,0,0,0,10.55-9.11,90.23,90.23,0,0,0,14.33-19c2.54-4.56,5-9.36,7.39-14l.4-.78a15,15,0,0,1,10.29-8.16,11.13,11.13,0,0,1,9.73,1.79A61.85,61.85,0,0,1,743,594.21a169.11,169.11,0,0,1,9.35,17.24A105.32,105.32,0,0,1,761.29,641a82.26,82.26,0,0,1,0,24.07A75.12,75.12,0,0,1,719,721.48a81.69,81.69,0,0,1-24.16,7A86.13,86.13,0,0,1,684.54,729.11Zm-26.25-12.23a85,85,0,0,0,9,2.35,77.35,77.35,0,0,0,26.54,1.39,73.63,73.63,0,0,0,21.78-6.32,66.37,66.37,0,0,0,37.85-50.41,74.42,74.42,0,0,0,0-21.75,97.57,97.57,0,0,0-8.26-27.35,156,156,0,0,0-8.88-16.36A54,54,0,0,0,723,583.81a3.27,3.27,0,0,0-3.07-.41,7.13,7.13,0,0,0-5.11,4.07l-.41.79c-2.42,4.7-4.91,9.55-7.53,14.25a98.42,98.42,0,0,1-15.6,20.75,97.35,97.35,0,0,1-11.49,9.91,117,117,0,0,1-18.2,10.92,163.94,163.94,0,0,1-25.85,9.84,265.16,265.16,0,0,1-37.38,7.94,34,34,0,0,0,11.89,9.27c9,4.34,18.48,5.77,29.12,4.39,1.47-.2,3.52-.57,5.42-.91,5.95-1.07,8.42-1.51,9.63,1.82l1.14,3.15-3.05,1.78c-5.17,3-18.66,10.35-31.34,13.17-.56.11-1.1.2-1.64.28a21.79,21.79,0,0,0,3.58,3.74,22.08,22.08,0,0,0,9.47,4.28,44.22,44.22,0,0,0,15.34.48,57.85,57.85,0,0,0,7-1.55l2.46-.65c2.38-.61,4.77-1.26,7.15-1.9,2.22-.6,4.44-1.2,6.66-1.77a9.69,9.69,0,0,1,1.06-.26l.73-.06a4.39,4.39,0,0,1,4,2.87,4.17,4.17,0,0,1-.53,4.24,27,27,0,0,1-10,8.84A45.06,45.06,0,0,1,658.29,716.88ZM670.59,699a3.79,3.79,0,0,0-.38.42Z"/><path class="cls-7" d="M398.75,604.82l70.14-38.44,89.78,163.79-70.13,38.45Z"/><path class="cls-3" d="M501,791.25l-10-18.32L561,734.52c3.12,5.63,6.18,11,9,16.46a3.71,3.71,0,0,1-.27,3.33c-11.77,13.3-13.23,27.89-5.32,44.06L543,810.16C533.33,794.33,519.67,787.74,501,791.25Z"/><path class="cls-3" d="M396.07,599.89c-4.19-7.65-8.39-14.7-11.92-22.06-2-4.13-.77-8.26,3.48-10.61q27.64-15.27,55.42-30.3c4.8-2.58,8.88-1.14,11.7,3.79,3.81,6.65,7.42,13.42,11.45,20.74Z"/><path class="cls-7" d="M547.91,813.1l16.31-8.94c2.75,5,5.73,9.59,7.79,14.58.64,1.56-1.17,4.15-1.92,6.25-.09.26-.59.36-.89.55-10.91,6.55-10.91,6.56-17-4.53C550.84,818.53,549.5,816,547.91,813.1Z"/><path class="cls-6" d="M496.62,658.87c-1.27-.17-2.43-.31-3.53-.47a269.18,269.18,0,0,1-40-8.27,161.33,161.33,0,0,1-25.22-9.6A114.06,114.06,0,0,1,410.23,630a92.57,92.57,0,0,1-26-29.4c-2.73-4.89-5.29-9.89-7.87-14.9a11,11,0,0,0-7.68-6.12,7.25,7.25,0,0,0-6.42,1.08A58.32,58.32,0,0,0,348,596.34a161.3,161.3,0,0,0-9.12,16.8,102,102,0,0,0-8.58,28.43,77.91,77.91,0,0,0,0,22.92,70.15,70.15,0,0,0,7.93,23.45,69.42,69.42,0,0,0,19.49,22.32,70.39,70.39,0,0,0,12.66,7.63,77.34,77.34,0,0,0,23,6.67,80.86,80.86,0,0,0,27.87-1.46,73.65,73.65,0,0,0,11.56-3.26,17.43,17.43,0,0,0,5.32-2.94,4.29,4.29,0,0,0,1.44-1.9c-1.93-.34-3.79-.54-5.65-1a38.21,38.21,0,0,1-10.79-4.41,27,27,0,0,1-6.75-5.19,30.25,30.25,0,0,1-2.06-2.64,2.15,2.15,0,0,1-.29-.61,4.13,4.13,0,0,1,.66-.11l.79.19c4.61,1.2,9.2,2.49,13.83,3.69a91.73,91.73,0,0,0,9.85,2.28,48.17,48.17,0,0,0,16.72-.53,26.1,26.1,0,0,0,11.13-5.07,29.67,29.67,0,0,0,6.52-7.76l1.68-2.77a17.69,17.69,0,0,1-2.47.17,51.15,51.15,0,0,1-5.41-.61,96.83,96.83,0,0,1-27.79-10.86,30.27,30.27,0,0,1-3.61-2.7c-.14-.12-.14-.43-.23-.6a1.55,1.55,0,0,1,.59,0,47.62,47.62,0,0,0,11.46,3,54.05,54.05,0,0,0,31.34-4.74A37.65,37.65,0,0,0,492.69,664c1-1.24,1.89-2.55,2.88-3.83C495.89,659.76,496.2,659.36,496.62,658.87Z"/><path class="cls-3" d="M403.17,729.11a83.35,83.35,0,0,1-10.23-.62,81.61,81.61,0,0,1-24.19-7,75,75,0,0,1-13.38-8.06,73.85,73.85,0,0,1-20.57-23.57,74.63,74.63,0,0,1-8.37-24.76,82.33,82.33,0,0,1,0-24.08,105,105,0,0,1,8.9-29.53,169.5,169.5,0,0,1,9.35-17.24,62.05,62.05,0,0,1,15.25-16.77,11.14,11.14,0,0,1,9.75-1.76,15,15,0,0,1,10.26,8.17l.39.76c2.38,4.63,4.85,9.43,7.4,14a90,90,0,0,0,14.31,19,88.3,88.3,0,0,0,10.54,9.1,110.57,110.57,0,0,0,17,10.2,157.18,157.18,0,0,0,24.59,9.35,264.77,264.77,0,0,0,39.45,8.14c.71.11,1.39.19,2.1.28l8.7,1.16-4.8,5.55c-.32.37-.57.69-.81,1-.52.66-.91,1.2-1.31,1.74-.56.77-1.13,1.53-1.72,2.27a41.63,41.63,0,0,1-14.93,11.82,56.4,56.4,0,0,1-22.16,5.59,73,73,0,0,0,9.54,2.93,35.21,35.21,0,0,0,4,.45l.87.08a5.65,5.65,0,0,0,.8-.07c.36,0,.72-.08,1.1-.1l7.53-.46-5.6,9.25a33,33,0,0,1-7.41,8.78,29.87,29.87,0,0,1-12.78,5.86,51.49,51.49,0,0,1-13.5,1l1.38.25-1.2,4.22a8.09,8.09,0,0,1-2.69,3.82,21.17,21.17,0,0,1-6.46,3.63A77.2,77.2,0,0,1,422.14,727,85.29,85.29,0,0,1,403.17,729.11ZM366.45,583.23a2.75,2.75,0,0,0-1.76.57,54.2,54.2,0,0,0-13.31,14.66,159.17,159.17,0,0,0-8.87,16.36,97.07,97.07,0,0,0-8.24,27.31,74.22,74.22,0,0,0,0,21.77A66.61,66.61,0,0,0,341.75,686a65.9,65.9,0,0,0,18.4,21.06,66.88,66.88,0,0,0,12,7.22,74.16,74.16,0,0,0,21.81,6.32,77.27,77.27,0,0,0,26.48-1.39,87.9,87.9,0,0,0,9-2.36,44.42,44.42,0,0,1-8.26-3.82,30.56,30.56,0,0,1-7.68-5.95,30.94,30.94,0,0,1-2.18-2.78h0a4.23,4.23,0,0,1-.6-4.33,4.41,4.41,0,0,1,4-2.87l.73.06c.41.08.73.16,1.11.27,2.17.56,4.38,1.16,6.6,1.76,2.39.64,4.78,1.29,7.17,1.91l2.45.64a57.56,57.56,0,0,0,6.95,1.55,44.32,44.32,0,0,0,15.36-.48,22,22,0,0,0,9.46-4.28,21.42,21.42,0,0,0,3.58-3.74c-.51-.07-1-.15-1.55-.26-8.88-2-20.61-6.91-31.46-13.22l-2.86-1.66,1-3.24c1.2-3.33,3.67-2.89,9.63-1.82,1.89.34,3.95.71,5.42.91,10.64,1.38,20.16,0,29.09-4.38a33.83,33.83,0,0,0,11.91-9.28,265.73,265.73,0,0,1-37.39-7.94,164.93,164.93,0,0,1-25.82-9.83,117.84,117.84,0,0,1-18.23-10.94,97,97,0,0,1-11.47-9.9,98.28,98.28,0,0,1-15.59-20.72c-2.63-4.73-5.13-9.58-7.54-14.28l-.4-.77a7.14,7.14,0,0,0-5.07-4.08A5.64,5.64,0,0,0,366.45,583.23Z"/></svg>