<svg id="Camada_1" data-name="Camada 1" xmlns="http://www.w3.org/2000/svg" viewBox="0 0 1080 1080"><defs><style>.cls-1,.cls-6{fill:#fff;}.cls-2{fill:#e4e2e2;}.cls-3{fill:#37352e;}.cls-4{fill:#ef9e20;}.cls-5{fill:#e99123;}.cls-6{fill-rule:evenodd;}.cls-7{fill:#50504c;}.cls-8{fill:#696967;}.cls-9{fill:#f9cb42;}.cls-10{fill:#e5b62f;}</style></defs><title>Prancheta 1 cópia 4</title><path class="cls-1" d="M630.51,395.6l.22-.34,21.32-23.34s7.39-9.86,0-12.32-41.9,9.85-41.9,9.85,12.33-7.39,12.33-19.71-51.75,4.93-51.75,4.93a68.12,68.12,0,0,0,2.17-14.6c.17-6.45-6.39-10.57-12.47-8.42-127.7,45.2-154.81,158.65-154.81,184.43V646.69a122,122,0,0,0,122,122h83.79a122,122,0,0,0,122-122V516.08A122,122,0,0,0,630.51,395.6Z"/><path class="cls-2" d="M639.73,766.2C524,766.2,413,726.78,430.26,537c8.41-92.54,54-172.47,130.52-205.48l-.35.1c-127.7,45.2-154.81,158.65-154.81,184.43V646.69a122,122,0,0,0,122,122h83.79a121.53,121.53,0,0,0,50.92-11.14C654.89,758.37,647.36,766.2,639.73,766.2Z"/><polyline class="cls-3" points="550.43 824.38 552.2 819.21 517.08 807.01 536.3 767.43 531.39 765.04 511.87 805.29 431.56 804.78 431.53 810.23 491.18 810.6 431.42 824.96 432.68 830.28 512.97 811.01"/><polyline class="cls-3" points="627.25 810.98 707.53 830.25 708.8 824.96 649.03 810.6 708.7 810.25 708.7 804.81 628.36 805.29 609.08 764.14 604.16 766.45 623.19 807.01 588.01 819.21 589.81 824.38"/><path class="cls-3" d="M611.39,772.37H527.6A125.82,125.82,0,0,1,401.92,646.69c0-1,.77-98.31,0-130.52-.74-31.31,8.42-137.39,157.61-188.12a13,13,0,0,1,11.89,1.88,12.72,12.72,0,0,1,5.17,10.64,64.66,64.66,0,0,1-.94,8.68c25.84-7.79,41.85-9.59,47.59-5.33a7.09,7.09,0,0,1,2.93,5.82,23.31,23.31,0,0,1-3.2,11.6c23.94-7.35,28.63-5.79,30.25-5.25a7.92,7.92,0,0,1,5.43,5.22c1.67,5.35-2.74,11.62-3.64,12.83l-.23.27-17.12,18.75a125,125,0,0,1,99.41,122.92V646.69A125.82,125.82,0,0,1,611.39,772.37ZM563.71,334.75a5.62,5.62,0,0,0-1.8.3C417.49,384.16,408.6,486,409.31,516c.77,32.33,0,129.75,0,130.73A118.41,118.41,0,0,0,527.6,765h83.79A118.41,118.41,0,0,0,729.67,646.69V516.08a117.63,117.63,0,0,0-99.74-116.83l-5.69-.9,3.76-5.58,21.19-23.2c1.4-1.95,2.75-5,2.41-6.06-.05-.13-.39-.3-.72-.41s-5.4-1.31-30.84,6.92a5.55,5.55,0,0,1-5.92-8.9c3.09-3.62,4.66-7.45,4.66-11.38-1.17-1.14-11.09-2.47-41.41,6.71a7.13,7.13,0,0,1-9.07-8.09,57.64,57.64,0,0,0,.9-8,5.27,5.27,0,0,0-2.18-4.45A5.51,5.51,0,0,0,563.71,334.75Z"/><path class="cls-4" d="M568.26,591.05l-40,36.84L568.34,673,608,628.13Z"/><polygon class="cls-5" points="568.36 673 607.95 628.13 568.26 591.05 568.36 673"/><path class="cls-3" d="M777,514.66s-6.44-.29-8.67.54S726,494.85,678,494.85s-80.31,29.85-80.31,29.85H538.55s-32.36-29.85-80.32-29.85-88.12,21.21-90.34,20.35-8.67-.54-8.67-.54l-1.38,13.64s15.34,12.84,16.47,19.81c.68,4.22,4.64,25.29,6.74,33.56,2.44,9.6,6.93,23,18.21,35.16,16.76,18,36.47,27.23,56.76,27.23,22.64,0,46.55-3.61,65-22.32s34.67-54.28,32.08-63.58c-1-3.55-7.52-8.63-4.74-13.94s19.8-5,19.8-5,17-.27,19.79,5-3.73,10.39-4.74,13.94c-2.56,9.3,13.67,44.87,32.1,63.58s42.29,22.32,65,22.32c20.27,0,40-9.2,56.71-27.23,11.31-12.17,15.8-25.56,18.26-35.16,2.08-8.27,6-29.34,6.72-33.56,1.14-7,16.45-19.81,16.45-19.81ZM532.75,587.73c-12.25,41.29-47.95,52.06-75.1,52.06s-54.3-23.81-62.08-37.18-20.79-51.79-7.44-77.69S467,494.85,506,513.76C540.46,530.4,545,546.48,532.75,587.73Zm207.92,14.88c-7.81,13.37-34.94,37.18-62.09,37.18S615.75,629,603.46,587.73s-7.69-57.33,26.77-74c39-18.91,104.5-14.74,117.87,11.16S748.46,589.23,740.67,602.61Z"/><path class="cls-3" d="M508.23,563.07a26.07,26.07,0,1,1-26.07-26A26.08,26.08,0,0,1,508.23,563.07Z"/><path class="cls-3" d="M683.19,563.07a26.06,26.06,0,1,1-26.06-26A26.08,26.08,0,0,1,683.19,563.07Z"/><circle class="cls-1" cx="490.64" cy="557.97" r="11.09"/><circle class="cls-1" cx="665.6" cy="557.97" r="11.09"/><path class="cls-6" d="M527.69,693.53c-1.18-.15-2.27-.28-3.29-.43a249.09,249.09,0,0,1-37.35-7.72,149.19,149.19,0,0,1-23.51-8.94,107.05,107.05,0,0,1-16.42-9.85,86.64,86.64,0,0,1-10.28-8.87,87.66,87.66,0,0,1-13.95-18.54c-2.54-4.57-4.92-9.23-7.33-13.91a10.32,10.32,0,0,0-7.17-5.7,6.76,6.76,0,0,0-6,1,54.32,54.32,0,0,0-13.3,14.64,150.81,150.81,0,0,0-8.5,15.66,95,95,0,0,0-8,26.53,72.54,72.54,0,0,0,0,21.37,65.14,65.14,0,0,0,25.57,42.69A66.06,66.06,0,0,0,410,748.59a72.32,72.32,0,0,0,21.44,6.21,75.21,75.21,0,0,0,26-1.36,68.78,68.78,0,0,0,10.79-3,16.23,16.23,0,0,0,4.95-2.74,4.07,4.07,0,0,0,1.35-1.77c-1.8-.32-3.54-.5-5.27-.89a35.66,35.66,0,0,1-10.07-4.11,25.44,25.44,0,0,1-6.29-4.84,29.64,29.64,0,0,1-1.92-2.46,1.94,1.94,0,0,1-.27-.58,5.14,5.14,0,0,1,.61-.1l.74.18c4.3,1.12,8.58,2.32,12.9,3.44a84.28,84.28,0,0,0,9.19,2.13,44.88,44.88,0,0,0,15.59-.5,24.22,24.22,0,0,0,10.38-4.73,27.63,27.63,0,0,0,6.08-7.23l1.57-2.58a16.78,16.78,0,0,1-2.31.15,45.1,45.1,0,0,1-5.05-.57,90.31,90.31,0,0,1-25.91-10.12,28.4,28.4,0,0,1-3.36-2.53c-.13-.1-.14-.39-.23-.55a1.91,1.91,0,0,1,.56,0,44.64,44.64,0,0,0,10.69,2.77,50.57,50.57,0,0,0,29.23-4.43,35,35,0,0,0,12.64-10c.93-1.16,1.77-2.38,2.69-3.58C527,694.37,527.3,694,527.69,693.53Z"/><path class="cls-3" d="M440.53,759.05a78,78,0,0,1-9.54-.58,76.11,76.11,0,0,1-22.55-6.54A69.26,69.26,0,0,1,369,699.34a76.84,76.84,0,0,1,0-22.46,98.08,98.08,0,0,1,8.31-27.54A155,155,0,0,1,386,633.26a57.71,57.71,0,0,1,14.21-15.64,10.41,10.41,0,0,1,9.1-1.64,14,14,0,0,1,9.57,7.62l.36.7c2.22,4.33,4.52,8.8,6.9,13.08a84,84,0,0,0,13.35,17.74,82.44,82.44,0,0,0,9.83,8.49,102.46,102.46,0,0,0,15.87,9.51,146.15,146.15,0,0,0,22.93,8.72,247.49,247.49,0,0,0,36.79,7.6l2,.26,8.11,1.08L530.49,696c-.3.35-.54.65-.76.93-.48.62-.85,1.13-1.22,1.63-.53.71-1,1.43-1.61,2.12a38.89,38.89,0,0,1-13.92,11,52.8,52.8,0,0,1-20.66,5.22,66.7,66.7,0,0,0,8.89,2.72A33.1,33.1,0,0,0,505,720l.82.07a6.15,6.15,0,0,0,.73-.06c.34,0,.68-.08,1-.1l7-.43-5.22,8.63a31.1,31.1,0,0,1-6.92,8.19,27.76,27.76,0,0,1-11.91,5.46,47.71,47.71,0,0,1-12.6,1l1.29.23-1.12,3.94a7.59,7.59,0,0,1-2.51,3.57,19.78,19.78,0,0,1-6,3.38,70.82,70.82,0,0,1-11.32,3.2A79.71,79.71,0,0,1,440.53,759.05ZM406.29,623a2.54,2.54,0,0,0-1.64.53,50.54,50.54,0,0,0-12.42,13.68A149.49,149.49,0,0,0,384,652.45a90.92,90.92,0,0,0-7.69,25.48,69.39,69.39,0,0,0,0,20.3,62.26,62.26,0,0,0,7,20.63,61.29,61.29,0,0,0,17.16,19.65,61.91,61.91,0,0,0,11.17,6.73,68.73,68.73,0,0,0,20.33,5.89,71.93,71.93,0,0,0,24.7-1.29,79.35,79.35,0,0,0,8.4-2.2,41.62,41.62,0,0,1-7.7-3.56,25.4,25.4,0,0,1-9.2-8.14h0a3.89,3.89,0,0,1-.56-4,4.1,4.1,0,0,1,3.75-2.68l.68.06a10.54,10.54,0,0,1,1,.25c2,.52,4.09,1.08,6.16,1.64,2.22.6,4.45,1.2,6.69,1.78l2.27.6a55.77,55.77,0,0,0,6.49,1.45,41.37,41.37,0,0,0,14.33-.45,20.64,20.64,0,0,0,8.82-4,20.34,20.34,0,0,0,3.34-3.49l-1.44-.24c-8.29-1.85-19.23-6.45-29.35-12.33L467.67,713l.92-3c1.13-3.11,3.43-2.7,9-1.7,1.77.32,3.69.66,5.06.84A46.54,46.54,0,0,0,509.77,705a31.71,31.71,0,0,0,11.1-8.65A248.08,248.08,0,0,1,486,688.93a152.88,152.88,0,0,1-24.08-9.17,108.58,108.58,0,0,1-17-10.2,89.3,89.3,0,0,1-10.7-9.24A91.11,91.11,0,0,1,419.68,641c-2.46-4.41-4.79-8.94-7-13.32l-.37-.72a6.67,6.67,0,0,0-4.73-3.8A5.28,5.28,0,0,0,406.29,623Z"/><path class="cls-6" d="M615.79,693.53c1.18-.15,2.27-.28,3.29-.43a249.09,249.09,0,0,0,37.35-7.72,149.57,149.57,0,0,0,23.51-8.94,107.05,107.05,0,0,0,16.42-9.85,85.76,85.76,0,0,0,10.27-8.87,87.33,87.33,0,0,0,14-18.54c2.55-4.57,4.93-9.23,7.34-13.91a10.32,10.32,0,0,1,7.17-5.7,6.76,6.76,0,0,1,6,1,54.32,54.32,0,0,1,13.3,14.64,150.81,150.81,0,0,1,8.5,15.66,95.36,95.36,0,0,1,8,26.53,72.54,72.54,0,0,1,0,21.37,66.34,66.34,0,0,1-37.38,49.81A72.32,72.32,0,0,1,712,754.8a75.21,75.21,0,0,1-26-1.36,68.78,68.78,0,0,1-10.79-3,16.23,16.23,0,0,1-5-2.74,4,4,0,0,1-1.35-1.77c1.8-.32,3.54-.5,5.27-.89a35.66,35.66,0,0,0,10.07-4.11,25.44,25.44,0,0,0,6.29-4.84,29.64,29.64,0,0,0,1.92-2.46,1.94,1.94,0,0,0,.27-.58,5.14,5.14,0,0,0-.61-.1l-.74.18c-4.3,1.12-8.58,2.32-12.9,3.44a84.28,84.28,0,0,1-9.19,2.13,44.87,44.87,0,0,1-15.59-.5,24.22,24.22,0,0,1-10.38-4.73,27.63,27.63,0,0,1-6.08-7.23l-1.57-2.58a16.74,16.74,0,0,0,2.3.15,44.58,44.58,0,0,0,5.05-.57A90.25,90.25,0,0,0,669,713.08a29.24,29.24,0,0,0,3.36-2.53c.13-.1.14-.39.22-.55a1.83,1.83,0,0,0-.55,0,44.64,44.64,0,0,1-10.69,2.77,50.56,50.56,0,0,1-29.23-4.43,35,35,0,0,1-12.64-10c-.93-1.16-1.77-2.38-2.69-3.58C616.47,694.37,616.18,694,615.79,693.53Z"/><path class="cls-3" d="M703,759.05a80,80,0,0,1-17.72-2,72.31,72.31,0,0,1-11.33-3.21,20,20,0,0,1-6-3.39,7.52,7.52,0,0,1-2.48-3.55L664.28,743l1.28-.23a47.56,47.56,0,0,1-12.58-1,27.62,27.62,0,0,1-11.93-5.47,31,31,0,0,1-6.91-8.18l-5.22-8.63,7,.43c.36,0,.7.06,1,.1a4.84,4.84,0,0,0,.75.06l.81-.07a34.39,34.39,0,0,0,3.82-.44,67.78,67.78,0,0,0,8.82-2.71,52.69,52.69,0,0,1-20.68-5.23,38.92,38.92,0,0,1-13.94-11c-.53-.66-1-1.37-1.57-2.08-.37-.51-.75-1-1.14-1.52s-.55-.7-.85-1l-4.48-5.17,8.12-1.08,1.91-.26a246.9,246.9,0,0,0,36.84-7.6,145.66,145.66,0,0,0,22.94-8.73,101.6,101.6,0,0,0,15.84-9.49,82.06,82.06,0,0,0,9.85-8.5,84,84,0,0,0,13.36-17.76c2.37-4.26,4.67-8.73,6.89-13.06l.37-.72a14,14,0,0,1,9.6-7.61,10.36,10.36,0,0,1,9.07,1.67,57.47,57.47,0,0,1,14.19,15.6,155.29,155.29,0,0,1,8.72,16.08,98,98,0,0,1,8.32,27.57,76.7,76.7,0,0,1,0,22.44,69.26,69.26,0,0,1-7.82,23.1,68.55,68.55,0,0,1-19.19,22,69.85,69.85,0,0,1-12.45,7.5,76.48,76.48,0,0,1-22.54,6.54A80.85,80.85,0,0,1,703,759.05Zm-24.48-11.41a78.46,78.46,0,0,0,8.38,2.19,71.91,71.91,0,0,0,24.74,1.3,68.93,68.93,0,0,0,20.32-5.89,62.38,62.38,0,0,0,11.14-6.71,61.46,61.46,0,0,0,17.18-19.66,62.37,62.37,0,0,0,7-20.65,69.26,69.26,0,0,0,0-20.28,90.9,90.9,0,0,0-7.7-25.51,149.16,149.16,0,0,0-8.28-15.26,50.34,50.34,0,0,0-12.38-13.63,3,3,0,0,0-2.87-.39,6.67,6.67,0,0,0-4.76,3.8l-.38.73c-2.26,4.38-4.58,8.91-7,13.3a91.44,91.44,0,0,1-14.55,19.34,90.39,90.39,0,0,1-10.71,9.25,108.32,108.32,0,0,1-17,10.18,152.15,152.15,0,0,1-24.1,9.18,249.54,249.54,0,0,1-34.86,7.41A31.46,31.46,0,0,0,633.7,705a46.51,46.51,0,0,0,27.15,4.09c1.37-.18,3.28-.52,5-.84,5.56-1,7.86-1.41,9,1.7l1.06,2.93-2.84,1.66c-4.83,2.8-17.41,9.65-29.23,12.29-.52.1-1,.19-1.53.25a20,20,0,0,0,3.34,3.49,20.52,20.52,0,0,0,8.83,4,41.25,41.25,0,0,0,14.31.45,55.47,55.47,0,0,0,6.5-1.45l2.29-.61c2.22-.57,4.45-1.17,6.67-1.77s4.14-1.12,6.21-1.65a9,9,0,0,1,1-.24l.68-.06a4.11,4.11,0,0,1,3.75,2.68,3.92,3.92,0,0,1-.49,4,30.19,30.19,0,0,1-2.11,2.69,28.62,28.62,0,0,1-7.18,5.55A40.74,40.74,0,0,1,678.47,747.64Zm11.47-16.72a3.23,3.23,0,0,0-.35.4Z"/><path class="cls-3" d="M404.11,332,431,442.88l1.16-.28c5.42,20.53,70.32,25,130.75,10.31S679,404.59,674.41,383.85l0,0-27.7-110.72Z"/><path class="cls-7" d="M404.11,332,431,442.88l.14.08c5,18.82,58.41,23.65,112.51,14.06L507.27,307Z"/><polygon class="cls-8" points="755.99 259.17 507.13 265.13 301.63 363.54 303.44 370.99 560.98 368.47 757.8 266.63 755.99 259.17"/><polygon class="cls-7" points="302.38 363.35 507.86 264.96 756.7 259 559.9 360.84 302.38 363.35"/><polygon class="cls-9" points="346.23 362.84 336.77 362.98 510.43 306.04 517.4 309.13 346.23 362.84"/><path class="cls-3" d="M559.71,297.11c1.27,5.26-13.05,13.25-32,17.84s-35.32,4.05-36.6-1.21,13-13.25,32-17.84S558.43,291.84,559.71,297.11Z"/><polygon class="cls-9" points="363.7 439.18 355.21 441.23 336.77 362.95 346.3 362.84 363.7 439.18"/><path class="cls-9" d="M388.26,479.88a3.29,3.29,0,0,1-2.37,4L356.42,491a3.29,3.29,0,0,1-3.94-2.44L350,432.18a3.23,3.23,0,0,1,2.4-3.9l8.42-2a3.24,3.24,0,0,1,3.92,2.37Z"/><path class="cls-10" d="M361.26,418c-.2-.82-.75-1.72-1.66-1.5l-9.94,2.41c-.91.22-2.35,1.6-2.15,2.43l1.44,6c.2.83,2.09,1.28,3,1.06l9.93-2.41c.91-.22,1-1.16.81-2Z"/><path class="cls-10" d="M359.62,411.8a7.09,7.09,0,1,1-8.57-5.23A7.1,7.1,0,0,1,359.62,411.8Z"/><polygon class="cls-3" points="558.71 361.45 560.51 368.91 757.8 266.63 756.05 259.42 558.71 361.45"/></svg>